<svg width="139.140472" height="35.606201" viewBox="0 0 139.14 35.6062" fill="none" xmlns="http://www.w3.org/2000/svg" xmlns:xlink="http://www.w3.org/1999/xlink">
	<desc>
			Created with Pixso.
	</desc>
	<defs/>
	<path id="Vector" d="M0 17.3153C0.274261 16.4153 0.772797 15.62 1.19382 14.7891C1.63428 13.922 1.61209 12.9971 1.54562 12.0638C1.51794 11.6801 1.51233 11.2963 1.54004 10.9152C1.59549 10.1035 1.95831 9.45459 2.5788 8.93555C2.96661 8.60974 3.3765 8.31433 3.7948 8.02991C4.58139 7.49426 5.14093 6.79016 5.48996 5.90942C5.64508 5.51733 5.83347 5.13635 6.00238 4.74695C6.45667 3.70337 7.27936 3.14001 8.38449 2.94678C8.76401 2.88049 9.14072 2.80042 9.52023 2.74243C10.4841 2.59338 11.3012 2.1626 12.0076 1.5C12.2873 1.23767 12.592 1.00024 12.8828 0.748901C13.7166 0.0311279 14.6694 -0.153931 15.7248 0.125C16.0294 0.204956 16.3369 0.271362 16.6334 0.370728C17.7302 0.737915 18.8188 0.732422 19.9157 0.373413C20.406 0.213379 20.9073 0.0891113 21.4225 0.0227051C22.1455 -0.0683594 22.7853 0.116699 23.3726 0.528076C23.7215 0.773804 24.0594 1.03613 24.3586 1.33704C25.2311 2.21228 26.2865 2.68164 27.5052 2.83081C27.8653 2.875 28.2198 2.97437 28.5745 3.05444C29.4552 3.25598 30.0729 3.78345 30.4635 4.5813C30.6712 5.00647 30.8762 5.43445 31.0479 5.87622C31.4081 6.78735 31.9842 7.51355 32.8013 8.06311C33.2224 8.3446 33.6267 8.64563 34.0145 8.97693C34.6627 9.52917 34.9868 10.2222 35.0228 11.0643C35.0477 11.6 35.0089 12.1356 34.9756 12.6685C34.9148 13.5962 35.1308 14.4467 35.5879 15.2473C35.7928 15.6063 35.9811 15.9762 36.1723 16.3407C36.6847 17.3153 36.682 18.2927 36.1723 19.2675C36.0338 19.5353 35.9119 19.8169 35.7485 20.0681C35.056 21.1367 34.8621 22.3019 35.0034 23.5444C35.0477 23.9364 35.0366 24.3313 35.0089 24.7233C34.9452 25.6511 34.4522 26.3248 33.7348 26.8632C33.4023 27.1117 33.0727 27.3629 32.7293 27.5975C31.9593 28.1194 31.4164 28.8152 31.0729 29.674C30.915 30.066 30.735 30.4498 30.566 30.8391C30.1062 31.8938 29.2835 32.4681 28.1645 32.6586C27.7961 32.7222 27.4276 32.7994 27.0593 32.8574C26.087 33.0093 25.2588 33.4373 24.5442 34.111C24.2644 34.3733 23.9598 34.6107 23.6689 34.8619C22.8324 35.5771 21.8795 35.7621 20.827 35.4805C20.5251 35.4004 20.2148 35.3341 19.9184 35.2347C18.8216 34.8704 17.733 34.8757 16.636 35.2347C16.1569 35.3921 15.6638 35.5137 15.1597 35.5798C14.4174 35.6765 13.7554 35.4888 13.1543 35.0552C12.8164 34.8123 12.4868 34.5582 12.1932 34.2628C11.3206 33.3876 10.2653 32.9209 9.04657 32.7719C8.68643 32.7277 8.33191 32.6282 7.97729 32.5482C7.11032 32.3494 6.49265 31.8276 6.10486 31.0433C5.88605 30.6017 5.67834 30.1516 5.49554 29.6932C5.14371 28.8125 4.58701 28.1084 3.80029 27.5728C3.36542 27.2773 2.93884 26.9681 2.53723 26.6256C1.89734 26.0818 1.57611 25.397 1.53452 24.5659C1.50684 23.9779 1.565 23.3953 1.58719 22.8127C1.61209 22.0533 1.47916 21.33 1.11624 20.6534C0.706329 19.8832 0.263153 19.1294 0.00280762 18.2872C0 17.9614 0 17.6384 0 17.3153ZM5.67554 17.7793C5.67554 24.7289 11.3234 30.356 18.3091 30.342C25.1702 30.3284 30.7156 24.842 30.8762 18.1105C31.0424 11.067 25.4001 5.40686 18.564 5.2605C11.4231 5.10596 5.67554 10.8545 5.67554 17.7793Z" fill="#141820" fill-opacity="1.000000" fill-rule="nonzero"/>
	<path id="Vector" d="M66.8907 11.4061C69.0155 7.81116 75.1753 7.68701 77.153 11.5663C77.2721 11.5497 77.2946 11.4365 77.3443 11.3593C78.5546 9.58118 80.269 8.75549 82.3965 8.70032C83.7205 8.66724 84.984 8.88525 86.1276 9.58118C87.8393 10.6248 88.7511 12.1931 89.0667 14.134C89.166 14.7443 89.1912 15.3572 89.1885 15.9757C89.1858 19.3608 89.1831 22.7458 89.1939 26.1309C89.1939 26.385 89.1497 26.4734 88.8701 26.4651C88.0585 26.443 87.2468 26.4457 86.4324 26.4623C86.1916 26.4678 86.133 26.4015 86.1357 26.1641C86.1447 22.6879 86.142 19.2118 86.142 15.7355C86.142 15.106 86.0554 14.4875 85.8372 13.8938C85.2609 12.3256 83.7737 11.4614 82.0033 11.5829C80.0093 11.7181 78.5104 12.991 78.1641 15.3214C78.0811 15.8818 78.0477 16.4451 78.0477 17.0111C78.0504 20.0538 78.045 23.0938 78.0558 26.1365C78.0558 26.4071 77.99 26.4706 77.7239 26.4651C76.9312 26.4457 76.1393 26.4457 75.3475 26.4651C75.076 26.4706 74.9958 26.4071 74.9958 26.1227C75.0066 22.6355 75.0039 19.151 75.0012 15.6637C75.0012 14.7719 74.8461 13.9132 74.3609 13.1484C73.5907 11.9363 72.4282 11.5 71.051 11.5939C68.8685 11.7458 67.3588 13.1594 67.0125 15.3158C66.9295 15.835 66.888 16.3567 66.888 16.884C66.8907 19.9655 66.8853 23.0469 66.8961 26.1309C66.8961 26.4208 66.8077 26.4734 66.5444 26.4678C65.7525 26.4512 64.9598 26.4512 64.1679 26.4678C63.9046 26.4734 63.8325 26.4153 63.8351 26.142C63.8442 20.9678 63.8442 15.7935 63.8442 10.6219C63.8442 10.2078 63.855 9.7937 63.8379 9.37952C63.8297 9.16968 63.9073 9.13379 64.0958 9.1366C64.949 9.1449 65.8021 9.1449 66.6553 9.1366C66.8384 9.13379 66.8988 9.17529 66.8961 9.36853C66.8826 10.0201 66.8907 10.6772 66.8907 11.4061Z" fill="#141820" fill-opacity="1.000000" fill-rule="nonzero"/>
	<path id="Vector" d="M57.619 11.9896C57.619 11.1227 57.6246 10.2584 57.6163 9.39148C57.6136 9.20361 57.6523 9.12915 57.8628 9.13196C58.716 9.14563 59.5691 9.14294 60.4222 9.13196C60.6272 9.12915 60.6715 9.19543 60.6715 9.38867C60.666 14.9963 60.666 20.6041 60.6715 26.2146C60.6715 26.4189 60.6078 26.4659 60.4139 26.4631C59.5719 26.452 58.7298 26.452 57.885 26.4631C57.6745 26.4659 57.6107 26.4135 57.6136 26.1981C57.6274 25.3339 57.619 24.4697 57.619 23.5281C57.2894 23.9589 57.0096 24.3344 56.6828 24.674C55.3699 26.0352 53.744 26.72 51.8798 26.8663C49.326 27.0651 47.0685 26.3693 45.1822 24.605C42.825 22.3988 41.933 19.6598 42.3402 16.5095C42.7779 13.1216 44.6255 10.6753 47.7554 9.34729C50.3203 8.2594 52.9268 8.40576 55.3755 9.84973C56.2784 10.3882 56.9737 11.1531 57.619 11.9896ZM45.2957 17.7906C45.2957 21.311 47.9355 23.9644 51.4228 23.9893C54.9572 24.014 57.5637 21.2391 57.6329 17.9453C57.705 14.4 54.9628 11.5892 51.4421 11.6085C47.9465 11.6306 45.2957 14.2786 45.2957 17.7906Z" fill="#141820" fill-opacity="1.000000" fill-rule="nonzero"/>
	<path id="Vector" d="M136.088 23.5138C135.609 24.2013 135.122 24.7646 134.543 25.2423C133.312 26.2584 131.88 26.7609 130.305 26.8741C127.762 27.0591 125.518 26.3577 123.64 24.5989C121.463 22.5613 120.579 20.0404 120.731 17.1027C120.951 12.8865 124.214 9.46826 127.82 8.85254C130.241 8.43848 132.531 8.74756 134.517 10.338C135.113 10.8129 135.603 11.3872 136.088 12.0913C136.088 11.2271 136.088 10.454 136.088 9.68359C136.088 9.13977 136.088 9.13977 136.645 9.13977C137.376 9.13977 138.107 9.15076 138.838 9.13416C139.079 9.12866 139.14 9.19495 139.14 9.43237C139.132 13.7866 139.135 18.1436 139.135 22.4977C139.135 23.7319 139.13 24.9634 139.14 26.1976C139.143 26.4103 139.085 26.4683 138.869 26.4655C138.036 26.4543 137.204 26.4515 136.371 26.4655C136.152 26.4683 136.077 26.424 136.079 26.1865C136.097 25.3306 136.088 24.4719 136.088 23.5138ZM123.762 17.7902C123.762 21.3132 126.399 23.9667 129.889 23.9886C133.423 24.0135 136.043 21.2386 136.099 17.9171C136.154 14.3802 133.413 11.5916 129.911 11.6108C126.41 11.6302 123.762 14.2753 123.762 17.7902Z" fill="#141820" fill-opacity="1.000000" fill-rule="nonzero"/>
	<path id="Vector" d="M106.379 23.5226C105.869 24.2488 105.345 24.8451 104.717 25.3422C103.457 26.3361 102.002 26.8138 100.415 26.8829C96.5045 27.0541 93.7177 25.2787 91.9203 21.8936C91.1329 20.4109 90.9174 18.7874 91.0338 17.1335C91.2583 13.8948 92.7734 11.3712 95.6071 9.80005C98.5237 8.18494 101.518 8.22632 104.396 10.0293C105.19 10.5262 105.795 11.2386 106.379 12.0807C106.379 11.5782 106.379 11.1586 106.379 10.7416C106.379 10.2777 106.384 9.81116 106.376 9.34729C106.374 9.19543 106.412 9.13464 106.578 9.13745C107.462 9.14575 108.345 9.14575 109.226 9.13745C109.392 9.13464 109.445 9.19543 109.426 9.34729C109.42 9.38599 109.426 9.42737 109.426 9.46887C109.426 15.024 109.423 20.582 109.431 26.1373C109.431 26.394 109.384 26.4797 109.104 26.4714C108.282 26.4493 107.459 26.4548 106.64 26.4688C106.418 26.4714 106.371 26.4025 106.374 26.1953C106.384 25.3339 106.379 24.478 106.379 23.5226ZM106.379 17.8154C106.379 14.2786 103.739 11.6168 100.227 11.6141C96.7119 11.6113 94.0532 14.2731 94.0532 17.799C94.0532 21.3082 96.7092 23.9838 100.194 23.9838C103.726 23.9838 106.379 21.3386 106.379 17.8154Z" fill="#141820" fill-opacity="1.000000" fill-rule="nonzero"/>
	<path id="Vector" d="M115.661 11.84C116.09 11.1719 116.531 10.5505 117.137 10.0619C118.226 9.17834 119.506 8.87463 120.874 8.83325C121.029 8.82776 121.088 8.87183 121.088 9.03479C121.082 9.9541 121.077 10.8737 121.09 11.7931C121.093 12.0305 120.954 11.9919 120.816 11.9919C119.805 11.9863 118.852 12.2018 117.96 12.6959C116.653 13.4193 115.979 14.5514 115.753 15.9899C115.684 16.4288 115.661 16.8734 115.661 17.318C115.664 20.2584 115.658 23.1991 115.669 26.1395C115.669 26.4047 115.609 26.4792 115.337 26.4709C114.556 26.4517 113.773 26.4489 112.991 26.4709C112.695 26.4792 112.603 26.4185 112.603 26.101C112.615 20.6146 112.612 15.1257 112.612 9.6394C112.612 9.54834 112.62 9.45715 112.609 9.36609C112.592 9.20312 112.639 9.13416 112.822 9.13684C113.695 9.14526 114.567 9.14795 115.443 9.13684C115.658 9.13416 115.661 9.23633 115.661 9.39368C115.658 10.2054 115.661 11.0227 115.661 11.84Z" fill="#141820" fill-opacity="1.000000" fill-rule="nonzero"/>
	<path id="Vector" d="M5.67542 17.7794C5.67542 10.8575 11.4229 5.1062 18.5638 5.25806C25.3999 5.40442 31.0423 11.0646 30.8761 18.108C30.7182 24.8423 25.17 30.3286 18.309 30.3396C11.3233 30.3534 5.67542 24.7263 5.67542 17.7794ZM18.2619 29.6245C24.8321 29.6245 30.1531 24.3397 30.1614 17.8292C30.1697 11.3214 24.9152 6.13599 18.5915 5.97314C11.8994 5.79919 6.38727 11.1805 6.39005 17.7739C6.39276 24.3342 11.6916 29.6245 18.2619 29.6245Z" fill="#141820" fill-opacity="1.000000" fill-rule="nonzero"/>
	<path id="Vector" d="M18.2624 29.6244C11.6921 29.6244 6.39331 24.3342 6.3905 17.7711C6.38779 11.1777 11.9026 5.79907 18.592 5.97034C24.9157 6.13318 30.1703 11.3186 30.1619 17.8263C30.1536 24.3397 24.8326 29.6244 18.2624 29.6244ZM21.5364 12.6852C20.0518 10.9651 18.2015 10.5178 16.1212 10.8243C14.1657 11.1115 12.7475 12.2407 11.7087 13.8503C10.6562 15.4795 10.4374 17.2825 10.7199 19.1682C11.1354 21.932 13.5674 24.7208 16.7777 24.8588C18.2928 24.925 19.6999 24.6157 20.8771 23.5887C21.096 23.3982 21.2954 23.1884 21.5364 22.9536C21.5364 23.3954 21.5475 23.8069 21.5309 24.2155C21.5226 24.4253 21.578 24.4861 21.794 24.4833C22.769 24.4722 23.744 24.4695 24.7163 24.4861C24.9573 24.4889 24.9905 24.4115 24.9905 24.199C24.9822 22.1392 24.985 20.0767 24.985 18.0168C24.985 15.8052 24.985 13.5908 24.985 11.3793C24.985 11.2412 25.021 11.1115 24.7828 11.1143C23.769 11.1279 22.7524 11.1252 21.7386 11.1169C21.5503 11.1143 21.5281 11.1915 21.5309 11.3489C21.542 11.7686 21.5364 12.1882 21.5364 12.6852Z" fill="#141820" fill-opacity="1.000000" fill-rule="nonzero"/>
	<path id="Vector" d="M17.7993 14.0107C20.0236 14.0219 21.5471 15.604 21.536 17.8929C21.5249 20.041 19.9239 21.601 17.7689 21.5955C15.564 21.5872 13.9852 19.9001 14.0627 17.6195C14.1292 15.5598 15.6942 13.9998 17.7993 14.0107Z" fill="#141820" fill-opacity="1.000000" fill-rule="nonzero"/>
</svg>
