<svg width="128.694336" height="35.606201" viewBox="0 0 128.694 35.6062" fill="none" xmlns="http://www.w3.org/2000/svg" xmlns:xlink="http://www.w3.org/1999/xlink">
	<desc>
			Created with Pixso.
	</desc>
	<defs/>
	<path id="Vector" d="M19.2399 0C19.6327 0.129639 20.0472 0.113403 20.4482 0.172852C23.458 0.618408 26.1779 1.74988 28.616 3.5592C28.7488 3.65906 28.7623 3.71582 28.6512 3.84814C27.5757 5.10388 26.5084 6.36218 25.4464 7.62878C25.3272 7.77185 25.2621 7.76917 25.1186 7.6665C23.4796 6.49463 21.6591 5.75732 19.6653 5.47375C17.2189 5.12537 14.8484 5.43335 12.6216 6.50806C8.61224 8.44702 6.2038 11.6307 5.49939 16.0137C4.67865 21.1255 7.33618 26.3751 12.0013 28.7568C16.4902 31.0496 20.8816 30.7228 25.0807 27.9414C25.2649 27.8198 25.3353 27.8307 25.4734 27.9955C26.5219 29.2484 27.5757 30.4933 28.6377 31.7328C28.7678 31.884 28.7272 31.9435 28.589 32.046C26.4786 33.615 24.1352 34.6898 21.5562 35.2109C17.6659 35.9995 13.8786 35.6295 10.3 33.9093C4.95764 31.3385 1.63898 27.1285 0.352173 21.3496C0.211304 20.7124 0.130066 20.0669 0.0623169 19.4188C0.0568848 19.3674 0.0866699 19.2946 0 19.2756C0 18.2874 0 17.299 0 16.3107C0.0839844 16.2889 0.0541992 16.2189 0.0623169 16.1675C0.119202 15.7462 0.162537 15.325 0.232971 14.9064C0.858765 11.1312 2.53571 7.88257 5.25293 5.1875C8.07037 2.39526 11.4702 0.720947 15.4147 0.159302C15.7587 0.110718 16.1163 0.137695 16.4442 0.00268555C17.3734 0 18.3079 0 19.2399 0Z" fill="#141820" fill-opacity="1.000000" fill-rule="nonzero"/>
	<path id="Vector" d="M120.079 21.417C117.348 21.417 114.618 21.4224 111.887 21.4116C111.6 21.4116 111.57 21.4736 111.635 21.7383C112.372 24.7791 114.718 26.7827 117.858 27.05C118.892 27.1392 119.917 27.1149 120.932 26.88C122.49 26.5181 123.723 25.6891 124.608 24.3605C124.72 24.1957 124.793 24.1606 124.972 24.2659C125.828 24.7628 126.686 25.2489 127.554 25.7268C127.741 25.8295 127.754 25.8943 127.632 26.0725C125.958 28.5299 123.631 29.926 120.684 30.3096C118.495 30.5931 116.33 30.4823 114.285 29.6101C110.747 28.0979 108.653 25.4137 108.075 21.6195C107.728 19.3296 107.924 17.0747 108.964 14.9711C110.538 11.7872 113.084 9.85913 116.633 9.31091C118.503 9.02197 120.355 9.10034 122.146 9.75378C124.587 10.6449 126.294 12.3597 127.481 14.6119C128.559 16.6588 128.851 18.8542 128.621 21.1361C128.599 21.3414 128.537 21.4279 128.299 21.4279C125.56 21.4143 122.818 21.417 120.079 21.417ZM125.107 18.3331C125.067 18.1116 125.037 17.9199 124.994 17.7281C124.664 16.2565 124.032 14.9521 122.829 13.9827C120.808 12.3542 118.511 12.1248 116.121 12.8647C113.632 13.6371 112.218 15.4409 111.649 17.9388C111.559 18.3304 111.567 18.3331 111.96 18.3331C116.219 18.3331 120.478 18.3331 124.737 18.3331C124.85 18.3331 124.969 18.3331 125.107 18.3331Z" fill="#141820" fill-opacity="1.000000" fill-rule="nonzero"/>
	<path id="Vector" d="M58.4537 23.4235C59.3691 23.9528 60.2601 24.4658 61.1521 24.9789C61.4822 25.1707 61.4849 25.1733 61.2766 25.5137C59.8327 27.8629 57.7656 29.4211 55.0889 30.0774C51.8245 30.8739 48.7118 30.4689 45.9485 28.4545C43.3857 26.5884 41.958 24.0472 41.6899 20.8796C41.5164 18.8138 41.7522 16.8047 42.7166 14.9523C44.3501 11.8116 46.9075 9.86182 50.4537 9.30823C52.6264 8.96814 54.7449 9.16516 56.7632 10.0914C58.6756 10.9691 60.1628 12.3112 61.1683 14.1691C61.2847 14.3878 61.2955 14.4958 61.0466 14.6335C60.2034 15.09 59.3745 15.576 58.5484 16.0594C58.3834 16.1566 58.3184 16.1431 58.221 15.9675C57.0422 13.8585 55.1946 12.7919 52.8134 12.6406C50.1179 12.4679 47.9478 13.4805 46.4009 15.6975C45.3065 17.2638 45.0085 19.0353 45.2767 20.8932C45.6505 23.5072 47.0754 25.4218 49.5218 26.3885C52.3094 27.4904 54.9507 27.0825 57.24 25.0437C57.7412 24.5901 58.1227 24.0338 58.4537 23.4235Z" fill="#141820" fill-opacity="1.000000" fill-rule="nonzero"/>
	<path id="Vector" d="M96.9013 23.4211C97.8708 23.9801 98.8241 24.5391 99.7891 25.0873C99.9623 25.1871 99.8649 25.2655 99.8107 25.3628C98.9143 26.9397 97.6544 28.1522 96.0833 29.0542C94.0649 30.2126 91.8842 30.5961 89.5809 30.3748C85.8778 30.0155 83.1415 28.1631 81.327 24.963C80.3051 23.1619 79.9994 21.1825 80.1022 19.1328C80.2294 16.5972 81.1123 14.3693 82.8574 12.4978C84.8325 10.3834 87.2811 9.30603 90.1743 9.17908C92.5336 9.07642 94.7179 9.58679 96.6813 10.9208C97.952 11.7822 98.944 12.8894 99.6511 14.2531C99.7377 14.4205 99.7296 14.4935 99.5555 14.5907C98.6915 15.0714 97.8356 15.5656 96.9798 16.0624C96.8337 16.1461 96.7714 16.1569 96.6732 15.9841C95.4304 13.7698 93.485 12.6976 90.9788 12.6301C88.0775 12.5492 85.848 13.7805 84.4799 16.3163C82.5319 19.9268 83.8242 25.0657 88.4382 26.5671C91.0545 27.4177 93.5148 26.9667 95.6224 25.098C96.1537 24.6255 96.5595 24.053 96.9013 23.4211Z" fill="#141820" fill-opacity="1.000000" fill-rule="nonzero"/>
	<path id="Vector" d="M35.7537 17.8041C35.6779 22.8621 33.833 27.1666 30.1893 30.7041C30.0403 30.8499 29.9671 30.8741 29.8127 30.6879C28.7697 29.4323 27.7132 28.1899 26.6511 26.9506C26.5293 26.8074 26.5428 26.7454 26.6729 26.6129C29.4849 23.7262 30.7311 20.2886 30.2705 16.281C29.9427 13.4241 28.6885 10.999 26.662 8.96558C26.5482 8.85217 26.5266 8.79822 26.6376 8.66589C27.7104 7.41016 28.7805 6.15173 29.8398 4.88525C29.9725 4.72595 30.0457 4.74487 30.1784 4.87451C33.2857 7.87732 35.1306 11.504 35.6371 15.7949C35.713 16.4567 35.7591 17.1263 35.7537 17.8041Z" fill="#141820" fill-opacity="1.000000" fill-rule="nonzero"/>
	<path id="Vector" d="M101.759 15.1226C101.759 10.3293 101.761 5.53601 101.751 0.742676C101.751 0.448364 101.832 0.394409 102.109 0.39978C103.081 0.418701 104.054 0.416016 105.029 0.39978C105.286 0.394409 105.332 0.475342 105.332 0.713013C105.327 9.61914 105.327 18.5225 105.327 27.4285C105.327 28.1683 105.321 28.911 105.329 29.6509C105.332 29.8372 105.294 29.9047 105.089 29.902C104.057 29.8912 103.024 29.8912 101.99 29.902C101.778 29.9047 101.753 29.8264 101.756 29.6482C101.764 28.7975 101.759 27.9469 101.759 27.099C101.759 23.1077 101.759 19.1138 101.759 15.1226Z" fill="#141820" fill-opacity="1.000000" fill-rule="nonzero"/>
	<path id="Vector" d="M74.1743 12.9269C74.5855 12.2194 75.0355 11.5524 75.6343 10.9961C76.7229 9.98608 78.045 9.51636 79.5025 9.37036C79.7686 9.34338 80.0364 9.3407 80.3043 9.31641C80.4675 9.30286 80.5054 9.36768 80.5027 9.51904C80.4973 10.6154 80.4973 11.7117 80.5027 12.8081C80.5027 12.9728 80.4702 13.0106 80.2853 13.0079C78.441 12.989 76.8014 13.5183 75.5208 14.8928C74.691 15.7812 74.3718 16.8966 74.2338 18.0767C74.1769 18.5681 74.1715 19.0623 74.1715 19.5565C74.1743 22.905 74.1688 26.2562 74.1796 29.6047C74.1796 29.856 74.1147 29.91 73.8703 29.9045C72.8792 29.8883 71.8844 29.8937 70.8932 29.9019C70.6984 29.9045 70.6227 29.8694 70.6227 29.6479C70.6281 23.0779 70.6281 16.5077 70.6227 9.93762C70.6227 9.73767 70.666 9.66748 70.8824 9.67017C71.9033 9.68103 72.9279 9.68103 73.9488 9.67017C74.1391 9.66748 74.1796 9.72693 74.1769 9.90247C74.1688 10.9098 74.1743 11.9197 74.1743 12.9269Z" fill="#141820" fill-opacity="1.000000" fill-rule="nonzero"/>
	<path id="Vector" d="M66.8763 19.7865C66.8763 23.0568 66.8736 26.3269 66.8817 29.5999C66.8817 29.8483 66.814 29.9077 66.5706 29.905C65.5677 29.8916 64.5657 29.8943 63.5628 29.9023C63.3734 29.905 63.3139 29.8619 63.3139 29.662C63.3193 23.0811 63.3193 16.5001 63.3139 9.91919C63.3139 9.69238 63.3978 9.66809 63.5908 9.67078C64.5738 9.67883 65.5568 9.6842 66.5381 9.66809C66.8032 9.6626 66.8844 9.72473 66.8817 10.0028C66.8708 13.265 66.8763 16.5244 66.8763 19.7865Z" fill="#141820" fill-opacity="1.000000" fill-rule="nonzero"/>
	<path id="Vector" d="M62.7187 3.68896C62.7106 2.36584 63.7423 1.3396 65.032 1.28296C66.3622 1.22351 67.4922 2.40088 67.4788 3.64856C67.4652 4.97449 66.4623 6.01147 65.1456 6.01953C63.7621 6.02759 62.7241 5.03113 62.7187 3.68896Z" fill="#141820" fill-opacity="1.000000" fill-rule="nonzero"/>
</svg>
