<svg width="104.851395" height="35.606812" viewBox="0 0 104.851 35.6068" fill="none" xmlns="http://www.w3.org/2000/svg" xmlns:xlink="http://www.w3.org/1999/xlink">
	<desc>
			Created with Pixso.
	</desc>
	<defs/>
	<path id="Vector" d="M16.1747 22.0021C16.0388 21.0706 15.3353 20.6211 14.6534 20.1633C13.9607 19.6976 13.2435 19.259 12.7301 18.5846C12.0021 17.6316 11.7222 16.5754 12.2275 15.4408C12.9501 13.8187 15.1723 13.3612 16.6094 14.5662C17.0467 14.9316 17.3238 14.9994 17.8536 14.7529C19.0027 14.2141 20.2115 14.5444 21.0835 15.5302C22.2462 16.8435 22.5478 18.3762 22.0452 20.0199C21.2465 22.6195 19.5405 24.4121 16.8973 25.1676C15.1071 25.6793 13.3441 25.4004 11.7114 24.4933C9.07352 23.0256 7.34581 20.8485 6.81885 17.8644C6.05271 13.5291 7.86745 9.4563 12.1079 7.49036C16.2997 5.54614 20.3555 6.00098 24.0175 8.82812C26.2043 10.5151 27.3669 12.8765 27.53 15.6195C27.8152 20.4125 25.6012 23.8678 21.5019 26.2183C20.1192 27.0117 18.5843 27.3934 17.0522 27.778C16.1285 28.0109 15.2022 28.2329 14.3165 28.5958C14.0123 28.7203 13.7244 28.8746 13.4636 29.0751C13.3033 29.1996 13.1756 29.3486 13.0968 29.5354C13.0316 29.6925 13.0153 29.8387 13.1702 29.9606C13.3331 30.0879 13.3983 29.9226 13.488 29.8549C14.5937 29.0453 15.8514 28.6147 17.1853 28.3738C18.022 28.222 18.8641 28.168 19.7008 28.3738C20.054 28.4604 20.3773 28.6094 20.638 28.8666C21.3172 29.5327 21.1732 30.5374 20.3229 31.0573C19.7388 31.4147 19.0842 31.588 18.4186 31.7045C16.7941 31.9861 15.175 31.9969 13.5749 31.5366C13.4472 31.4987 13.4066 31.542 13.3712 31.6638C13.3141 31.8507 13.3576 32.0186 13.4174 32.1837C13.4853 32.3706 13.5994 32.5331 13.7271 32.6875C14.1373 33.1803 14.1889 33.183 14.7268 32.8823C15.8813 32.2379 17.1038 31.9319 18.4213 32.2406C18.9728 32.3706 19.4291 32.6658 19.7063 33.1776C20.0241 33.7651 19.8611 34.2363 19.2471 34.5098C18.7012 34.7535 18.1143 34.7996 17.5276 34.8077C16.4409 34.8212 15.3869 34.6615 14.3954 34.2012C14.2567 34.1362 14.1807 34.1686 14.0857 34.2579C13.7542 34.564 13.5967 34.9242 13.7271 35.3763C13.7488 35.4523 13.7651 35.528 13.7406 35.6066C13.2761 35.1326 13.2082 34.61 13.5559 34.0007C13.6455 33.8438 13.6265 33.7842 13.488 33.6758C12.8686 33.1748 12.3769 32.5927 12.3769 31.7396C12.3769 31.0979 12.3715 31.1061 12.0292 30.5753C11.6054 29.9199 11.7222 29.27 12.1107 28.6499C12.5344 27.9784 13.1946 27.5912 13.89 27.2527C15.0364 26.6976 16.2535 26.3346 17.4596 25.9475C19.4101 25.3192 21.1624 24.3661 22.613 22.9092C24.3081 21.2059 25.2453 19.1614 25.267 16.746C25.2943 13.4884 23.2459 10.6045 20.1382 9.58362C17.3373 8.66565 14.6344 8.86877 12.1949 10.6343C10.3721 11.9558 9.37782 13.7998 9.02193 16.0122C8.4433 19.6083 10.8258 22.7494 13.2598 23.9843C14.7322 24.7316 16.2236 24.71 17.6634 23.9409C19.6356 22.8848 20.7467 21.214 20.9179 18.9827C20.9966 17.9781 20.6055 17.1008 19.9208 16.3643C19.421 15.8253 18.7418 15.7008 18.0681 15.9851C17.9106 16.0529 17.8943 16.1042 17.9677 16.2585C18.2528 16.8544 18.386 17.4717 18.1741 18.1271C17.8943 18.9882 17.1418 19.4729 16.3595 19.2887C15.645 19.1208 15.2266 18.5034 15.3326 17.7777C15.4358 17.0682 15.7754 16.4724 16.2399 15.9418C16.3622 15.8036 16.373 15.7224 16.229 15.5924C15.7264 15.1376 15.1533 14.8749 14.466 14.9642C13.2816 15.1185 12.6377 16.1503 12.9501 17.3525C13.1402 18.0837 13.5913 18.6361 14.1372 19.129C14.5719 19.5216 15.0256 19.8926 15.4467 20.2987C15.9003 20.7347 16.2399 21.2412 16.2046 21.9127C16.191 21.9316 16.1802 21.9668 16.1747 22.0021ZM14.8599 30.3802C16.3785 30.4399 17.8753 30.3533 19.3151 29.7954C17.7611 29.4514 16.2943 29.7792 14.8599 30.3802ZM17.0549 16.6458C16.6719 16.9924 16.3974 17.3823 16.2752 17.8671C16.229 18.0511 16.2454 18.2218 16.4382 18.3302C16.6202 18.4331 16.7968 18.4358 16.9679 18.3112C17.1282 18.1947 17.2151 18.0323 17.2749 17.8508C17.4135 17.4203 17.2586 17.0438 17.0549 16.6458ZM15.3163 33.6298C16.4029 33.8762 17.4216 33.8627 18.4512 33.5864C18.0762 33.1261 16.1991 33.2236 15.3163 33.6298Z" fill="#141820" fill-opacity="1.000000" fill-rule="nonzero"/>
	<path id="Vector" d="M54.3484 14.8011C54.3944 14.1567 54.4539 13.5095 54.4864 12.8595C54.6578 9.43677 54.6848 6.01135 54.674 2.58313C54.674 2.39355 54.7281 2.26904 54.8778 2.15796C55.5299 1.6759 56.236 1.71924 56.9097 2.03882C57.8306 2.47742 58.3609 3.22754 58.369 4.27283C58.3798 5.38574 58.1949 6.48242 57.9992 7.57373C57.6817 9.34204 57.5807 11.1293 57.5077 12.9192C57.4094 15.321 57.3011 17.723 57.2119 20.1276C57.1271 22.3724 56.9972 24.6173 57.008 26.8649C57.0162 28.5979 57.0892 30.3282 57.5347 32.0181C57.6024 32.2753 57.6736 32.5378 57.79 32.7736C57.8883 32.9739 57.8576 33.1119 57.7332 33.2771C57.3228 33.8378 56.714 34.0165 56.0755 33.7375C55.5732 33.5182 55.1601 33.1824 54.8427 32.7383C54.6821 32.5162 54.6037 32.278 54.5928 31.9937C54.5766 31.4845 54.5135 30.9755 54.4648 30.3933C54.0382 30.8508 53.6612 31.2516 53.24 31.609C52.4464 32.2861 51.5932 32.8763 50.548 33.0605C48.4231 33.4342 45.9621 32.6949 44.612 30.2496C43.9573 29.0636 43.6639 27.7802 43.6177 26.4397C43.4927 22.7434 44.2941 19.234 45.8371 15.8843C46.2361 15.0177 46.761 14.219 47.478 13.5718C48.8173 12.3586 50.4145 12.1772 52.0198 13.0248C52.8324 13.4526 53.4682 14.097 54.1473 14.6902C54.1906 14.728 54.2393 14.7632 54.2853 14.7985C54.2853 14.8065 54.2997 14.8011 54.3484 14.8011ZM54.2772 20.9373C54.2997 20.2224 54.2583 19.5101 54.0707 18.817C53.7992 17.8097 53.3861 16.8727 52.5582 16.1849C51.5256 15.3264 50.2323 15.4348 49.3521 16.434C49.0617 16.7644 48.8173 17.1272 48.6378 17.5226C47.3364 20.4147 46.6465 23.4366 46.7204 26.613C46.7421 27.5608 46.9206 28.4814 47.3229 29.3453C47.7278 30.2091 48.3203 30.8508 49.3575 30.8915C50.1647 30.9241 50.8546 30.637 51.4417 30.0953C51.9982 29.5836 52.395 28.9553 52.7016 28.2756C53.7586 25.9442 54.2258 23.4855 54.2772 20.9373Z" fill="#141820" fill-opacity="1.000000" fill-rule="nonzero"/>
	<path id="Vector" d="M101.789 31.6743C100.743 32.3378 99.6791 32.8063 98.5157 33.031C95.8344 33.5537 93.4282 32.9769 91.4153 31.1166C90.0868 29.8872 89.9804 28.1162 91.0482 26.6512C91.9041 25.476 93.0882 24.6989 94.349 24.0219C95.4737 23.4207 96.6714 23.1256 97.9565 23.1581C99.092 23.1851 100.227 23.1499 101.36 23.1743C101.697 23.1824 101.738 23.0199 101.741 22.7709C101.752 21.9395 101.722 21.1082 101.64 20.2795C101.561 19.478 101.442 18.6899 101.143 17.9373C100.64 16.6726 99.7278 16.0281 98.4643 16.0634C97.6445 16.085 97.0059 16.4993 96.4783 17.0787C95.4466 18.208 94.7341 19.5023 94.542 21.0404C94.5033 21.3438 94.5204 21.6523 94.5141 21.9611C94.5033 22.4784 94.1425 22.7816 93.6293 22.7003C92.7076 22.5542 91.7977 21.4927 91.9068 20.5801C92.1647 18.3921 92.9502 16.4019 94.368 14.6985C95.2157 13.6803 96.3728 13.3121 97.6959 13.3662C99.8117 13.4556 101.605 14.2734 103.099 15.7384C104.197 16.816 104.734 18.1376 104.737 19.6865C104.742 22.4891 104.777 25.2946 104.803 28.0973C104.816 29.6434 104.838 31.187 104.851 32.7332C104.857 33.2341 104.642 33.532 104.159 33.681C103.689 33.8271 103.221 33.8027 102.751 33.6538C102.265 33.4995 101.727 32.8198 101.789 32.2566C101.806 32.0833 101.789 31.9045 101.789 31.6743ZM96.84 30.6427C98.3615 30.621 99.6511 30.0388 100.751 29.0153C101.284 28.5223 101.596 27.9049 101.714 27.1874C101.873 26.2018 101.518 25.6222 100.523 25.4597C98.7087 25.1646 96.9645 25.411 95.3321 26.283C94.8054 26.5646 94.368 26.96 94.1317 27.5178C93.6402 28.6848 93.871 29.7194 95.1066 30.2853C95.6586 30.5398 96.2339 30.6536 96.84 30.6427Z" fill="#141820" fill-opacity="1.000000" fill-rule="nonzero"/>
	<path id="Vector" d="M85.8417 31.6719C84.7955 32.338 83.7277 32.7985 82.5679 33.0339C80.0715 33.5349 77.8006 33.0286 75.812 31.4445C74.0813 30.0662 73.8829 27.9756 75.3584 26.3292C76.8005 24.718 78.588 23.6294 80.7534 23.2313C81.0438 23.1772 81.3486 23.1691 81.6444 23.1691C82.8701 23.1637 84.0948 23.1664 85.3177 23.1664C85.7849 23.1664 85.7849 23.1664 85.7903 22.6816C85.8011 21.7799 85.7605 20.8782 85.6595 19.9846C85.573 19.2183 85.4124 18.4655 85.1112 17.7452C84.3527 15.9471 82.1549 15.4705 80.7615 16.8514C79.3979 18.2028 78.5176 19.8031 78.5744 21.7799C78.6024 22.6599 77.9341 22.882 77.2794 22.5787C76.309 22.132 75.8255 21.2925 75.9915 20.2256C76.2873 18.3083 76.9989 16.5482 78.1623 14.9912C79.0362 13.8187 80.2429 13.3096 81.7148 13.3691C83.7088 13.4478 85.4205 14.1816 86.8906 15.4977C88.137 16.616 88.7809 18.0051 88.7863 19.6921C88.7944 22.5652 88.8269 25.4384 88.8512 28.3114C88.8648 29.7764 88.8873 31.244 88.9009 32.7091C88.9063 33.2722 88.6204 33.6134 88.0639 33.7272C87.5859 33.8247 87.1079 33.8165 86.6678 33.5918C86.1402 33.3237 85.8634 32.8823 85.8471 32.2893C85.8363 32.0997 85.8417 31.913 85.8417 31.6719ZM80.8652 30.6429C82.4326 30.6212 83.753 30.0201 84.8695 28.9478C85.2844 28.5497 85.554 28.0569 85.7001 27.499C86.0185 26.2778 85.6352 25.59 84.4213 25.4247C82.7014 25.1892 81.0356 25.4193 79.4763 26.2263C79.0118 26.4673 78.6051 26.7841 78.3327 27.239C77.733 28.2328 77.6753 29.649 79.1886 30.3044C79.7243 30.5345 80.2808 30.651 80.8652 30.6429Z" fill="#141820" fill-opacity="1.000000" fill-rule="nonzero"/>
	<path id="Vector" d="M66.4389 33.1666C64.6541 33.145 63.3581 32.8768 62.2443 32.0266C61.1007 31.1547 60.5055 29.9442 60.1664 28.5902C59.7588 26.9574 59.7263 25.2975 59.8787 23.6348C60.1015 21.1896 60.6606 18.8202 61.5923 16.5428C61.9268 15.7251 62.3453 14.9532 62.9018 14.26C63.8884 13.0361 65.1375 12.6597 66.6508 13.0577C68.1939 13.4639 69.4511 14.344 70.62 15.3784C71.3884 16.0608 72.0648 16.8218 72.5265 17.7533C73.2218 19.156 73.1001 20.5803 72.5725 21.9857C71.5489 24.7234 68.46 26.8247 65.5262 26.8274C65.0996 26.8274 64.738 26.6487 64.3718 26.4781C63.9939 26.3048 63.6323 26.0935 63.231 25.9745C62.9947 25.9041 62.9072 25.9608 62.918 26.2155C62.9613 27.2281 63.0488 28.2328 63.5105 29.1589C63.9804 30.1067 64.7353 30.5806 65.8193 30.5887C67.2325 30.5969 68.368 30.0118 69.3646 29.0776C69.976 28.5037 70.4757 27.8375 70.9888 27.1821C71.0925 27.0494 71.2089 26.9249 71.3153 26.7976C71.6598 26.386 72.0648 26.1559 72.6221 26.3562C73.1596 26.5486 73.4176 26.9467 73.4942 27.4908C73.6484 28.6066 73.2634 29.5651 72.4886 30.3234C70.7011 32.0699 68.5547 33.0555 66.4389 33.1666ZM65.9798 24.2062C66.8168 24.2062 67.4796 23.9652 68.1092 23.4291C70.0139 21.807 70.2502 18.6415 68.6043 16.7621C68.3157 16.4346 67.9766 16.1881 67.5554 16.0608C66.5498 15.7576 65.5803 16.0988 64.885 17.0735C63.8686 18.4952 63.396 20.1036 63.4672 21.8422C63.5186 23.2286 64.5973 24.2062 65.9798 24.2062Z" fill="#141820" fill-opacity="1.000000" fill-rule="nonzero"/>
	<path id="Vector" d="M41.3027 15.2588C41.2402 16.296 40.9794 17.2222 40.7811 18.1617C40.6425 18.8224 40.5529 19.4858 40.5529 20.163C40.561 23.1848 40.5637 26.2069 40.5529 29.229C40.5502 30.1388 40.7268 31.0161 40.9386 31.8934C41.0582 32.3862 40.743 32.8629 40.2324 32.89C38.8496 32.9576 37.5891 32.3862 37.5837 30.5612C37.5701 25.1427 37.5783 19.7242 37.5756 14.303C37.5756 14.1324 37.6272 14.0458 37.7766 13.9645C38.9039 13.3579 39.9417 13.5962 40.9468 14.3246C41.2864 14.5629 41.3597 14.934 41.3027 15.2588Z" fill="#141820" fill-opacity="1.000000" fill-rule="nonzero"/>
	<path id="Vector" d="M39.5945 6.03833C41.3114 6.03833 42.4904 7.51135 42.0666 9.13342C41.8683 9.89172 41.3494 10.2734 40.4312 10.3358C39.244 10.417 37.9292 9.41248 37.7472 8.24524C37.5788 7.16479 38.0053 6.05188 39.5945 6.03833Z" fill="#141820" fill-opacity="1.000000" fill-rule="nonzero"/>
	<path id="Vector" d="M10.8916 0.0106201C11.0899 0.0214844 11.3019 0.135132 11.4268 0.373535C12.0136 1.51892 12.5352 2.68872 12.8693 3.93433C12.9101 4.08594 12.9155 4.24573 12.9426 4.40283C12.9644 4.53552 12.9753 4.6709 12.834 4.73865C12.6927 4.8064 12.5814 4.71155 12.4917 4.61938C12.3124 4.4353 12.1195 4.25928 11.9729 4.0481C11.2992 3.09229 10.6988 2.09302 10.2016 1.03418C9.95988 0.527832 10.2858 0.00244141 10.8916 0.0106201Z" fill="#141820" fill-opacity="1.000000" fill-rule="nonzero"/>
	<path id="Vector" d="M3.01242 5.71936C3.15916 5.70862 3.29227 5.75732 3.40365 5.83862C4.70216 6.74841 6.00879 7.65015 7.16877 8.73608C7.27474 8.83618 7.48389 8.93909 7.38342 9.11243C7.27474 9.29919 7.07912 9.16931 6.92978 9.11243C5.41933 8.55457 4.02306 7.7666 2.62128 6.99207C2.34693 6.84045 2.24908 6.48572 2.34964 6.1825C2.43929 5.91162 2.71363 5.72205 3.01242 5.71936Z" fill="#141820" fill-opacity="1.000000" fill-rule="nonzero"/>
	<path id="Vector" d="M22.6299 0C23.1352 0 23.4911 0.498291 23.2655 0.950562C22.6054 2.27197 21.8312 3.52576 20.8777 4.66309C20.8016 4.75244 20.7147 4.8175 20.5952 4.76318C20.4349 4.69019 20.4811 4.54663 20.5082 4.4248C20.7093 3.53662 21.019 2.68091 21.3612 1.83875C21.5568 1.354 21.7742 0.877441 21.9914 0.400757C22.1137 0.138184 22.3311 -0.00268555 22.6299 0Z" fill="#141820" fill-opacity="1.000000" fill-rule="nonzero"/>
	<path id="Vector" d="M29.7817 5.57837C30.1349 5.57837 30.3522 5.72729 30.469 6.0116C30.594 6.32031 30.5152 6.61816 30.2272 6.82666C29.8904 7.07312 29.5427 7.30334 29.1922 7.52539C28.3365 8.06152 27.4971 8.63013 26.5762 9.05261C26.4947 9.09045 26.4131 9.1283 26.329 9.1582C26.2393 9.19067 26.1388 9.2583 26.0628 9.14465C25.9975 9.0498 26.0437 8.95508 26.1008 8.87109C26.3127 8.57056 26.5626 8.29968 26.8261 8.04529C27.6085 7.2843 28.4072 6.53955 29.2411 5.83557C29.4069 5.6947 29.578 5.55933 29.7817 5.57837Z" fill="#141820" fill-opacity="1.000000" fill-rule="nonzero"/>
	<path id="Vector" d="M29.8195 16.3097C29.7489 16.307 29.681 16.3015 29.6104 16.2988C29.5153 16.2988 29.4311 16.2799 29.3903 16.1825C29.3468 16.0768 29.3876 15.9901 29.4582 15.9143C29.6375 15.7247 29.8439 15.5731 30.0749 15.454C31.0854 14.9286 32.1204 14.4547 33.199 14.0784C33.6907 13.9077 34.0981 14.1975 34.0574 14.6769C34.041 14.8663 33.9623 15.037 33.7884 15.11C32.5117 15.6625 31.1914 16.0741 29.8195 16.3097Z" fill="#141820" fill-opacity="1.000000" fill-rule="nonzero"/>
	<path id="Vector" d="M3.19478 15.8708C2.23582 15.8195 1.43443 15.7598 0.638435 15.6379C0.26091 15.5811 0.0408554 15.4023 0.00550079 15.1154C-0.0433807 14.7255 0.239082 14.3868 0.630318 14.4275C1.80663 14.5521 2.96381 14.7769 4.09665 15.1207C4.24609 15.1667 4.3792 15.2616 4.52044 15.3347C4.6237 15.3888 4.69702 15.4647 4.67258 15.5947C4.65085 15.7084 4.55579 15.7408 4.46064 15.7734C3.99339 15.9331 3.5126 15.8708 3.19478 15.8708Z" fill="#141820" fill-opacity="1.000000" fill-rule="nonzero"/>
	<path id="Vector" d="M14.8597 30.3799C16.2941 29.7787 17.761 29.451 19.3149 29.7949C17.8751 30.3501 16.3783 30.4395 14.8597 30.3799Z" fill="#141820" fill-opacity="1.000000" fill-rule="nonzero"/>
	<path id="Vector" d="M17.0548 16.6453C17.2585 17.0406 17.4161 17.417 17.2721 17.8502C17.2123 18.0317 17.1254 18.1969 16.9651 18.3107C16.7913 18.4353 16.6174 18.4353 16.4354 18.3296C16.2453 18.2213 16.2262 18.048 16.2724 17.8666C16.3973 17.3818 16.6718 16.9919 17.0548 16.6453Z" fill="#141820" fill-opacity="1.000000" fill-rule="nonzero"/>
	<path id="Vector" d="M15.3159 33.6298C16.1988 33.2236 18.076 33.1288 18.4508 33.5864C17.4212 33.8625 16.4026 33.8735 15.3159 33.6298Z" fill="#141820" fill-opacity="1.000000" fill-rule="nonzero"/>
</svg>
