<svg width="109.985657" height="35.606201" viewBox="0 0 109.986 35.6062" fill="none" xmlns="http://www.w3.org/2000/svg" xmlns:xlink="http://www.w3.org/1999/xlink">
	<desc>
			Created with Pixso.
	</desc>
	<defs/>
	<path id="Vector" d="M21.0693 0.0272217C20.8344 0.795288 20.5994 1.56055 20.3644 2.32861C19.1705 6.22302 17.9765 10.1176 16.7744 14.0121C16.7087 14.2272 16.7197 14.2872 16.9684 14.3145C18.2416 14.4561 19.5092 14.6222 20.7797 14.772C20.9245 14.7883 21.0092 14.8427 21.0857 14.9653C22.0392 16.5394 22.9928 18.1162 23.96 19.6823C24.0746 19.8674 23.96 19.9519 23.8726 20.0609C22.1321 22.2341 20.3917 24.4075 18.6514 26.5808C16.3181 29.4921 13.9875 32.4061 11.6516 35.3175C11.5696 35.421 11.5123 35.5599 11.3182 35.6062C11.4494 35.1786 11.5696 34.781 11.6953 34.3834C13.0341 30.075 14.37 25.7692 15.717 21.4634C15.7908 21.2319 15.7662 21.172 15.5176 21.1448C14.2744 21.0059 13.0368 20.8424 11.7963 20.6981C11.5997 20.6763 11.4794 20.6136 11.3729 20.4366C10.4494 18.9006 9.51495 17.3728 8.57513 15.845C8.47131 15.6761 8.47675 15.5725 8.60516 15.4092C12.6734 10.3573 16.7333 5.30249 20.7934 0.245117C20.8617 0.160645 20.9327 0.081665 21.0037 0C21.0283 0.0135498 21.0474 0.019043 21.0693 0.0272217Z" fill="#141820" fill-opacity="1.000000" fill-rule="nonzero"/>
	<path id="Vector" d="M13.9525 33.8032C14.9334 32.5778 15.8923 31.3821 16.8486 30.181C16.9633 30.0367 17.1163 30.064 17.2584 30.0531C19.2037 29.8896 21.0234 29.3259 22.6681 28.2828C26.1133 26.1013 28.116 22.9939 28.5067 18.9333C29.0449 13.3502 25.6762 8.14856 20.3594 6.26929C20.1381 6.19031 20.0698 6.12231 20.1491 5.87988C20.4878 4.8313 20.8102 3.77466 21.119 2.71802C21.19 2.47827 21.2802 2.44556 21.507 2.52734C25.5286 3.95984 28.5942 6.52527 30.5969 10.2782C33.8618 16.4032 32.8646 23.7865 28.0942 28.8575C25.4166 31.7062 22.1052 33.373 18.2065 33.8633C16.8295 34.0348 15.4525 34.0103 14.0781 33.8414C14.0509 33.8414 14.0263 33.8279 13.9525 33.8032Z" fill="#141820" fill-opacity="1.000000" fill-rule="nonzero"/>
	<path id="Vector" d="M18.4499 1.81885C18.0182 2.35815 17.6166 2.86194 17.215 3.36304C16.6713 4.04114 16.1248 4.71387 15.5865 5.39465C15.48 5.53088 15.3625 5.59631 15.1904 5.61267C9.74524 6.12463 5.36011 9.90479 4.21808 15.2372C3.33557 19.3578 4.39294 23.0262 7.23169 26.1582C8.5813 27.6479 10.2371 28.7046 12.1359 29.3773C12.2943 29.4346 12.3489 29.4808 12.2889 29.6633C11.9365 30.7607 11.5949 31.8611 11.2643 32.9641C11.2015 33.1738 11.1113 33.1575 10.9474 33.0975C6.91742 31.6514 3.87384 29.0586 1.86292 25.2921C0.338379 22.438 -0.268188 19.3741 0.108887 16.1714C0.77002 10.5258 3.65521 6.30713 8.64148 3.5564C11.5184 1.96863 14.6412 1.43213 17.9117 1.74255C18.0701 1.7616 18.2286 1.78882 18.4499 1.81885Z" fill="#141820" fill-opacity="1.000000" fill-rule="nonzero"/>
	<path id="Vector" d="M104.482 26.0685C103.212 26.0685 101.964 26.0658 100.712 26.0712C100.51 26.0712 100.523 25.9269 100.488 25.8179C100.089 24.5679 99.6872 23.3206 99.3076 22.0649C99.2417 21.8472 99.1461 21.7954 98.9332 21.7954C97.0619 21.8036 95.1905 21.8036 93.3155 21.7954C93.1108 21.7954 93.0233 21.8472 92.9611 22.0459C92.5724 23.3097 92.1656 24.5679 91.7778 25.8287C91.7228 26.0112 91.6461 26.0712 91.4495 26.0712C90.2807 26.0603 89.1083 26.0658 87.8953 26.0658C88.0621 25.5809 88.2172 25.1234 88.376 24.6659C90.2203 19.3743 92.0646 14.0853 93.9008 8.7937C93.9829 8.55945 94.0812 8.48047 94.3346 8.48328C95.5972 8.49963 96.8571 8.49414 98.1188 8.48596C98.3046 8.48596 98.3922 8.52954 98.4579 8.71741C100.444 14.4203 102.436 20.1232 104.427 25.8234C104.449 25.8997 104.46 25.9785 104.482 26.0685ZM96.1276 11.8412C96.0942 11.9039 96.0671 11.9447 96.0536 11.991C95.3402 14.2651 94.6331 16.5419 93.9116 18.8132C93.8377 19.042 93.9333 19.0311 94.0974 19.0311C95.4466 19.0283 96.7994 19.0256 98.1486 19.0338C98.3705 19.0338 98.4138 19.0011 98.3407 18.7723C97.6733 16.6808 97.0204 14.5864 96.362 12.4921C96.2935 12.2798 96.2583 12.0537 96.1276 11.8412Z" fill="#141820" fill-opacity="1.000000" fill-rule="nonzero"/>
	<path id="Vector" d="M63.0226 15.957C63.0226 15.4912 63.0198 15.0282 63.0226 14.5626C63.0253 14.1868 63.0361 13.8081 63.0442 13.4324C63.4293 13.3643 63.818 13.4187 64.2031 13.4023C64.2518 13.3997 64.3041 13.4078 64.3528 13.3997C64.5224 13.3751 64.5747 13.4406 64.5693 13.6094C64.5557 13.947 64.5666 14.2875 64.5666 14.6252C64.5666 18.3427 64.5666 22.0602 64.5666 25.7777C64.5666 28.3431 63.0469 30.1624 60.5009 30.6173C58.9569 30.8923 57.449 30.8025 56.034 30.0698C54.9544 29.5088 54.1653 28.6891 53.837 27.4825C53.782 27.2837 53.791 27.202 54.0336 27.2129C54.4548 27.2321 54.8751 27.2184 55.2963 27.2184C55.3837 27.2184 55.4658 27.202 55.5145 27.3164C56.0204 28.5256 57.0251 29.0703 58.2472 29.2827C59.1589 29.4407 60.0635 29.3727 60.9239 29.0104C62.2028 28.4711 62.8638 27.4799 62.9269 26.1154C62.9675 25.2302 62.9351 24.3424 62.9351 23.3756C62.6699 23.9067 62.3994 24.3506 62.0359 24.7291C59.8372 27.0006 56.0006 26.5892 54.2853 23.8958C53.4077 22.5177 53.1543 20.9817 53.1949 19.3804C53.2274 18.163 53.4709 16.9946 54.0391 15.9053C55.676 12.7678 59.5396 12.5499 61.5525 14.1758C61.8555 14.421 62.1315 14.6932 62.3723 15.0038C62.6023 15.3007 62.7935 15.6248 63.0226 15.957ZM62.9378 19.797C62.9351 18.7675 62.7989 17.8362 62.3831 16.9674C61.6869 15.5049 60.5496 14.647 58.8884 14.6334C57.2416 14.6198 56.08 15.4368 55.4379 16.9047C54.6298 18.7512 54.6298 20.6467 55.4406 22.496C56.0556 23.8958 57.173 24.6964 58.7306 24.7455C60.2628 24.7919 61.4244 24.1056 62.192 22.79C62.7411 21.845 62.9243 20.8019 62.9378 19.797Z" fill="#141820" fill-opacity="1.000000" fill-rule="nonzero"/>
	<path id="Vector" d="M109.978 17.2881C109.978 20.1178 109.975 22.9474 109.983 25.7798C109.983 26.0085 109.933 26.0793 109.693 26.0767C108.652 26.0631 107.611 26.0658 106.57 26.074C106.363 26.0767 106.278 26.0468 106.278 25.8043C106.286 20.1151 106.286 14.423 106.281 8.73376C106.281 8.53503 106.338 8.48865 106.532 8.48865C107.592 8.49683 108.654 8.50232 109.715 8.48596C109.95 8.48328 109.986 8.55408 109.986 8.76648C109.978 11.6097 109.978 14.4475 109.978 17.2881Z" fill="#141820" fill-opacity="1.000000" fill-rule="nonzero"/>
	<path id="Vector" d="M69.0931 15.6021C69.4511 15.0084 69.847 14.4855 70.3909 14.0769C72.246 12.6907 75.3033 12.9331 76.7545 14.5944C77.5463 15.5013 77.8557 16.588 77.861 17.7645C77.8719 20.4363 77.8611 23.1051 77.8691 25.7769C77.8691 26.0056 77.8196 26.0901 77.5743 26.0765C77.2054 26.0547 76.8338 26.0602 76.4623 26.0737C76.262 26.0819 76.2106 26.0192 76.2133 25.8231C76.2214 24.6276 76.2188 23.432 76.2188 22.2363C76.2188 20.8011 76.2512 19.3658 76.2106 17.9307C76.1421 15.4878 74.4402 14.3711 72.2081 14.6925C70.3909 14.9539 69.2076 16.2883 69.1237 18.1185C69.0363 20.0304 69.1039 21.9449 69.0904 23.8569C69.085 24.505 69.0823 25.1532 69.0931 25.8014C69.0958 25.9974 69.0606 26.0874 68.8361 26.0765C68.4374 26.0574 68.0361 26.0656 67.6348 26.0737C67.495 26.0765 67.4237 26.0383 67.4427 25.8914C67.449 25.8422 67.4427 25.7905 67.4427 25.7415C67.4427 20.1013 67.4454 14.4609 67.4373 8.82068C67.4373 8.57288 67.4706 8.46399 67.7547 8.48853C68.1019 8.51843 68.4564 8.51306 68.8036 8.48853C69.0552 8.46936 69.0904 8.5675 69.0904 8.78809C69.0823 10.9504 69.085 13.1129 69.085 15.2753C69.0931 15.3843 69.0931 15.4932 69.0931 15.6021Z" fill="#141820" fill-opacity="1.000000" fill-rule="nonzero"/>
	<path id="Vector" d="M36.6193 17.2557C36.6193 14.4342 36.6221 11.6155 36.614 8.79395C36.614 8.54626 36.6686 8.47266 36.9199 8.48901C37.2997 8.51355 37.6794 8.50537 38.062 8.4917C38.2422 8.48633 38.3051 8.5271 38.2996 8.72046C38.286 9.22705 38.2942 9.73633 38.2942 10.2456C38.2942 14.9 38.2969 19.5543 38.286 24.2087C38.286 24.4838 38.3597 24.5437 38.6276 24.5437C41.3297 24.5328 44.0344 24.5382 46.7365 24.5382C47.1245 24.5382 47.1245 24.5382 47.1245 24.9413C47.1245 25.2001 47.0972 25.4614 47.13 25.7175C47.171 26.0388 47.0371 26.0879 46.7502 26.0824C45.6902 26.0662 44.6273 26.077 43.5673 26.077C41.3761 26.077 39.1821 26.0688 36.9909 26.0852C36.6631 26.0879 36.6111 25.9871 36.614 25.693C36.6221 22.877 36.6193 20.0663 36.6193 17.2557Z" fill="#141820" fill-opacity="1.000000" fill-rule="nonzero"/>
	<path id="Vector" d="M81.2593 19.2334C81.2593 17.8281 81.2539 16.4227 81.2647 15.0175C81.2675 14.7942 81.2124 14.7314 80.9861 14.7424C80.527 14.7615 80.0652 14.7424 79.6035 14.7506C79.4285 14.7533 79.3492 14.7206 79.36 14.5245C79.3762 14.2168 79.3735 13.9064 79.36 13.5986C79.3546 13.4407 79.4069 13.3943 79.562 13.3971C80.0517 13.4053 80.5433 13.3888 81.0348 13.4053C81.2286 13.4106 81.262 13.348 81.262 13.171C81.2539 12.275 81.2647 11.3763 81.2512 10.4802C81.2485 10.265 81.3107 10.2161 81.5154 10.2242C81.8961 10.2406 82.2784 10.2406 82.6581 10.2242C82.852 10.2161 82.8872 10.2787 82.8845 10.4584C82.8764 11.3545 82.8872 12.2532 82.8737 13.1492C82.871 13.3643 82.9341 13.4106 83.1388 13.4053C83.808 13.3916 84.4799 13.408 85.15 13.3943C85.3493 13.3916 85.4088 13.4489 85.3953 13.6422C85.3791 13.9091 85.3763 14.1814 85.3953 14.4484C85.4116 14.6743 85.352 14.7588 85.1058 14.7506C84.4366 14.7314 83.7647 14.7506 83.0946 14.7396C82.9314 14.7369 82.8737 14.7751 82.8764 14.9495C82.8818 17.5992 82.8791 20.252 82.8818 22.9019C82.8818 23.1497 82.9089 23.4001 82.972 23.6399C83.1469 24.3016 83.5627 24.6558 84.2481 24.6967C84.5872 24.7157 84.9281 24.702 85.2672 24.6885C85.4088 24.683 85.4611 24.7157 85.4557 24.8655C85.4449 25.2031 85.4503 25.5436 85.453 25.8813C85.453 25.9874 85.453 26.0665 85.3051 26.0801C84.617 26.1454 83.9252 26.1836 83.2426 26.0502C82.0927 25.8241 81.4749 25.1241 81.3188 23.9149C81.2756 23.58 81.2539 23.2422 81.2539 22.9019C81.262 21.6844 81.2593 20.459 81.2593 19.2334Z" fill="#141820" fill-opacity="1.000000" fill-rule="nonzero"/>
	<path id="Vector" d="M49.3034 19.712C49.3034 17.6995 49.3061 15.6868 49.298 13.6714C49.298 13.4509 49.3476 13.3801 49.5767 13.391C49.9455 13.4128 50.3171 13.4073 50.6887 13.391C50.8961 13.3828 50.9592 13.4373 50.9565 13.6497C50.9457 14.7555 50.9511 15.8611 50.9511 16.9696C50.9511 19.9 50.9484 22.8304 50.9565 25.7607C50.9565 26.006 50.9015 26.0903 50.6481 26.0768C50.29 26.0549 49.9266 26.0577 49.5658 26.0768C49.3557 26.0876 49.298 26.0223 49.298 25.8126C49.3061 23.7782 49.3034 21.7438 49.3034 19.712Z" fill="#141820" fill-opacity="1.000000" fill-rule="nonzero"/>
	<path id="Vector" d="M51.2189 9.76575C51.2217 10.3677 50.7518 10.8442 50.1484 10.8579C49.555 10.8688 49.0554 10.3867 49.05 9.79297C49.0419 9.19666 49.5225 8.70911 50.1232 8.70642C50.7302 8.69824 51.2162 9.16943 51.2189 9.76575Z" fill="#141820" fill-opacity="1.000000" fill-rule="nonzero"/>
</svg>
