<svg width="143.034668" height="35.606201" viewBox="0 0 143.035 35.6062" fill="none" xmlns="http://www.w3.org/2000/svg" xmlns:xlink="http://www.w3.org/1999/xlink">
	<desc>
			Created with Pixso.
	</desc>
	<defs/>
	<path id="Vector" d="M0 11.5771C0.15448 11.1827 0.151794 10.7587 0.227661 10.3508C1.13007 5.45581 5.15997 1.33887 10.0732 0.304199C11.0082 0.107056 11.9514 0.00439453 12.908 0.00708008C16.3145 0.0151367 19.7211 -0.0198975 23.1276 0.0178223C26.4637 0.0557861 29.3553 1.26331 31.7728 3.54321C33.8947 5.54492 35.1657 8.00598 35.6265 10.8776C35.7294 11.5123 35.77 12.1526 35.77 12.7955C35.7673 16.2047 35.7945 19.6166 35.7565 23.0258C35.7185 26.3458 34.5071 29.2228 32.2172 31.6324C30.2063 33.7449 27.7321 35.0038 24.8484 35.4739C24.5748 35.5198 24.2875 35.49 24.0246 35.6062C19.8918 35.6062 15.759 35.6062 11.6262 35.6062C11.6072 35.5225 11.534 35.5494 11.4825 35.5441C11.0109 35.4846 10.5421 35.4091 10.0759 35.3118C5.16534 34.2771 1.13556 30.1575 0.233032 25.2653C0.157166 24.8573 0.159912 24.4332 0.00543213 24.0388C0 19.884 0 15.7319 0 11.5771ZM11.6722 6.97937C11.6722 7.15234 11.6722 7.26038 11.6722 7.36572C11.6722 11.48 11.6695 15.5916 11.6804 19.7058C11.6804 19.984 11.6044 20.0326 11.3497 20.0001C10.8538 19.9353 10.3578 19.9651 9.87006 20.0677C8.86725 20.2784 7.96216 20.6755 7.30634 21.4995C6.44989 22.58 6.664 24.0847 7.77783 24.833C8.24939 25.149 8.78333 25.2949 9.33612 25.376C10.5828 25.5624 11.7779 25.4543 12.8212 24.671C13.9243 23.8416 14.5801 22.7961 14.5557 21.351C14.515 19.0195 14.5449 16.6855 14.5449 14.3516C14.5449 14.257 14.5449 14.1625 14.5449 14.0679C14.6479 14.0841 14.683 14.1382 14.7291 14.1868C15.9324 15.4321 17.1411 16.6775 18.3444 17.9229C18.6425 18.2308 18.637 18.2335 18.9325 17.9391C20.1818 16.6937 21.4338 15.451 22.6859 14.2085C22.7536 14.1409 22.8051 14.0273 22.938 14.0327C22.938 14.1057 22.938 14.1652 22.938 14.2246C22.938 19.0195 22.9407 23.8146 22.9326 28.6096C22.9326 28.85 22.9785 28.9257 23.2333 28.9202C24.0084 28.9014 24.7834 28.9067 25.5585 28.9175C25.7591 28.9202 25.8241 28.8798 25.8241 28.6637C25.8187 21.5345 25.8187 14.4056 25.816 7.2793C25.816 7.21179 25.8648 7.11987 25.7564 7.0686C23.4528 9.36206 21.1493 11.6555 18.8511 13.9545C18.7076 14.0977 18.637 14.1166 18.488 13.9625C17.5178 12.9576 16.5395 11.9608 15.5638 10.964C14.2847 9.65112 13.0029 8.34094 11.6722 6.97937Z" fill="#141820" fill-opacity="1.000000" fill-rule="nonzero"/>
	<path id="Vector" d="M45.5498 14.7592C45.6718 14.7645 45.6663 14.6835 45.6908 14.6403C46.6799 12.8898 48.1731 11.9822 50.1948 11.9443C51.0837 11.9281 51.9591 12.0118 52.7992 12.3225C53.924 12.7384 54.7289 13.5029 55.2518 14.5701C55.2816 14.6322 55.3087 14.6943 55.3413 14.7565C55.3494 14.77 55.3738 14.7781 55.4036 14.797C55.7803 14.1676 56.2247 13.5922 56.7992 13.1276C57.8156 12.309 59.0052 11.9929 60.2817 11.9524C61.2817 11.9199 62.2628 12.0227 63.1841 12.4548C64.7668 13.1951 65.5884 14.5106 65.978 16.145C66.171 16.9554 66.2522 17.7794 66.2522 18.6113C66.2522 21.6666 66.2495 24.7219 66.2603 27.7772C66.2603 28.0554 66.1819 28.1176 65.9158 28.1122C64.8237 28.0959 63.7317 28.0986 62.6367 28.1122C62.3739 28.1149 62.2898 28.0608 62.2898 27.7799C62.3007 24.9326 62.2953 22.0853 62.298 19.238C62.298 18.7329 62.2655 18.2305 62.1571 17.7361C61.7749 16.0126 60.6151 15.3643 58.9917 15.5317C57.4768 15.6884 56.4795 16.6771 56.1461 18.2494C56.0377 18.7654 56.0026 19.2867 55.9999 19.8081C55.9971 22.469 55.9944 25.1272 56.0052 27.788C56.0052 28.05 55.9429 28.1176 55.6801 28.1122C54.577 28.0959 53.474 28.0933 52.3711 28.1122C52.0837 28.1176 52.0376 28.0231 52.0376 27.7664C52.0459 24.7517 52.0431 21.7343 52.0431 18.7195C52.0431 18.2521 51.9971 17.7955 51.8723 17.3417C51.5742 16.2477 50.8887 15.6155 49.7341 15.5209C48.2166 15.3994 46.9374 15.9235 46.2274 17.2904C45.894 17.9332 45.7666 18.6302 45.7639 19.3516C45.7612 22.1583 45.7584 24.9678 45.7693 27.7745C45.7693 28.05 45.6935 28.1149 45.4252 28.1122C44.3032 28.0959 43.1812 28.0986 42.0565 28.1122C41.829 28.1149 41.7802 28.0474 41.7802 27.8285C41.7855 22.7552 41.7855 17.6848 41.7828 12.6116C41.7828 12.4225 41.8044 12.3333 42.0321 12.3359C43.1243 12.3495 44.2164 12.3468 45.3113 12.3359C45.52 12.3333 45.5498 12.4089 45.5471 12.5873C45.5363 13.2194 45.5443 13.8514 45.5443 14.4863C45.5498 14.5781 45.5498 14.67 45.5498 14.7592Z" fill="#141820" fill-opacity="1.000000" fill-rule="nonzero"/>
	<path id="Vector" d="M139.468 25.954C139.13 26.3051 138.858 26.678 138.52 26.9967C137.49 27.9639 136.227 28.3798 134.848 28.4717C133.479 28.5636 132.151 28.361 130.94 27.6829C129.446 26.8481 128.595 25.6 128.56 23.8549C128.522 22.0072 129.27 20.589 130.872 19.6407C131.956 19.0005 133.156 18.7115 134.387 18.5197C135.972 18.2711 137.568 18.2684 139.167 18.2874C139.414 18.29 139.47 18.2306 139.476 17.9821C139.511 16.0425 138.246 15.1753 136.622 14.9673C134.807 14.7323 133.189 15.2321 131.801 16.4288C131.677 16.5369 131.62 16.5315 131.503 16.4126C130.951 15.8452 130.384 15.2888 129.823 14.7296C129.56 14.4675 129.56 14.4675 129.842 14.2056C130.972 13.152 132.319 12.5253 133.826 12.2119C135.549 11.8525 137.273 11.7904 138.974 12.2848C141.452 13.0061 142.601 14.5297 142.94 17.0852C143.024 17.7146 143.027 18.3468 143.027 18.9789C143.029 21.9153 143.024 24.8491 143.035 27.7855C143.035 28.0557 142.959 28.1096 142.704 28.1069C141.712 28.0908 140.718 28.0935 139.726 28.1069C139.511 28.1096 139.462 28.0448 139.465 27.8422C139.476 27.2128 139.468 26.5834 139.468 25.954ZM137.997 21.04C137.262 21.059 136.528 21.0887 135.802 21.1914C134.875 21.3237 133.972 21.5398 133.194 22.1017C132.75 22.4205 132.536 22.8555 132.517 23.3876C132.485 24.2844 133.062 25.022 134.037 25.338C134.783 25.5785 135.544 25.5623 136.302 25.4515C137.558 25.2678 138.509 24.6654 138.983 23.4443C139.268 22.7096 139.246 21.937 139.243 21.1643C139.243 21.0212 139.157 21.0374 139.067 21.0374C138.709 21.04 138.354 21.04 137.997 21.04Z" fill="#141820" fill-opacity="1.000000" fill-rule="nonzero"/>
	<path id="Vector" d="M81.1818 25.6189C80.7894 26.2808 80.3177 26.8669 79.7433 27.3748C78.9839 28.042 78.0847 28.3689 77.0927 28.4526C75.7598 28.5635 74.4529 28.4689 73.2526 27.8016C71.8591 27.0291 71.098 25.808 70.7561 24.2925C70.6046 23.6144 70.5425 22.9283 70.5425 22.234C70.5425 19.041 70.5452 15.8479 70.5343 12.6521C70.5343 12.3846 70.6046 12.328 70.8625 12.3334C71.9656 12.3496 73.0686 12.3469 74.1715 12.3334C74.4286 12.3307 74.5151 12.3766 74.5151 12.6603C74.5016 15.3292 74.5016 17.9983 74.5125 20.6699C74.5151 21.4398 74.5585 22.2097 74.8002 22.9526C75.3855 24.7544 76.5507 25.0597 78.0009 24.9003C79.4664 24.7383 80.7245 23.6549 80.9464 21.6748C80.9869 21.3209 80.9978 20.967 80.9951 20.6105C80.9924 17.9496 80.9951 15.2914 80.9896 12.6306C80.9896 12.4117 81.0249 12.3307 81.272 12.3334C82.4047 12.3496 83.5375 12.3496 84.6702 12.3334C84.9164 12.3307 84.9515 12.4117 84.9515 12.6306C84.9462 17.693 84.9462 22.7554 84.9515 27.8179C84.9515 28.0555 84.8839 28.1096 84.6566 28.1069C83.5835 28.0961 82.5103 28.0961 81.437 28.1069C81.2278 28.1096 81.1709 28.0529 81.1764 27.8448C81.1899 27.1019 81.1818 26.3618 81.1818 25.6189Z" fill="#141820" fill-opacity="1.000000" fill-rule="nonzero"/>
	<path id="Vector" d="M92.9764 24.9358C93.1522 24.9358 93.2578 24.9358 93.3633 24.9358C96.106 24.9358 98.8458 24.9386 101.588 24.9304C101.83 24.9304 101.911 24.9763 101.906 25.233C101.89 26.1029 101.892 26.9727 101.903 27.8425C101.906 28.0505 101.846 28.1045 101.637 28.1045C97.2657 28.0991 92.8971 28.0991 88.5266 28.1045C88.3065 28.1045 88.2714 28.0289 88.274 27.8372C88.2822 26.7782 88.2822 25.7219 88.274 24.6631C88.274 24.501 88.3281 24.3928 88.4364 24.2766C91.16 21.4159 93.8783 18.5497 96.5966 15.6835C96.6344 15.6431 96.694 15.6133 96.694 15.5376C96.5992 15.4646 96.4883 15.5052 96.3855 15.5052C93.9216 15.5024 91.4586 15.4971 88.9946 15.5106C88.7214 15.5133 88.6754 15.4323 88.6808 15.1837C88.697 14.3138 88.6943 13.4441 88.6808 12.5742C88.6781 12.3743 88.7404 12.3337 88.9297 12.3337C93.0414 12.3391 97.1548 12.3391 101.266 12.3337C101.45 12.3337 101.518 12.3662 101.515 12.5715C101.505 13.6305 101.507 14.6866 101.513 15.7457C101.513 15.8888 101.461 15.9807 101.369 16.078C98.5887 19.0089 95.811 21.9426 92.9764 24.9358Z" fill="#141820" fill-opacity="1.000000" fill-rule="nonzero"/>
	<path id="Vector" d="M113.004 20.1895C113.064 17.1017 114.275 14.6002 117.045 13.0955C119.929 11.5287 122.896 11.4801 125.812 13.1145C126.316 13.3981 126.744 13.7817 127.154 14.1869C127.267 14.2976 127.289 14.3651 127.165 14.4895C126.338 15.3025 125.517 16.1211 124.698 16.9423C124.576 17.0667 124.514 17.0503 124.403 16.9342C123.818 16.3452 123.173 15.824 122.354 15.616C121.116 15.3025 119.961 15.5808 118.937 16.2968C117.416 17.3583 116.82 18.882 116.974 20.6757C117.132 22.4991 118.05 23.8579 119.771 24.5873C121.283 25.2275 123.268 25.0681 124.498 23.5986C124.603 23.4717 124.655 23.4771 124.764 23.5958C125.555 24.455 126.351 25.3086 127.156 26.1569C127.281 26.2865 127.216 26.3459 127.116 26.4351C126.108 27.3481 124.91 27.9073 123.6 28.2072C120.46 28.923 117.639 28.2855 115.3 26.0298C113.831 24.6144 113.115 22.8152 113.007 20.781C112.996 20.5865 113.004 20.3866 113.004 20.1895Z" fill="#141820" fill-opacity="1.000000" fill-rule="nonzero"/>
	<path id="Vector" d="M109.258 20.2302C109.258 22.7507 109.252 25.2711 109.266 27.7915C109.269 28.067 109.185 28.1102 108.936 28.1049C107.814 28.0914 106.692 28.0941 105.57 28.1049C105.347 28.1075 105.288 28.0509 105.288 27.8267C105.293 22.7561 105.293 17.6829 105.288 12.6123C105.288 12.3962 105.334 12.3287 105.565 12.3314C106.706 12.3448 107.849 12.3448 108.99 12.3314C109.215 12.3287 109.263 12.3881 109.263 12.6069C109.255 15.1489 109.258 17.691 109.258 20.2302Z" fill="#141820" fill-opacity="1.000000" fill-rule="nonzero"/>
	<path id="Vector" d="M109.805 7.01953C109.803 8.36755 108.71 9.37512 107.249 9.37512C105.841 9.37244 104.738 8.32703 104.735 6.99524C104.735 5.71472 105.857 4.58289 107.318 4.62878C108.743 4.672 109.805 5.65527 109.805 7.01953Z" fill="#141820" fill-opacity="1.000000" fill-rule="nonzero"/>
</svg>
