<svg width="218" height="26" viewBox="0 0 218 26" fill="none" xmlns="http://www.w3.org/2000/svg">
<path d="M61.0006 19.0649V6.15584C61.0006 5.86147 60.9486 5.65368 60.8447 5.53246C60.7581 5.41125 60.5936 5.34199 60.3512 5.32467L58.7148 5.0909V4.41558C58.888 4.46753 60.7062 4.4935 64.1694 4.4935C65.191 4.4935 66.0049 4.46753 66.6109 4.41558V5.11688L64.9746 5.35065C64.7322 5.36796 64.559 5.42857 64.4551 5.53246C64.3685 5.63636 64.3252 5.84415 64.3252 6.15584V19.0649C64.3252 19.3766 64.3685 19.5758 64.4551 19.6623C64.5417 19.7489 64.7148 19.8009 64.9746 19.8182L66.6109 19.948V20.8312C66.2646 20.7965 65.7625 20.7706 65.1045 20.7532C64.4638 20.7359 63.6499 20.7273 62.6629 20.7273C61.6759 20.7273 60.8534 20.7359 60.1954 20.7532C59.5547 20.7706 59.0612 20.7965 58.7148 20.8312V19.948L60.3512 19.8182C60.6109 19.7835 60.7841 19.7229 60.8707 19.6364C60.9573 19.5498 61.0006 19.3593 61.0006 19.0649Z" fill="#474752"/>
<path d="M80.7542 20.8052C79.8538 20.7532 78.8494 20.7273 77.7412 20.7273C76.6503 20.7273 75.6546 20.7532 74.7542 20.8052V20.1558L75.6633 19.948C76.0443 19.8961 76.2347 19.5584 76.2347 18.9351V14.5714C76.2347 14.1905 76.2174 13.8615 76.1828 13.5844C76.1655 13.29 76.1049 13.0476 76.001 12.8571C75.9144 12.6493 75.7672 12.5022 75.5594 12.4156C75.3689 12.3117 75.1005 12.2597 74.7542 12.2597C74.3559 12.2597 73.9317 12.3896 73.4815 12.6493C73.0486 12.8918 72.6849 13.1861 72.3906 13.5325V19.2208C72.3906 19.4978 72.5984 19.6883 73.014 19.7922L73.7672 20.1558V20.8052C73.5248 20.7706 73.291 20.7532 73.0659 20.7532C72.8408 20.7359 72.5724 20.7273 72.2607 20.7273H70.6763C70.1222 20.7273 69.5594 20.7359 68.988 20.7532C68.4339 20.7532 68.0269 20.7706 67.7672 20.8052V20.1558L68.8841 19.8961C69.0572 19.8615 69.1871 19.7835 69.2737 19.6623C69.3603 19.5411 69.4036 19.3593 69.4036 19.1169V14C69.4036 13.4632 69.291 13.0996 69.0659 12.9091C68.8581 12.7186 68.4772 12.5801 67.923 12.4935V12C68.2001 11.9307 68.5204 11.8442 68.8841 11.7403C69.265 11.6364 69.6373 11.5065 70.001 11.3506C70.3646 11.1775 70.7023 10.9784 71.014 10.7532C71.3256 10.5108 71.5594 10.2251 71.7152 9.8961H72.3906V12.4156C72.9101 11.7749 73.4728 11.2727 74.0789 10.9091C74.6849 10.5455 75.291 10.3636 75.8971 10.3636C76.9014 10.3636 77.7066 10.658 78.3127 11.2467C78.9187 11.8355 79.2217 12.7273 79.2217 13.9221V18.8571C79.2217 19.2035 79.265 19.4545 79.3516 19.6104C79.4382 19.7662 79.6114 19.8788 79.8711 19.948L80.7542 20.1558V20.8052Z" fill="#474752"/>
<path d="M96.1633 20.8312C95.8862 20.7965 95.4707 20.7706 94.9165 20.7532C94.3797 20.7359 93.765 20.7273 93.0724 20.7273C92.3797 20.7273 91.7564 20.7359 91.2023 20.7532C90.6481 20.7706 90.2412 20.7965 89.9815 20.8312V20.1818L90.9685 19.8961C91.5053 19.7922 91.7737 19.4805 91.7737 18.961V13.013C91.7737 12.5974 91.6698 12.2944 91.462 12.1039C91.2888 11.948 90.9685 11.8095 90.501 11.6883V11.7662L86.7347 11.8701V18.1558C86.7347 19.1948 87.0984 19.7749 87.8256 19.8961L89.2542 20.1558V20.8052C88.1633 20.7532 87.0118 20.7273 85.7997 20.7273H84.9945C84.4057 20.7273 83.817 20.7359 83.2282 20.7532C82.6395 20.7532 82.2152 20.7706 81.9555 20.8052V20.1818L82.7607 20C83.0204 19.948 83.2196 19.8961 83.3581 19.8442C83.4966 19.7749 83.6005 19.6883 83.6698 19.5844C83.7391 19.4632 83.7823 19.3074 83.7997 19.1169C83.817 18.9264 83.8256 18.6753 83.8256 18.3636V12.1818C83.4966 12.1126 82.8646 12.0606 81.9295 12.026V11.6364C82.3451 11.4632 82.6741 11.316 82.9165 11.1948C83.159 11.0563 83.3408 10.9351 83.462 10.8312C83.6005 10.7273 83.6871 10.6234 83.7217 10.5195C83.7564 10.4156 83.7737 10.303 83.7737 10.1818C83.7737 10.026 83.791 9.75757 83.8256 9.37662C83.8603 8.97835 83.9382 8.53679 84.0594 8.05194C84.1979 7.54978 84.3884 7.03896 84.6308 6.51948C84.8733 6 85.1936 5.52381 85.5919 5.0909C86.0075 4.658 86.5096 4.30303 87.0984 4.02597C87.6871 3.7316 88.3971 3.58441 89.2282 3.58441C89.3668 3.58441 89.4966 3.59307 89.6178 3.61039C89.7564 3.61039 89.8949 3.61904 90.0334 3.63636C90.5875 3.72294 91.0637 3.87878 91.462 4.10389C91.8603 4.329 92.0594 4.68398 92.0594 5.16883C92.0594 5.65368 91.9295 6.04329 91.6698 6.33766C91.4274 6.63203 91.0637 6.77922 90.5789 6.77922C90.1979 6.77922 89.8862 6.68398 89.6438 6.4935C89.4187 6.28571 89.2196 6.06926 89.0464 5.84415C88.8906 5.60173 88.752 5.38528 88.6308 5.1948C88.5096 4.98701 88.3884 4.88311 88.2672 4.88311C87.817 4.88311 87.4793 5.01298 87.2542 5.27272C87.0464 5.51515 86.8906 5.83549 86.7867 6.23376C86.7001 6.61471 86.6568 7.04762 86.6568 7.53246V10.1299C86.6568 10.4242 86.6655 10.6407 86.6828 10.7792L90.501 10.8571V10.961L91.2023 10.7273C91.5832 10.5887 91.9555 10.4416 92.3191 10.2857C92.6828 10.1126 93.0118 9.93073 93.3062 9.74026C93.6178 9.53246 93.8603 9.32467 94.0334 9.11688C94.1546 9.11688 94.2672 9.12554 94.3711 9.14285C94.475 9.14285 94.5875 9.14285 94.7088 9.14285V19.039C94.7088 19.2987 94.7434 19.4892 94.8126 19.6104C94.8992 19.7316 95.0551 19.8182 95.2802 19.8701L96.1633 20.1818V20.8312Z" fill="#474752"/>
<path d="M110.33 20.8052C109.43 20.7532 108.425 20.7273 107.317 20.7273C106.226 20.7273 105.231 20.7532 104.33 20.8052V20.1558L105.239 19.948C105.62 19.8961 105.811 19.5584 105.811 18.9351V14.5714C105.811 14.1905 105.793 13.8615 105.759 13.5844C105.741 13.29 105.681 13.0476 105.577 12.8571C105.49 12.6493 105.343 12.5022 105.135 12.4156C104.945 12.3117 104.676 12.2597 104.33 12.2597C103.932 12.2597 103.508 12.3896 103.057 12.6493C102.624 12.8918 102.261 13.1861 101.966 13.5325V19.2208C101.966 19.4978 102.174 19.6883 102.59 19.7922L103.343 20.1558V20.8052C103.101 20.7706 102.867 20.7532 102.642 20.7532C102.417 20.7359 102.148 20.7273 101.837 20.7273H100.252C99.6981 20.7273 99.1353 20.7359 98.5639 20.7532C98.0098 20.7532 97.6028 20.7706 97.3431 20.8052V20.1558L98.46 19.8961C98.6331 19.8615 98.763 19.7835 98.8496 19.6623C98.9362 19.5411 98.9795 19.3593 98.9795 19.1169V14C98.9795 13.4632 98.8669 13.0996 98.6418 12.9091C98.434 12.7186 98.053 12.5801 97.4989 12.4935V12C97.776 11.9307 98.0963 11.8442 98.46 11.7403C98.8409 11.6364 99.2132 11.5065 99.5769 11.3506C99.9405 11.1775 100.278 10.9784 100.59 10.7532C100.902 10.5108 101.135 10.2251 101.291 9.8961H101.966V12.4156C102.486 11.7749 103.049 11.2727 103.655 10.9091C104.261 10.5455 104.867 10.3636 105.473 10.3636C106.477 10.3636 107.282 10.658 107.889 11.2467C108.495 11.8355 108.798 12.7273 108.798 13.9221V18.8571C108.798 19.2035 108.841 19.4545 108.928 19.6104C109.014 19.7662 109.187 19.8788 109.447 19.948L110.33 20.1558V20.8052Z" fill="#474752"/>
<path d="M114.7 4.75324C115.15 4.75324 115.531 4.9264 115.843 5.27272C116.172 5.60173 116.337 5.99134 116.337 6.44155C116.337 6.83982 116.172 7.20346 115.843 7.53246C115.531 7.86147 115.142 8.02597 114.674 8.02597C114.224 8.02597 113.843 7.87878 113.531 7.58441C113.237 7.27272 113.09 6.89177 113.09 6.44155C113.09 5.99134 113.246 5.60173 113.557 5.27272C113.869 4.9264 114.25 4.75324 114.7 4.75324ZM117.324 20.8312C117.047 20.7965 116.631 20.7706 116.077 20.7532C115.523 20.7359 114.899 20.7273 114.207 20.7273C113.514 20.7273 112.891 20.7359 112.337 20.7532C111.782 20.7706 111.367 20.7965 111.09 20.8312V20.1558L112.077 19.8961C112.614 19.7922 112.882 19.4719 112.882 18.9351V14.2597C112.882 13.8442 112.778 13.5411 112.57 13.3506C112.363 13.1602 111.947 12.9957 111.324 12.8571V12.2338C111.618 12.1645 111.956 12.0693 112.337 11.948C112.718 11.8095 113.09 11.6623 113.453 11.5065C113.817 11.3333 114.155 11.1515 114.466 10.961C114.778 10.7532 115.021 10.5455 115.194 10.3377C115.315 10.3377 115.428 10.3463 115.531 10.3636C115.635 10.3636 115.748 10.3636 115.869 10.3636V19.013C115.869 19.2727 115.904 19.4719 115.973 19.6104C116.06 19.7316 116.215 19.8182 116.44 19.8701L117.324 20.1558V20.8312Z" fill="#474752"/>
<path d="M122.605 8.20779H123.176C123.176 8.67532 123.176 9.14285 123.176 9.61039C123.193 10.0606 123.202 10.5195 123.202 10.987L126.449 10.9091V12.1299L123.202 12.2338V16.9091C123.202 17.6883 123.297 18.2597 123.488 18.6234C123.678 18.9697 124.077 19.1429 124.683 19.1429C124.942 19.1429 125.228 19.1169 125.54 19.0649C125.851 18.9957 126.189 18.8052 126.553 18.4935L126.786 18.8571C126.665 19.0996 126.501 19.3593 126.293 19.6364C126.085 19.8961 125.825 20.1385 125.514 20.3636C125.219 20.5887 124.882 20.7792 124.501 20.9351C124.12 21.0736 123.687 21.1429 123.202 21.1429C122.215 21.1429 121.479 20.9004 120.994 20.4156C120.509 19.9134 120.267 19.0649 120.267 17.8701V12.2857C120.025 12.2857 119.791 12.2944 119.566 12.3117C119.341 12.3117 119.107 12.3117 118.864 12.3117C118.622 12.3117 118.492 12.1991 118.475 11.974C118.475 11.7489 118.596 11.5844 118.838 11.4805C119.219 11.3247 119.566 11.1602 119.877 10.987C120.206 10.8138 120.475 10.6407 120.683 10.4675C120.925 10.2771 121.245 9.99134 121.644 9.61039C122.059 9.22943 122.38 8.7619 122.605 8.20779Z" fill="#474752"/>
<path d="M132.695 23.7143C132.383 24.4935 131.924 25.0563 131.318 25.4026C130.729 25.7489 130.097 25.9221 129.422 25.9221C129.232 25.9221 129.041 25.8961 128.851 25.8442C128.66 25.8095 128.496 25.7403 128.357 25.6364C128.236 25.5498 128.132 25.4372 128.045 25.2987C127.976 25.1775 127.942 25.0303 127.942 24.8571C127.942 24.3723 128.071 24.0519 128.331 23.8961C128.591 23.7576 128.903 23.6883 129.266 23.6883C129.63 23.6883 130.002 23.7316 130.383 23.8182C130.764 23.9221 131.05 23.974 131.24 23.974C131.327 23.974 131.431 23.9307 131.552 23.8442C131.673 23.7576 131.794 23.6364 131.916 23.4805C132.037 23.342 132.132 23.1688 132.201 22.961C132.288 22.7532 132.331 22.5281 132.331 22.2857C132.331 22.0779 132.288 21.8009 132.201 21.4545C132.115 21.1602 132.011 20.8658 131.89 20.5714C131.786 20.2771 131.682 20.0087 131.578 19.7662L128.175 12.2857C127.985 11.8701 127.76 11.619 127.5 11.5325L126.98 11.3506V10.7013C129.18 10.8745 131.006 10.8745 132.461 10.7013V11.3506C131.993 11.3506 131.742 11.3939 131.708 11.4805C131.673 11.5671 131.69 11.697 131.76 11.8701L134.123 17.8701L136.175 12.8052C136.262 12.5628 136.296 12.3117 136.279 12.0519C136.279 11.7922 136.132 11.6277 135.838 11.5584L134.383 11.2208V10.7013C135.907 10.8745 137.5 10.8745 139.162 10.7013V11.2208L138.331 11.4286C138.193 11.4632 138.071 11.5151 137.967 11.5844C137.881 11.6364 137.786 11.7229 137.682 11.8442C137.595 11.948 137.5 12.1039 137.396 12.3117C137.309 12.5022 137.206 12.7532 137.084 13.0649L132.695 23.7143Z" fill="#474752"/>
<path d="M146.071 4.4935C146.919 4.4935 147.629 4.4935 148.201 4.4935C148.772 4.47619 149.205 4.45887 149.5 4.44155L153.266 4.23376C153.595 4.21645 153.82 4.20779 153.941 4.20779C154.08 4.20779 154.184 4.20779 154.253 4.20779C155.067 4.20779 155.829 4.30303 156.538 4.4935C157.248 4.66666 157.863 4.95238 158.383 5.35065C158.902 5.7316 159.309 6.2251 159.603 6.83116C159.915 7.43723 160.071 8.15584 160.071 8.98701C160.071 9.74891 159.915 10.4156 159.603 10.987C159.309 11.5584 158.911 12.0433 158.409 12.4416C157.924 12.8225 157.361 13.1082 156.72 13.2987C156.097 13.4892 155.465 13.5844 154.824 13.5844C154.322 13.5844 153.88 13.5151 153.5 13.3766C153.119 13.2381 152.764 13.0043 152.435 12.6753L152.487 12.4416C152.712 12.5281 152.954 12.5887 153.214 12.6234C153.474 12.6407 153.699 12.6493 153.889 12.6493C154.322 12.6493 154.712 12.5887 155.058 12.4675C155.422 12.3463 155.733 12.1558 155.993 11.8961C156.253 11.619 156.452 11.2554 156.59 10.8052C156.746 10.355 156.824 9.7922 156.824 9.11688C156.824 7.97402 156.538 7.04762 155.967 6.33766C155.413 5.61039 154.538 5.24675 153.344 5.24675C153.101 5.24675 152.893 5.25541 152.72 5.27272C152.564 5.27272 152.417 5.28138 152.279 5.2987C152.14 5.31601 152.019 5.34199 151.915 5.37662C151.829 5.39394 151.742 5.41991 151.655 5.45454V18.7792C151.655 19.039 151.707 19.2641 151.811 19.4545C151.932 19.6277 152.184 19.7489 152.564 19.8182L154.123 20.1039V20.8312C153.396 20.7965 152.703 20.7706 152.045 20.7532C151.404 20.7359 150.85 20.7273 150.383 20.7273C149.846 20.7273 149.292 20.7359 148.72 20.7532C148.166 20.7706 147.456 20.7879 146.59 20.8052V20.0779L148.045 19.7922C148.305 19.7403 148.478 19.645 148.564 19.5065C148.651 19.368 148.694 19.1342 148.694 18.8052V7.0909C148.694 6.4329 148.487 5.99134 148.071 5.76623C147.673 5.54112 147.006 5.37662 146.071 5.27272V4.4935Z" fill="#474752"/>
<path d="M165.428 21.1169C164.718 21.1169 164.103 20.9957 163.584 20.7532C163.082 20.4935 162.666 20.1472 162.337 19.7143C162.025 19.2814 161.792 18.7706 161.636 18.1818C161.48 17.5931 161.402 16.961 161.402 16.2857C161.402 15.368 161.54 14.5541 161.818 13.8442C162.095 13.1342 162.467 12.5368 162.934 12.0519C163.402 11.5671 163.947 11.2035 164.571 10.961C165.194 10.7013 165.852 10.5714 166.545 10.5714C167.03 10.5714 167.454 10.6061 167.818 10.6753C168.181 10.7446 168.484 10.8225 168.727 10.9091C169.038 10.9957 169.281 11.0996 169.454 11.2208L171.168 10.2597L171.402 10.3377V18.3377C171.402 19.013 171.696 19.342 172.285 19.3247C172.424 19.3247 172.527 19.3074 172.597 19.2727C172.683 19.2208 172.761 19.1775 172.831 19.1429C172.882 19.1082 172.943 19.0563 173.012 18.987L173.168 19.3506C173.047 19.6796 172.865 19.974 172.623 20.2338C172.432 20.4589 172.172 20.6667 171.843 20.8571C171.532 21.0303 171.142 21.1169 170.675 21.1169C169.895 21.1169 169.35 20.8918 169.038 20.4416C168.727 19.974 168.571 19.4113 168.571 18.7532V18.1299C168.484 18.5108 168.363 18.8831 168.207 19.2467C168.051 19.5931 167.843 19.9048 167.584 20.1818C167.341 20.4589 167.038 20.684 166.675 20.8571C166.328 21.0303 165.913 21.1169 165.428 21.1169ZM168.571 15.1429C168.571 14.7792 168.553 14.3983 168.519 14C168.484 13.6017 168.406 13.2381 168.285 12.9091C168.164 12.5628 167.973 12.2771 167.714 12.0519C167.471 11.8268 167.134 11.7143 166.701 11.7143C166.458 11.7143 166.198 11.7835 165.921 11.9221C165.662 12.0433 165.419 12.2511 165.194 12.5455C164.969 12.8398 164.779 13.2467 164.623 13.7662C164.484 14.2684 164.415 14.8918 164.415 15.6364C164.415 16.1558 164.45 16.6493 164.519 17.1169C164.605 17.5844 164.735 17.9913 164.908 18.3377C165.082 18.684 165.289 18.961 165.532 19.1688C165.792 19.3593 166.095 19.4545 166.441 19.4545C166.77 19.4545 167.064 19.342 167.324 19.1169C167.601 18.8918 167.826 18.5974 167.999 18.2338C168.19 17.8528 168.328 17.4199 168.415 16.9351C168.519 16.4502 168.571 15.948 168.571 15.4286V15.1429Z" fill="#474752"/>
<path d="M174.33 20.8312V20.4156L175.11 20.1818C175.456 20.0779 175.672 19.948 175.759 19.7922C175.863 19.619 175.915 19.3074 175.915 18.8571V13.8701C175.915 13.5238 175.845 13.2641 175.707 13.0909C175.568 12.9177 175.239 12.7965 174.72 12.7273L174.278 12.6753V12.1818C174.607 12.0952 174.962 11.9827 175.343 11.8442C175.742 11.6883 176.123 11.5151 176.486 11.3247C176.867 11.1169 177.213 10.8831 177.525 10.6234C177.854 10.3636 178.123 10.0779 178.33 9.76623H178.798C178.798 10.2684 178.806 10.7359 178.824 11.1688C178.841 11.6017 178.867 12.1039 178.902 12.6753C179.04 12.3809 179.17 12.1212 179.291 11.8961C179.43 11.671 179.638 11.3939 179.915 11.0649C180.174 10.7532 180.443 10.5628 180.72 10.4935C180.997 10.4069 181.248 10.3636 181.473 10.3636C181.906 10.3636 182.287 10.4935 182.616 10.7532C182.945 11.013 183.11 11.4459 183.11 12.0519C183.11 12.6061 182.988 13.0563 182.746 13.4026C182.503 13.7316 182.14 13.8961 181.655 13.8961C181.413 13.8961 181.205 13.8268 181.032 13.6883C180.876 13.5498 180.737 13.4026 180.616 13.2467C180.495 13.0909 180.382 12.9437 180.278 12.8052C180.192 12.6667 180.097 12.5974 179.993 12.5974C179.75 12.5974 179.534 12.7619 179.343 13.0909C179.17 13.4199 179.049 13.8268 178.98 14.3117C178.893 14.7273 178.867 15.0563 178.902 15.2987V18.9091C178.902 19.3074 178.98 19.5758 179.135 19.7143C179.291 19.8528 179.603 19.9913 180.071 20.1299L180.928 20.3896V20.8052C180.547 20.7706 180.114 20.7532 179.629 20.7532C179.144 20.7359 178.685 20.7273 178.252 20.7273H177.655C177.084 20.7273 176.512 20.7359 175.941 20.7532C175.369 20.7706 174.832 20.7965 174.33 20.8312Z" fill="#474752"/>
<path d="M197.413 20.8312C197.084 20.7965 196.617 20.7706 196.011 20.7532C195.422 20.7359 194.825 20.7273 194.218 20.7273C193.612 20.7273 193.032 20.7359 192.478 20.7532C191.941 20.7706 191.509 20.7965 191.18 20.8312V20.1558L191.881 20.0519C192.262 20 192.452 19.9221 192.452 19.8182C192.452 19.6797 192.305 19.4113 192.011 19.013C191.734 18.6147 191.318 18.0519 190.764 17.3247C190.487 16.9784 190.21 16.6753 189.933 16.4156C189.673 16.1385 189.413 16 189.154 16H188.92V18.9091C188.92 19.342 188.963 19.619 189.05 19.7403C189.154 19.8442 189.327 19.9221 189.569 19.974L190.296 20.1558V20.8312C190.158 20.8138 189.967 20.7965 189.725 20.7792C189.5 20.7619 189.24 20.7532 188.946 20.7532C188.669 20.7359 188.374 20.7273 188.063 20.7273C187.768 20.7273 187.483 20.7273 187.206 20.7273C186.651 20.7273 186.089 20.7359 185.517 20.7532C184.946 20.7706 184.522 20.7965 184.244 20.8312V20.1558L185.205 20C185.517 19.948 185.716 19.8701 185.803 19.7662C185.889 19.645 185.933 19.3593 185.933 18.9091V6.51948C185.933 6.31168 185.915 6.14718 185.881 6.02597C185.846 5.90476 185.768 5.80952 185.647 5.74026C185.543 5.65368 185.387 5.58441 185.18 5.53246C184.972 5.48052 184.686 5.42857 184.322 5.37662V4.75324C184.547 4.70129 184.842 4.64069 185.205 4.57142C185.586 4.50216 185.976 4.42424 186.374 4.33766C186.79 4.23376 187.188 4.12121 187.569 4C187.95 3.87878 188.262 3.74026 188.504 3.58441H188.92V15.039C189.093 15.039 189.249 15.0216 189.387 14.987C189.543 14.9351 189.699 14.8571 189.855 14.7532C190.011 14.6493 190.184 14.5195 190.374 14.3636C190.565 14.1905 190.807 13.9827 191.102 13.7403C191.69 13.2727 192.097 12.9437 192.322 12.7532C192.547 12.5455 192.66 12.3636 192.66 12.2078C192.66 11.8442 192.106 11.5844 190.998 11.4286V10.8312H196.53V11.4286C195.924 11.4978 195.344 11.645 194.79 11.8701C194.253 12.0779 193.76 12.3896 193.309 12.8052L191.673 14.0779C192.037 14.5455 192.435 15.0736 192.868 15.6623C193.301 16.2511 193.725 16.8225 194.141 17.3766C194.573 17.9307 194.989 18.4329 195.387 18.8831C195.803 19.316 196.167 19.619 196.478 19.7922C196.565 19.8442 196.643 19.8874 196.712 19.9221C196.799 19.9394 196.876 19.9654 196.946 20L197.413 20.1558V20.8312Z" fill="#474752"/>
<path d="M207.558 14.6234H201.116C201.081 14.7965 201.055 14.9004 201.038 14.9351C201.038 14.9697 201.038 15.0736 201.038 15.2467C201.038 15.8009 201.116 16.3117 201.272 16.7792C201.428 17.2294 201.644 17.6277 201.921 17.974C202.216 18.303 202.562 18.5628 202.96 18.7532C203.358 18.9437 203.809 19.039 204.311 19.039C204.917 19.039 205.471 18.961 205.973 18.8052C206.493 18.632 207.038 18.2684 207.61 17.7143L207.713 18.1039C207.506 18.5022 207.263 18.8831 206.986 19.2467C206.726 19.6104 206.406 19.9307 206.025 20.2078C205.644 20.4848 205.194 20.71 204.674 20.8831C204.172 21.0563 203.575 21.1429 202.882 21.1429C202.155 21.1429 201.488 21.0216 200.882 20.7792C200.276 20.5195 199.757 20.1558 199.324 19.6883C198.908 19.2208 198.579 18.658 198.337 18C198.112 17.342 197.999 16.6061 197.999 15.7922C197.999 14.9784 198.12 14.2424 198.363 13.5844C198.623 12.9091 198.977 12.3377 199.428 11.8701C199.895 11.3853 200.458 11.013 201.116 10.7532C201.774 10.4935 202.51 10.3636 203.324 10.3636C204.068 10.3636 204.7 10.4762 205.22 10.7013C205.739 10.9264 206.164 11.2381 206.493 11.6364C206.839 12.0173 207.09 12.4675 207.246 12.987C207.419 13.5065 207.523 14.0519 207.558 14.6234ZM201.246 13.6623H203.687C204.155 13.6623 204.389 13.4372 204.389 12.987C204.389 12.4848 204.311 12.0606 204.155 11.7143C203.999 11.3506 203.687 11.1688 203.22 11.1688C202.233 11.1688 201.575 12 201.246 13.6623Z" fill="#474752"/>
<path d="M209.005 20.8312V20.4156L209.784 20.1818C210.13 20.0779 210.347 19.948 210.433 19.7922C210.537 19.619 210.589 19.3074 210.589 18.8571V13.8701C210.589 13.5238 210.52 13.2641 210.381 13.0909C210.243 12.9177 209.914 12.7965 209.394 12.7273L208.953 12.6753V12.1818C209.282 12.0952 209.637 11.9827 210.018 11.8442C210.416 11.6883 210.797 11.5151 211.16 11.3247C211.541 11.1169 211.888 10.8831 212.199 10.6234C212.528 10.3636 212.797 10.0779 213.005 9.76623H213.472C213.472 10.2684 213.481 10.7359 213.498 11.1688C213.515 11.6017 213.541 12.1039 213.576 12.6753C213.715 12.3809 213.844 12.1212 213.966 11.8961C214.104 11.671 214.312 11.3939 214.589 11.0649C214.849 10.7532 215.117 10.5628 215.394 10.4935C215.671 10.4069 215.922 10.3636 216.147 10.3636C216.58 10.3636 216.961 10.4935 217.29 10.7532C217.619 11.013 217.784 11.4459 217.784 12.0519C217.784 12.6061 217.663 13.0563 217.42 13.4026C217.178 13.7316 216.814 13.8961 216.329 13.8961C216.087 13.8961 215.879 13.8268 215.706 13.6883C215.55 13.5498 215.412 13.4026 215.29 13.2467C215.169 13.0909 215.057 12.9437 214.953 12.8052C214.866 12.6667 214.771 12.5974 214.667 12.5974C214.425 12.5974 214.208 12.7619 214.018 13.0909C213.844 13.4199 213.723 13.8268 213.654 14.3117C213.567 14.7273 213.541 15.0563 213.576 15.2987V18.9091C213.576 19.3074 213.654 19.5758 213.81 19.7143C213.966 19.8528 214.277 19.9913 214.745 20.1299L215.602 20.3896V20.8052C215.221 20.7706 214.788 20.7532 214.303 20.7532C213.818 20.7359 213.36 20.7273 212.927 20.7273H212.329C211.758 20.7273 211.186 20.7359 210.615 20.7532C210.044 20.7706 209.507 20.7965 209.005 20.8312Z" fill="#474752"/>
<path d="M12.6426 0.857147C4.45508 0.857147 0.142578 7.16965 0.142578 13.3571C0.142578 19.5446 4.45508 25.8571 12.6426 25.8571C17.5801 25.8571 21.5176 22.3571 25.1426 18.2321C28.7676 22.3571 32.5801 25.8571 37.6426 25.8571C45.8301 25.8571 50.1426 19.5446 50.1426 13.3571C50.1426 7.16965 45.8301 0.857147 37.6426 0.857147C32.5801 0.857147 28.7676 4.35715 25.1426 8.48215C21.5176 4.35715 17.5801 0.857147 12.6426 0.857147ZM12.6426 7.10715C15.2676 7.10715 18.1426 10.0446 21.0176 13.3571C18.1426 16.6696 15.2676 19.6071 12.6426 19.6071C8.01758 19.6071 6.39258 16.2321 6.39258 13.3571C6.39258 10.4821 8.01758 7.10715 12.6426 7.10715ZM37.6426 7.10715C42.2676 7.10715 43.8926 10.4821 43.8926 13.3571C43.8926 16.2321 42.2676 19.6071 37.6426 19.6071C34.9551 19.6071 32.0801 16.6696 29.2676 13.3571C32.1426 10.0446 34.9551 7.10715 37.6426 7.10715Z" fill="#474752"/>
<path d="M15.8569 13C15.8569 13 14.5777 15.1429 12.9997 15.1429C11.4218 15.1429 10.1426 14.1835 10.1426 13C10.1426 11.8165 11.4218 10.8571 12.9997 10.8571C14.5777 10.8571 15.8569 13 15.8569 13Z" fill="#474752"/>
<path d="M34.4283 13C34.4283 13 35.7075 10.8571 37.2854 10.8571C38.8634 10.8571 40.1426 11.8165 40.1426 13C40.1426 14.1835 38.8634 15.1429 37.2854 15.1429C35.7075 15.1429 34.4283 13 34.4283 13Z" fill="#474752"/>
</svg>
