<svg width="32" height="34" viewBox="0 0 32 34" fill="none" xmlns="http://www.w3.org/2000/svg">
<path fill-rule="evenodd" clip-rule="evenodd" d="M15.1834 7.073C18.1925 5.33535 22.0405 6.36607 23.7782 9.37518L29.7972 19.7984C31.5349 22.8075 30.5041 26.6555 27.495 28.3932C24.4859 30.1308 20.6379 29.1001 18.9002 26.091L12.8812 15.6678C11.1436 12.6587 12.1743 8.81066 15.1834 7.073Z" fill="white"/>
<path fill-rule="evenodd" clip-rule="evenodd" d="M7.19348 12.5217C7.19348 9.04686 10.0104 6.22998 13.4852 6.22998H25.5232C28.998 6.22998 31.8149 9.04686 31.8149 12.5217C31.8149 15.9964 28.998 18.8133 25.5232 18.8133H13.4852C10.0104 18.8133 7.19348 15.9964 7.19348 12.5217Z" fill="white"/>
<path fill-rule="evenodd" clip-rule="evenodd" d="M20.2282 0.844243C23.2373 2.5819 24.268 6.42991 22.5304 9.43902L16.5113 19.8622C14.7737 22.8713 10.9257 23.9021 7.91656 22.1644C4.90745 20.4267 3.87673 16.5787 5.61438 13.5696L11.6334 3.14642C13.3711 0.137308 17.2191 -0.893411 20.2282 0.844243Z" fill="white"/>
<path fill-rule="evenodd" clip-rule="evenodd" d="M4.31982 5.03883C7.32893 3.30117 11.1769 4.33189 12.9146 7.341L18.9336 17.7642C20.6713 20.7733 19.6406 24.6213 16.6315 26.359C13.6224 28.0966 9.77434 27.0659 8.03668 24.0568L2.01765 13.6336C0.27999 10.6245 1.31071 6.77648 4.31982 5.03883Z" fill="white"/>
<path fill-rule="evenodd" clip-rule="evenodd" d="M0 20.9106C0 17.4358 2.81688 14.6189 6.29167 14.6189H18.3297C21.8045 14.6189 24.6214 17.4358 24.6214 20.9106C24.6214 24.3854 21.8045 27.2022 18.3297 27.2022H6.29167C2.81688 27.2022 0 24.3854 0 20.9106Z" fill="white"/>
<path fill-rule="evenodd" clip-rule="evenodd" d="M23.8983 11.2676C26.9074 13.0052 27.9381 16.8533 26.2005 19.8624L20.1814 30.2856C18.4438 33.2947 14.5958 34.3254 11.5867 32.5877C8.57755 30.8501 7.54684 27.0021 9.28449 23.993L15.3035 13.5698C17.0412 10.5606 20.8892 9.52993 23.8983 11.2676Z" fill="white"/>
</svg>
