<svg width="109" height="20" viewBox="0 0 109 20" fill="none" xmlns="http://www.w3.org/2000/svg">
<path d="M6.1 9.82L0.1 0.999999H2.24L7.04 8.02L11.8 0.999999H13.88L7.9 9.82V15H6.1V9.82ZM19.3373 15.2C18.3373 15.2 17.4307 14.9733 16.6173 14.52C15.804 14.0667 15.164 13.4467 14.6973 12.66C14.2307 11.86 13.9973 10.9733 13.9973 10C13.9973 9.02667 14.2307 8.14667 14.6973 7.36C15.164 6.56 15.804 5.93333 16.6173 5.48C17.4307 5.02667 18.3373 4.8 19.3373 4.8C20.3373 4.8 21.244 5.02667 22.0573 5.48C22.8707 5.93333 23.5107 6.56 23.9773 7.36C24.444 8.14667 24.6773 9.02667 24.6773 10C24.6773 10.96 24.4373 11.84 23.9573 12.64C23.4907 13.4267 22.8507 14.0533 22.0373 14.52C21.224 14.9733 20.324 15.2 19.3373 15.2ZM19.3373 13.74C20.044 13.74 20.6773 13.58 21.2373 13.26C21.8107 12.94 22.2573 12.4933 22.5773 11.92C22.8973 11.3467 23.0573 10.7067 23.0573 10C23.0573 9.29333 22.8973 8.65333 22.5773 8.08C22.2573 7.50667 21.8107 7.06 21.2373 6.74C20.6773 6.42 20.044 6.26 19.3373 6.26C18.6307 6.26 17.9907 6.42 17.4173 6.74C16.8573 7.06 16.4173 7.50667 16.0973 8.08C15.7773 8.64 15.6173 9.28 15.6173 10C15.6173 10.7067 15.7773 11.3467 16.0973 11.92C16.4173 12.4933 16.8573 12.94 17.4173 13.26C17.9907 13.58 18.6307 13.74 19.3373 13.74ZM33.8564 19.2C32.0697 19.2 30.6697 18.92 29.6564 18.36C28.6431 17.8 28.1364 17.0333 28.1364 16.06C28.1364 15.4733 28.3364 14.9667 28.7364 14.54C29.1364 14.1133 29.7031 13.7867 30.4364 13.56C29.4097 13.36 28.6031 13.0533 28.0164 12.64C27.4297 12.2267 27.1364 11.64 27.1364 10.88C27.1364 10.5067 27.2831 10.16 27.5764 9.84C27.8831 9.50667 28.2697 9.34 28.7364 9.34C28.9497 9.34 29.0964 9.35333 29.1764 9.38C28.9364 8.99333 28.8164 8.56 28.8164 8.08C28.8164 7.16 29.1964 6.42 29.9564 5.86C30.7297 5.28667 31.8031 4.94667 33.1764 4.84V2.4H34.7564V4.82C36.1964 4.9 37.3231 5.22667 38.1364 5.8C38.9497 6.37333 39.3564 7.13333 39.3564 8.08C39.3564 9.06667 38.8764 9.85333 37.9164 10.44C36.9697 11.0133 35.6897 11.3 34.0764 11.3C33.2631 11.3 32.6097 11.24 32.1164 11.12C31.6364 10.9867 31.1564 10.8067 30.6764 10.58C30.4364 10.4467 30.2164 10.3533 30.0164 10.3C29.8297 10.2333 29.6231 10.2 29.3964 10.2C29.1697 10.2 28.9831 10.2667 28.8364 10.4C28.7031 10.5333 28.6364 10.6933 28.6364 10.88C28.6364 11.5467 29.0897 12 29.9964 12.24C30.9164 12.4667 32.2431 12.6067 33.9764 12.66C37.7497 12.7533 39.6364 13.84 39.6364 15.92C39.6364 16.5867 39.3964 17.1667 38.9164 17.66C38.4497 18.1533 37.7831 18.5333 36.9164 18.8C36.0497 19.0667 35.0297 19.2 33.8564 19.2ZM34.0764 10.02C35.2097 10.02 36.1031 9.84667 36.7564 9.5C37.4097 9.14 37.7364 8.65333 37.7364 8.04C37.7364 7.41333 37.4097 6.92 36.7564 6.56C36.1031 6.2 35.2097 6.02 34.0764 6.02C32.9431 6.02 32.0497 6.2 31.3964 6.56C30.7564 6.92 30.4364 7.41333 30.4364 8.04C30.4364 8.65333 30.7564 9.14 31.3964 9.5C32.0497 9.84667 32.9431 10.02 34.0764 10.02ZM33.8764 17.86C35.1964 17.86 36.2164 17.6933 36.9364 17.36C37.6564 17.0267 38.0164 16.56 38.0164 15.96C38.0164 15.3333 37.6631 14.8533 36.9564 14.52C36.2497 14.1867 35.2231 14.02 33.8764 14.02C32.5564 14.02 31.5364 14.1933 30.8164 14.54C30.0964 14.8733 29.7364 15.3467 29.7364 15.96C29.7364 16.56 30.0964 17.0267 30.8164 17.36C31.5364 17.6933 32.5564 17.86 33.8764 17.86ZM45.6591 15.22C44.6057 15.22 43.7857 14.9733 43.1991 14.48C42.6124 13.9867 42.3191 13.32 42.3191 12.48C42.3191 11.48 42.7724 10.7267 43.6791 10.22C44.5991 9.7 45.8724 9.39333 47.4991 9.3C48.3124 9.24667 48.9057 9.14667 49.2791 9C49.6524 8.85333 49.8391 8.62 49.8391 8.3C49.8391 7.67333 49.5791 7.15333 49.0591 6.74C48.5524 6.31333 47.9124 6.1 47.1391 6.1C46.3391 6.1 45.6791 6.30667 45.1591 6.72C44.6391 7.13333 44.3057 7.71333 44.1591 8.46H42.6591C42.8324 7.32667 43.3191 6.43333 44.1191 5.78C44.9324 5.12667 45.9524 4.8 47.1791 4.8C48.4591 4.8 49.4791 5.16667 50.2391 5.9C50.9991 6.62 51.3791 7.59333 51.3791 8.82V13.58H52.7591V15L50.0391 15.02V13.1C49.6524 13.74 49.0591 14.2533 48.2591 14.64C47.4724 15.0267 46.6057 15.22 45.6591 15.22ZM45.9191 13.94C46.6391 13.94 47.3057 13.78 47.9191 13.46C48.5324 13.1267 49.0191 12.6867 49.3791 12.14C49.7391 11.5933 49.9191 11 49.9191 10.36V9.96C49.7724 10.0933 49.4857 10.2133 49.0591 10.32C48.6324 10.4133 48.1191 10.48 47.5191 10.52C46.2524 10.6133 45.3324 10.8133 44.7591 11.12C44.1857 11.4133 43.8991 11.84 43.8991 12.4C43.8991 12.8933 44.0724 13.2733 44.4191 13.54C44.7791 13.8067 45.2791 13.94 45.9191 13.94ZM57.1484 0.999999H60.1484L64.9284 12.96L69.6884 0.999999H72.6284V15H70.8684V2.48L65.9284 15H63.8484L58.9084 2.48V15H57.1484V0.999999ZM78.2028 5H79.8028V15H78.2028V5ZM77.8228 0.0999987H80.1828L79.1028 3.58H78.9028L77.8228 0.0999987ZM86.412 5V6.82C86.7987 6.19333 87.312 5.7 87.952 5.34C88.6054 4.98 89.3254 4.8 90.112 4.8C90.992 4.8 91.7587 4.99333 92.412 5.38C93.0787 5.76667 93.592 6.32 93.952 7.04C94.312 7.76 94.492 8.6 94.492 9.56V15H92.892V9.78C92.892 8.68667 92.6254 7.83333 92.092 7.22C91.5587 6.59333 90.8187 6.28 89.872 6.28C89.2454 6.28 88.672 6.43333 88.152 6.74C87.6454 7.04667 87.2454 7.46667 86.952 8C86.672 8.53333 86.532 9.12667 86.532 9.78V15H84.932V5H86.412ZM103.415 15.2C102.482 15.2 101.635 14.9733 100.875 14.52C100.115 14.0667 99.5152 13.4467 99.0752 12.66C98.6485 11.86 98.4352 10.9733 98.4352 10C98.4352 9.02667 98.6485 8.14667 99.0752 7.36C99.5152 6.56 100.115 5.93333 100.875 5.48C101.635 5.02667 102.482 4.8 103.415 4.8C104.215 4.8 104.942 4.98 105.595 5.34C106.248 5.68667 106.782 6.17333 107.195 6.8V0.799999H108.775V15H107.295V13.08C106.882 13.7467 106.342 14.2667 105.675 14.64C105.008 15.0133 104.255 15.2 103.415 15.2ZM103.635 13.74C104.302 13.74 104.908 13.58 105.455 13.26C106.002 12.9267 106.428 12.4733 106.735 11.9C107.055 11.3267 107.215 10.6933 107.215 10C107.215 9.30667 107.055 8.67333 106.735 8.1C106.428 7.52667 106.002 7.08 105.455 6.76C104.908 6.42667 104.302 6.26 103.635 6.26C102.968 6.26 102.362 6.42667 101.815 6.76C101.268 7.08 100.835 7.52667 100.515 8.1C100.208 8.67333 100.055 9.30667 100.055 10C100.055 10.6933 100.208 11.3267 100.515 11.9C100.835 12.4733 101.268 12.9267 101.815 13.26C102.362 13.58 102.968 13.74 103.635 13.74Z" fill="white"/>
</svg>
