<svg width="160" height="31" viewBox="0 0 160 31" fill="none" xmlns="http://www.w3.org/2000/svg">
<path d="M9.76 15.712L0.16 1.6H3.584L11.264 12.832L18.88 1.6H22.208L12.64 15.712V24H9.76V15.712ZM28.8918 24.32C27.2918 24.32 25.8411 23.9573 24.5398 23.232C23.2384 22.5067 22.2144 21.5147 21.4678 20.256C20.7211 18.976 20.3478 17.5573 20.3478 16C20.3478 14.4427 20.7211 13.0347 21.4678 11.776C22.2144 10.496 23.2384 9.49333 24.5398 8.768C25.8411 8.04267 27.2918 7.68 28.8918 7.68C30.4918 7.68 31.9424 8.04267 33.2438 8.768C34.5451 9.49333 35.5691 10.496 36.3158 11.776C37.0624 13.0347 37.4358 14.4427 37.4358 16C37.4358 17.536 37.0518 18.944 36.2838 20.224C35.5371 21.4827 34.5131 22.4853 33.2118 23.232C31.9104 23.9573 30.4704 24.32 28.8918 24.32ZM28.8918 21.984C30.0224 21.984 31.0358 21.728 31.9318 21.216C32.8491 20.704 33.5638 19.9893 34.0758 19.072C34.5878 18.1547 34.8438 17.1307 34.8438 16C34.8438 14.8693 34.5878 13.8453 34.0758 12.928C33.5638 12.0107 32.8491 11.296 31.9318 10.784C31.0358 10.272 30.0224 10.016 28.8918 10.016C27.7611 10.016 26.7371 10.272 25.8198 10.784C24.9238 11.296 24.2198 12.0107 23.7078 12.928C23.1958 13.824 22.9398 14.848 22.9398 16C22.9398 17.1307 23.1958 18.1547 23.7078 19.072C24.2198 19.9893 24.9238 20.704 25.8198 21.216C26.7371 21.728 27.7611 21.984 28.8918 21.984ZM50.0743 30.72C47.2156 30.72 44.9756 30.272 43.3543 29.376C41.7329 28.48 40.9223 27.2533 40.9223 25.696C40.9223 24.7573 41.2423 23.9467 41.8823 23.264C42.5223 22.5813 43.4289 22.0587 44.6023 21.696C42.9596 21.376 41.6689 20.8853 40.7303 20.224C39.7916 19.5627 39.3223 18.624 39.3223 17.408C39.3223 16.8107 39.5569 16.256 40.0263 15.744C40.5169 15.2107 41.1356 14.944 41.8823 14.944C42.2236 14.944 42.4583 14.9653 42.5863 15.008C42.2023 14.3893 42.0103 13.696 42.0103 12.928C42.0103 11.456 42.6183 10.272 43.8343 9.376C45.0716 8.45867 46.7889 7.91467 48.9863 7.744V3.84H51.5143V7.712C53.8183 7.84 55.6209 8.36267 56.9223 9.28C58.2236 10.1973 58.8743 11.4133 58.8743 12.928C58.8743 14.5067 58.1063 15.7653 56.5703 16.704C55.0556 17.6213 53.0076 18.08 50.4263 18.08C49.1249 18.08 48.0796 17.984 47.2903 17.792C46.5223 17.5787 45.7543 17.2907 44.9863 16.928C44.6023 16.7147 44.2503 16.5653 43.9303 16.48C43.6316 16.3733 43.3009 16.32 42.9383 16.32C42.5756 16.32 42.2769 16.4267 42.0423 16.64C41.8289 16.8533 41.7223 17.1093 41.7223 17.408C41.7223 18.4747 42.4476 19.2 43.8983 19.584C45.3703 19.9467 47.4929 20.1707 50.2663 20.256C56.3036 20.4053 59.3223 22.144 59.3223 25.472C59.3223 26.5387 58.9383 27.4667 58.1703 28.256C57.4236 29.0453 56.3569 29.6533 54.9703 30.08C53.5836 30.5067 51.9516 30.72 50.0743 30.72ZM50.4263 16.032C52.2396 16.032 53.6689 15.7547 54.7143 15.2C55.7596 14.624 56.2823 13.8453 56.2823 12.864C56.2823 11.8613 55.7596 11.072 54.7143 10.496C53.6689 9.92 52.2396 9.632 50.4263 9.632C48.6129 9.632 47.1836 9.92 46.1383 10.496C45.1143 11.072 44.6023 11.8613 44.6023 12.864C44.6023 13.8453 45.1143 14.624 46.1383 15.2C47.1836 15.7547 48.6129 16.032 50.4263 16.032ZM50.1063 28.576C52.2183 28.576 53.8503 28.3093 55.0023 27.776C56.1543 27.2427 56.7303 26.496 56.7303 25.536C56.7303 24.5333 56.1649 23.7653 55.0343 23.232C53.9036 22.6987 52.2609 22.432 50.1063 22.432C47.9943 22.432 46.3623 22.7093 45.2103 23.264C44.0583 23.7973 43.4823 24.5547 43.4823 25.536C43.4823 26.496 44.0583 27.2427 45.2103 27.776C46.3623 28.3093 47.9943 28.576 50.1063 28.576ZM66.9105 24.352C65.2252 24.352 63.9132 23.9573 62.9745 23.168C62.0358 22.3787 61.5665 21.312 61.5665 19.968C61.5665 18.368 62.2918 17.1627 63.7425 16.352C65.2145 15.52 67.2518 15.0293 69.8545 14.88C71.1558 14.7947 72.1052 14.6347 72.7025 14.4C73.2998 14.1653 73.5985 13.792 73.5985 13.28C73.5985 12.2773 73.1825 11.4453 72.3505 10.784C71.5398 10.1013 70.5158 9.76 69.2785 9.76C67.9985 9.76 66.9425 10.0907 66.1105 10.752C65.2785 11.4133 64.7452 12.3413 64.5105 13.536H62.1105C62.3878 11.7227 63.1665 10.2933 64.4465 9.248C65.7478 8.20267 67.3798 7.68 69.3425 7.68C71.3905 7.68 73.0225 8.26667 74.2385 9.44C75.4545 10.592 76.0625 12.1493 76.0625 14.112V21.728H78.2705V24L73.9185 24.032V20.96C73.2998 21.984 72.3505 22.8053 71.0705 23.424C69.8118 24.0427 68.4252 24.352 66.9105 24.352ZM67.3265 22.304C68.4785 22.304 69.5452 22.048 70.5265 21.536C71.5078 21.0027 72.2865 20.2987 72.8625 19.424C73.4385 18.5493 73.7265 17.6 73.7265 16.576V15.936C73.4918 16.1493 73.0332 16.3413 72.3505 16.512C71.6678 16.6613 70.8465 16.768 69.8865 16.832C67.8598 16.9813 66.3878 17.3013 65.4705 17.792C64.5532 18.2613 64.0945 18.944 64.0945 19.84C64.0945 20.6293 64.3718 21.2373 64.9265 21.664C65.5025 22.0907 66.3025 22.304 67.3265 22.304ZM83.2455 1.6H88.0455L95.6935 20.736L103.31 1.6H108.014V24H105.198V3.968L97.2935 24H93.9655L86.0615 3.968V24H83.2455V1.6ZM114.885 8H117.445V24H114.885V8ZM114.277 0.159998H118.053L116.325 5.728H116.005L114.277 0.159998ZM125.971 8V10.912C126.59 9.90933 127.411 9.12 128.435 8.544C129.481 7.968 130.633 7.68 131.891 7.68C133.299 7.68 134.526 7.98933 135.571 8.608C136.638 9.22667 137.459 10.112 138.035 11.264C138.611 12.416 138.899 13.76 138.899 15.296V24H136.339V15.648C136.339 13.8987 135.913 12.5333 135.059 11.552C134.206 10.5493 133.022 10.048 131.507 10.048C130.505 10.048 129.587 10.2933 128.755 10.784C127.945 11.2747 127.305 11.9467 126.835 12.8C126.387 13.6533 126.163 14.6027 126.163 15.648V24H123.603V8H125.971ZM151.128 24.32C149.635 24.32 148.28 23.9573 147.064 23.232C145.848 22.5067 144.888 21.5147 144.184 20.256C143.502 18.976 143.16 17.5573 143.16 16C143.16 14.4427 143.502 13.0347 144.184 11.776C144.888 10.496 145.848 9.49333 147.064 8.768C148.28 8.04267 149.635 7.68 151.128 7.68C152.408 7.68 153.571 7.968 154.616 8.544C155.662 9.09867 156.515 9.87733 157.176 10.88V1.28H159.704V24H157.336V20.928C156.675 21.9947 155.811 22.8267 154.744 23.424C153.678 24.0213 152.472 24.32 151.128 24.32ZM151.48 21.984C152.547 21.984 153.518 21.728 154.392 21.216C155.267 20.6827 155.95 19.9573 156.44 19.04C156.952 18.1227 157.208 17.1093 157.208 16C157.208 14.8907 156.952 13.8773 156.44 12.96C155.95 12.0427 155.267 11.328 154.392 10.816C153.518 10.2827 152.547 10.016 151.48 10.016C150.414 10.016 149.443 10.2827 148.568 10.816C147.694 11.328 147 12.0427 146.488 12.96C145.998 13.8773 145.752 14.8907 145.752 16C145.752 17.1093 145.998 18.1227 146.488 19.04C147 19.9573 147.694 20.6827 148.568 21.216C149.443 21.728 150.414 21.984 151.48 21.984Z" fill="#111517"/>
</svg>
