<svg width="20" height="19" viewBox="0 0 20 19" fill="none" xmlns="http://www.w3.org/2000/svg">
<path d="M8.26156 0.988473C9.03425 -0.329493 10.9396 -0.32949 11.7122 0.988476L13.4381 3.93222C13.7201 4.41319 14.19 4.75462 14.7346 4.87417L18.0676 5.60588C19.5598 5.93348 20.1486 7.74553 19.1339 8.88768L16.8675 11.4387C16.4972 11.8555 16.3177 12.408 16.3723 12.9628L16.7064 16.3588C16.8559 17.8792 15.3145 18.9991 13.9147 18.3871L10.7882 17.0199C10.2773 16.7966 9.69646 16.7966 9.18563 17.0199L6.0591 18.3871C4.6593 18.9991 3.11788 17.8792 3.26744 16.3588L3.60149 12.9628C3.65607 12.408 3.47657 11.8555 3.10628 11.4387L0.839923 8.88768C-0.174763 7.74553 0.414013 5.93348 1.90625 5.60588L5.23923 4.87417C5.78379 4.75462 6.25374 4.41319 6.53571 3.93222L8.26156 0.988473Z" fill="#FFCE22"/>
</svg>
