<svg width="20" height="18" viewBox="0 0 20 18" fill="none" xmlns="http://www.w3.org/2000/svg">
<path d="M6.29229 17.1251C13.8376 17.1251 17.9657 10.8724 17.9657 5.45167C17.9657 5.27589 17.9618 5.0962 17.954 4.92042C18.757 4.33967 19.4501 3.62033 20.0005 2.7962C19.2526 3.12896 18.4585 3.34627 17.6454 3.44074C18.5016 2.92755 19.1426 2.12135 19.4497 1.17159C18.6443 1.64892 17.7635 1.98563 16.845 2.1673C16.2262 1.50976 15.408 1.07439 14.5169 0.928498C13.6258 0.78261 12.7115 0.934331 11.9153 1.3602C11.1191 1.78607 10.4853 2.46238 10.112 3.28455C9.73873 4.10672 9.64668 5.02897 9.8501 5.9087C8.21923 5.82686 6.62377 5.40321 5.16714 4.6652C3.71051 3.9272 2.42523 2.89132 1.39463 1.62472C0.870821 2.52782 0.710535 3.59649 0.946347 4.61353C1.18216 5.63057 1.79637 6.51966 2.66416 7.10011C2.01268 7.07943 1.37547 6.90402 0.805176 6.58839V6.63917C0.804592 7.58691 1.13224 8.50561 1.73241 9.2391C2.33259 9.97258 3.16826 10.4756 4.09736 10.6626C3.49387 10.8277 2.86047 10.8518 2.24619 10.7329C2.50837 11.548 3.01847 12.2609 3.7053 12.7721C4.39213 13.2833 5.22142 13.5673 6.07744 13.5845C4.62418 14.726 2.82897 15.3452 0.980957 15.3423C0.653228 15.3418 0.325821 15.3217 0.000488281 15.2821C1.87787 16.4866 4.06176 17.1263 6.29229 17.1251Z" fill="white"/>
</svg>
