<svg width="30.787720" height="32.000595" viewBox="0 0 30.7877 32.0006" fill="none" xmlns="http://www.w3.org/2000/svg" xmlns:xlink="http://www.w3.org/1999/xlink">
	<desc>
			Created with Pixso.
	</desc>
	<defs/>
	<path id="Vector" d="M11.5557 23.9199C9.32788 23.9199 7.51538 25.7324 7.51538 27.9603C7.51538 30.1881 9.32788 32.0006 11.5557 32.0006C13.7836 32.0006 15.5961 30.1881 15.5961 27.9603C15.5961 25.7324 13.7834 23.9199 11.5557 23.9199ZM11.5557 29.5764C10.6644 29.5764 9.93958 28.8516 9.93958 27.9603C9.93958 27.069 10.6644 26.3442 11.5557 26.3442C12.4467 26.3442 13.1719 27.069 13.1719 27.9603C13.1719 28.8515 12.4471 29.5764 11.5557 29.5764Z" fill="#FFFFFF" fill-opacity="1.000000" fill-rule="nonzero"/>
	<path id="Vector" d="M23.515 23.9199C21.2871 23.9199 19.4746 25.7324 19.4746 27.9603C19.4746 30.1881 21.2871 32.0006 23.515 32.0006C25.7428 32.0006 27.5553 30.1881 27.5553 27.9603C27.5553 25.7324 25.7428 23.9199 23.515 23.9199ZM23.515 29.5764C22.6237 29.5764 21.8989 28.8516 21.8989 27.9603C21.8989 27.069 22.6237 26.3442 23.515 26.3442C24.4062 26.3442 25.1311 27.069 25.1311 27.9603C25.1311 28.8515 24.4062 29.5764 23.515 29.5764Z" fill="#FFFFFF" fill-opacity="1.000000" fill-rule="nonzero"/>
	<path id="Vector" d="M30.5242 7.89211C30.2939 7.60279 29.9449 7.43436 29.5756 7.43436L8.35168 7.43436L7.24988 1.86594C7.15332 1.37826 6.76868 0.998882 6.27942 0.909195L1.43103 0.0203247C0.77124 -0.101299 0.140869 0.33551 0.0201416 0.994072C-0.100708 1.65263 0.335205 2.28413 0.993896 2.40494L5.03174 3.14512L8.58887 21.1242C8.70117 21.6919 9.19934 22.1012 9.77795 22.1012L26.7474 22.1012C27.3118 22.1012 27.8011 21.7121 27.9283 21.1614L30.7566 8.91916C30.8398 8.55917 30.7542 8.18098 30.5242 7.89211ZM25.7833 19.677L10.7734 19.677L8.8313 9.85897L28.0511 9.85897L25.7833 19.677Z" fill="#FFFFFF" fill-opacity="1.000000" fill-rule="nonzero"/>
</svg>
