<svg id="Шар_1" data-name="Шар 1" xmlns="http://www.w3.org/2000/svg" viewBox="0 0 1024 1024">
  <title>MainMenu_Монтажна область 1</title>
  <ellipse cx="512.631" cy="730.035" rx="292.787" ry="27.31" style="fill: #a08468"/>
  <circle cx="512.631" cy="386.637" r="292.787" style="fill: #f9b65a"/>
  <g>
    <path d="M481.288,539.391l-1.05,7.343c-.9,1.577-2.085,1.233-3.348.511-.6-.346-1.442-.883-1.75.126-.423,1.379.845,1.115,1.578,1.214,1.778.24,3.565.415,5.348.616,2.039,2.477,1.483,4.562-.959,6.362-.372.274-1.063.546-1.066.825-.062,5.4-3.943,3.282-6.166,2.711a36.979,36.979,0,0,1-16.407-8.78,5.305,5.305,0,0,1-1.441-1.592c-2.067-5.182-4.5-10.087-8.938-13.746-.43-.354-.47-1.35-.458-2.044.1-5.539-.129-11.1.9-16.589,1.336-7.122-.108-13.924-2.77-20.466-1.266-3.111-2.2-5.938-1.031-9.363a10.6,10.6,0,0,0-1.107-8.69,17.515,17.515,0,0,1-2.234-11.494,9.036,9.036,0,0,0-1.175-5.881,20.438,20.438,0,0,1-2.272-10.774c.152-3.506-.195-7.053-2.665-10.131-2.161-2.693-2-6.121-1.45-9.388.252-1.492.383-2.73-.81-3.96a6.849,6.849,0,0,1-1.708-5.04c.463-10.564-3.4-20.644-3.351-31.155.007-1.444-.35-2.969.228-4.279,4.133-9.371,2.114-18.953,1.078-28.494-.6-5.513-1.316-10.99-.71-16.574.648-5.973-.835-11.746-2.2-17.5-3.109-13.128-6.409-26.206-8.008-39.653-.7-5.85.434-11.533.585-17.295a158.787,158.787,0,0,0-2.075-28.626c-2.724-17.469-10.273-33.026-19.361-47.936-6.772-11.109-13.927-22-19.126-33.992-7.88-18.173-10.125-36.816-4.483-56.08A66.811,66.811,0,0,1,391,72.838l-.032.026c1.684-.265,2.773-1.625,4.357-2.233,28.251-10.851,58.155-.058,77.534,19.883,1.532,1.576.856,2.666-.057,4.031a93.985,93.985,0,0,0-10.291,20.66c-.307.856-1.034,1.7-.355,2.765,2.309-.069,3.639-1.169,4.349-3.438a34.753,34.753,0,0,1,2.626-5.941c3.29-6.141,6.674-12.231,10.047-18.388-2.674-.031-2.668-.036-4.112-1.448-18.286-17.886-39.334-28.23-65.709-24.149a2.348,2.348,0,0,1-2.521-.881c27.688-8.97,51.17-1.1,71.734,18.071,5.114,4.766,4.907,4.909,1.351,10.885-4.069,6.838-8.006,13.747-11.442,20.939-1.046,2.189-.908,3.548,1.133,5.124a70.06,70.06,0,0,1,18.94,22.542c1.231,2.29,3.9,4.62.657,7.591-.817.747.4,2.23.942,3.26q4.84,9.166,9.766,18.287c2.044,3.786,3.593,7.851,7.085,10.759,1.806,1.5,3.531,1.756,5.178.461,3.365-2.644,7.741-4,10.085-7.967.9-1.528,2.206-1.8,4.034-1.265a50.065,50.065,0,0,0,21.483,1.084c.852-.124,1.581-.32,2.348.35,4,3.5,8.792,3.56,13.678,2.943,1.536-.195,2.723-.175,3.745,1.3a8.118,8.118,0,0,0,2.992,2.553c9.3,4.555,15.972,11.725,21.488,20.357,5.091,7.966,10.059,16.175,19.618,21.472-2.984.386-4.833.674-6.693.851-1.554.148-1.48,1.04-.876,1.961,7.962,12.146,13.243,25.623,19.037,38.817,4.163,9.479,9.337,18.591,12.084,28.606a27.513,27.513,0,0,1-.426,17.256c-1.079,2.837-1.74,5.741-.745,8.768a6.162,6.162,0,0,1-.446,4.92c-2.063,3.867-2.4,8.022-2.207,12.254a10.436,10.436,0,0,1-2.05,6.775,20.912,20.912,0,0,0-1.839,3.857c-3.128,6.747-2.085,12.833,1.2,19.489,7.836,15.882,14.777,32.2,23.527,47.642,1.6,2.821,3.3,5.66,3,9.132-.077.867.938,2.034-.395,2.526-.875.322-1.426-.716-2.062-1.228-.561-.452-1.068-.971-1.6-1.46-.347-.182-.825-.605-1.018-.5-.679.365-.222.883.015,1.338.7,3.208,2.456,6,3.561,9.048.312.86,1.145,1.924.162,2.644s-1.743-.347-2.432-.967c-2.867-2.579-5.7-5.191-8.57-7.769-.669-.6-1.36-1.781-2.358-.956s.058,1.806.52,2.5a57.965,57.965,0,0,1,9.334,22.13c.234,1.316,1.666,3.076.2,3.857-1.4.744-1.872-1.448-2.672-2.374-4.491-5.195-8.908-10.454-13.338-15.7-.549-.65-1.138-1.624-2-1.155-1.486.8.054,1.617.327,2.322,2.388,6.176,4.871,12.315,7.314,18.469.386.971,1.215,2.252-.092,2.845-1.169.53-1.358-1.05-1.853-1.756-3.84-5.481-7.172-11.325-11.452-16.49l-.913.266c.661,3.889,1.215,7.8,2.008,11.663,1.4,6.842,2.947,13.655,4.447,20.476.2.913.924,2.111-.144,2.6-1.43.658-1.7-.977-2.181-1.8-3.895-6.652-7.719-13.346-11.582-20.018-.4-.688-.609-1.775-1.635-1.659-1,.112-1,1.155-1.283,1.946-1.429,4.061-2.764,8.185-5.984,11.3a5.178,5.178,0,0,0-1.552,4.249c.216,4.329.4,8.66.519,12.992.028,1.027.212,2.465-1.051,2.793-1.478.383-1.494-1.239-1.989-2.1-.538-.937-.907-1.973-1.455-2.9-1.926-3.277-3.038-7.474-8.344-6.756-1.442.2-2.7-1.014-3.905-2.615-1,4.241,2.267,4.175,4.075,4.635,5.009,1.275,5.843,2.525,3.524,7.222-6.719,13.606-13.524,27.169-20.283,40.756-.318.639-.521,1.337-.777,2.007l-5.043,9.386.012-.013a38.019,38.019,0,0,0-2.407,3.557c-6.2,11.722-12.737,23.237-20.706,33.867-6.988,9.321-12.585,19.65-20.529,28.275l.229.219-.215-.232a32,32,0,0,0-5.639,6.733c-5.39,6.75-11.782,12.693-16.03,20.369a22.941,22.941,0,0,1-7.909,8.755,6.6,6.6,0,0,0-2.8,8.2,6.948,6.948,0,0,1-.1,4.87c-3.889,10.131-5.53,20.675-6.023,31.429a56.349,56.349,0,0,1-3.969,17.568c-3.091,8.093-6.538,16.05-9.7,24.117-.6,1.529-1.147,2.254-2.805,1.584a2.508,2.508,0,0,0-1.432-.077c-6.9,1.661-9.857-2.316-11.833-8.014a84.284,84.284,0,0,0-4.037-9.666c-3.986-8.078-3.543-16.249.1-24.079,2.929-6.287,2.586-12.913,3.446-19.424.441-3.333.275-6.734,1.265-10.014.5-1.673-.017-3.2-.714-4.847-3.471-8.2-5.228-16.39,1.726-23.857.961-1.032.891-1.771-.014-2.756a19.332,19.332,0,0,1-2.394-3.168c-.589-.991-1.951-1.969-1.29-3.175.776-1.415,1.86.119,2.824.205,2.576.231,1.255-1.381.971-2.253-2.766-8.481-5.6-16.94-8.406-25.407q-21.861-65.9-43.7-131.8a8.608,8.608,0,0,0-2.186-4.089c-7.174-6.211-9.427-15.519-14.535-23.026-.521-.766-1.247-1.809-.148-2.542,1.171-.781,1.67.532,2.248,1.187,2.06,2.332,3.972,4.8,6.864,6.909.183-2.527,1.842-4.122,2.451-6.209.209-.714.648-1.374,1.486-1.311.856.064,1.12.847,1.311,1.544.574,2.093,1.076,4.206,1.659,6.3.394,1.414-.417,3.5,2.295,3.665.74.045.664,1.488.5,2.279-1.768,8.589.335,16.566,3.062,24.7,16.1,47.993,31.936,96.072,47.892,144.112.365,1.1.412,2.39,1.435,3.244a2.013,2.013,0,0,0,.546-.268c1-1,.538-3.651,2.073-3.359,1.771.336.725,2.681,1.016,4.116.327,1.607.226,3.3.989,4.923,4.558-1.451,6.984-5.106,9.246-8.743a248.048,248.048,0,0,0,13.794-25.731c7.049-15.014,14.5-29.871,23.534-43.9,8.34-12.953,15.3-26.733,21.907-40.666.552-1.165,1.269-2.339-.075-4.025-3.556,7.175-6.543,14.383-11.079,21.756-1.325-11.161-5.942-20.2-10.518-29.315a3.889,3.889,0,0,0-.8.462c-1.041,1.192-.849,4.023-2.854,3.591-2.028-.436-.869-2.9-1.07-4.456-1.086-8.368-.967-16.8-1.251-25.215-.019-.555.179-1.221-.766-1.733-1.65,2.122-1.55,4.832-2.3,7.218-.89,2.82-1.616,5.7-2.31,8.573-.223.926-.707,1.811-1.491,1.756-.947-.066-1.04-1.131-1-2.02.245-5.026-1.845-9.6-3.217-14.532-1.157,3.4-2.27,6.817-3.5,10.19-.334.915-.436,2.487-1.941,2.111-1.217-.305-.564-1.642-.676-2.51-1.9-14.657-.044-29.056,2.728-43.448,3.358-17.434,4.056-35.2,6.125-52.794.613-5.215-.545-10.318-.152-15.435.642-8.338-1.385-16.734.608-25,.682-2.828.916-5.782,3.8-7.812,2.457-1.732,1.828-7.586-.773-10.459-3.465-3.828-6.14-8.685-12.057-9.423a1.108,1.108,0,0,1-.778-1.7c1.426-2.982-1.014-3.339-2.725-3.654-4.09-.752-7.729-2.572-11.531-4.09-8.411-3.357-22.157-.507-27.23,8.184.373.044.814.239,1,.1,4.97-3.7,5.456-3.727,5.759,2.589.87,18.148,4.449,36.2,2.063,54.472a26.081,26.081,0,0,1-.5,3.941c-2.307,7.875.2,14.62,4.722,20.938,1.49,2.082,1.635,4.532,1.509,6.942-.29,5.534-.64,11.032.672,16.527a14.208,14.208,0,0,1-.527,6.74c-.986,3.926-1.639,7.988.081,12.026a10.251,10.251,0,0,1,.351,7.117c-2.058,6.383-1.438,12.911-1.1,19.358.491,9.433.521,18.811-1.159,28.118a16.694,16.694,0,0,0,2.175,11.451,10.6,10.6,0,0,0,1.346,2.138c7.9,8.479,9.695,18.715,9.1,29.849-.208,3.9.323,8.007,3.464,11.07Zm27.689-348.469.059-.122-.1.06c-1.2-4.608-4.478-8.121-6.5-12.3-2.315-4.78-4.926-9.417-7.455-14.206-1.408,1.336-.9,2.349-.2,3.436a45.548,45.548,0,0,1,3.526,5.854c1.5,3.359,4.549,5.961,4.81,9.907-1.486.242-1.66-.872-1.949-1.859l-.807-.2.093.581.735-.422a2.9,2.9,0,0,0,.125,2.411c2.142,3.6,3.882,7.5,6.415,10.793,2.718,3.532,4.684,7.664,8.386,11.269a30.666,30.666,0,0,0-4.914-15.953c-.3,3.074,3.256,5.351,1.053,8.953-1.664-3.755-4.573-6.214-5.589-9.82C508.275,188.653,508.372,190.169,508.977,190.922ZM649.7,430.062c.262.133.676.442.762.369.42-.361.176-.723-.158-1.028-1.636-4.9-3.3-9.8-4.885-14.717a10.727,10.727,0,0,0-1.327-3.277,180.949,180.949,0,0,1-16.48-28.33c-1.863-3.921-4.176-7.629-6.692-12.17-.874,3.9-1.562,6.913-2.222,9.933a5.285,5.285,0,0,0,.022,3.512C626.285,401.464,634.185,418.338,649.7,430.062Zm-224.738-179.9c1.55-.122,2.164-1.378,2.919-2.44A128.549,128.549,0,0,1,446.7,226.782a27.608,27.608,0,0,0,4.523-5.136c2.4-3.621,1.49-5.731-2.787-6.435-4.006-.659-6.744-2.262-8.06-6.5a31.26,31.26,0,0,0-5.79-10.779c-.571-.682-1-2.229-2.473-1.05-1.271,1.016-.5,1.863.182,2.732a13.44,13.44,0,0,1,2.821,7.326c.292,3.441-1.4,5.275-4.8,4.909-2.139-.23-2.385.478-2.218,2.346.384,4.317.972,8.68.7,12.976-.482,7.687.787,15.769-4.118,22.676a4.008,4.008,0,0,0-.242.685C424.823,250.75,424.894,250.444,424.957,250.158ZM466.2,128.521c-1.772,1.108-3.812-1.726-5.639.538-1.78,2.206-3.666,1.77-5.828,0-6.375-5.218-14.106-7.51-22.047-8.025-7.134-.463-13.887,1.994-19.775,6.314l-1.166-.523c2.613-2.177.411-3.8-.789-5.3-1.312-1.641-2.114-4.955-3.972-4.615-2.489.457-3.572,3.609-4.925,5.874-.6,1.008-.557,1.964.522,2.433,2.758,1.2,5,3.771,8.393,3.135.331,1.449-.813,2.058-1.4,2.884a27.923,27.923,0,0,0-4.208,9.884c-4.055,16.886,1.019,31.893,9.323,46.24,1.059,1.829,2.219,4.343,4.357,4.569,6.907.727,6.945,6.824,9.681,11.154-2.12-1.7-3.2-1.1-4.163.914-1.5,3.121.75,5.793,5.336,6.282,2.768.3,3.8-1.006,3.488-3.588-.446-3.655-2.479-6.483-4.958-9.018a10.947,10.947,0,0,1-3.176-5.953c-.261-1.589-.194-3.22,1.088-4.373a3.421,3.421,0,0,1,4.4.018c4.9,3.578,9.588,1.81,14.289-.247,8.613-3.768,14.348-10.868,20.3-17.7s8.829-15.411,13.363-23.047c.795-1.337-.282-2.016-.828-2.818a81.5,81.5,0,0,0-10.613-12.758c-.531-.515-2.348-.808-1.078-2.3,1.273-.662,1.672.6,2.277,1.148,3.4,3.092,6.813,6.342,8.914,10.371,2.522,4.837,6.7,4.813,11.068,5.424-.094-.512-.058-.823-.192-.945-.34-.308-.77-.771-1.142-.752-4.05.2-6.26-2.452-8.493-5.215-1.739-2.152-3.669-4.148-5.491-6.235-2.819-3.228-7.217-5.847-4.35-11.292.328-.622-.119-1.189-.714-1.435-.207-.086-.65.13-.849.338C465.847,121.311,465.214,126.988,466.2,128.521Zm96.171,58.317c-1.629,2.531-2.195,5.223-2.894,7.884-3.627,13.8-5,27.984-7.165,42.027-4.085,26.434-10.382,52.242-21.347,76.732a186.9,186.9,0,0,0-9.2,25.464,21.09,21.09,0,0,0,1.039,15.129,5.39,5.39,0,0,0,3.848,3.364,129.017,129.017,0,0,0,26.107,3.449c2.308.074,2.915-.438,2.331-2.823-3.757-15.333-4.013-30.977-3.792-46.638.084-5.911.5-11.818.765-17.726-7.124,15.165-10.309,31.519-14.923,47.423,1.873-15.619,6.175-30.611,11.123-45.425,4.234-12.68,8.648-25.3,13.02-37.933,1.439-4.158,1.769-8.17-.672-12.135-.576-.936-1.392-2.021-.908-3.344,1.35.008,1.217,1.78,2.407,1.936,8.214-14.348,15.906-29.255,34.428-32.8-6.826-13.7-15.425-22.716-28.422-30.228-1.791-1.035-2-.157-2.367,1.148a90.755,90.755,0,0,0-2.646,15.293c-.546,5.285-.519,10.59-.758,15.891C560.6,204.605,561.407,195.7,562.367,186.838Zm1.6,68.789c-.669,2.389-1.159,4.713-1.962,6.923-9.981,27.452-10.8,55.7-7.231,84.292.76,6.09,5.507,9.734,9.674,13.581a3,3,0,0,0,2.079.291c6.36-.712,12.659-1.8,18.928-3.082,2.663-.545,3.456-1.656,2.532-4.486-3.287-10.072-6.249-20.25-9.437-30.356-5.771-18.3-9.249-36.88-7.579-56.184a16,16,0,0,0-.2-6.45c-1.237,1.182-1.663,3.062-3.036,2.819-1.434-.254-1.11-2.2-1.706-3.33C565.372,258.393,565.5,256.766,563.971,255.627Zm-7.1-59.883a163.275,163.275,0,0,0-9.488,26.53c-6.923,25.337-13.611,50.738-20.391,76.114-2.436,9.118-6.47,17.454-13.337,23.991-4.275,4.07-8.133,7.889-9.623,14.047-1.823,7.531.321,13.446,7.265,16.121,1.438.554,3,.8,4.428,1.367,1.614.637,1.768-.112,1.874-1.456a98.669,98.669,0,0,1,7.384-29.333c5.426-13.392,11.172-26.623,15.432-40.493C549.125,254.252,551.412,224.688,556.867,195.744Zm-11.156,313.68c1.018-.831.753-1.884.912-2.779,1.6-8.946,1.6-18.008,1.741-27.043q.382-24.243.407-48.492c.011-16.507.873-33.035-1.1-49.507a9.692,9.692,0,0,0-2.357-5.521c-2.34-2.642-5.051-2.108-6.276,1.157a14.188,14.188,0,0,0-.792,4.978c-.128,27.252-1.766,54.5-.534,81.753C538.407,479.417,540.02,494.72,545.711,509.424Zm-14.923-5.776c1.724-5.278,4.5-9.913,4.534-15.581q.216-37.626.711-75.251c.124-10.611.437-21.221.608-31.832.063-3.89-2.595-7.87-5.061-7.818-2.405.05-4.244,3.13-4.377,7.332-.357,11.327-.613,22.658-1.1,33.979-.421,9.752-1.489,19.49-1.576,29.24-.106,11.809.766,23.625.745,35.438C525.256,487.627,524.7,496.051,530.788,503.648Zm-94.237-311.73a49.971,49.971,0,0,1,10.825,15.289c.768,1.571,1.937,1.557,3.23,1.656a145.857,145.857,0,0,1,17.936,2.015c5.361,1.088,10.74,2.091,16.772,3.259a90.171,90.171,0,0,1-10.854-24.229c-2.014-7.347-2.357-7.478-10.025-5.245a38.622,38.622,0,0,0-4.318,1.807c-.71.3-1.4,1.046-2.594-.417,5.5-2.569,9.3-7.081,13.614-11.006a28.5,28.5,0,0,1,7.041-5c5.528-2.572,9.1-1.493,11.99,3.858a11.621,11.621,0,0,0,6.606,5.74c.383-3.955-2.462-5.723-4.724-7.742-3.755-3.353-5.2-7.773-3.325-12.055,1.668-3.808.066-6.229-1.3-9.122-1-2.122-3.063-2.759-5.012-3.123-1.987-.372-2.91,1.462-3.67,2.936-.877,1.7-1.3,3.646-2.248,5.3C467.218,171.981,456.316,186.377,436.551,191.918Zm90.021,97.449a2.718,2.718,0,0,0,1.577-2.356q6.387-23.925,12.7-47.871c5.049-19.248,10.144-38.471,20.124-55.949a7.944,7.944,0,0,0,1.465-4.523,15.133,15.133,0,0,1-8.714-.673c-5.148-1.757-6.4-1.129-8.715,4.062-8.016,18-12.392,36.959-14.947,56.405-1.823,13.882-1.929,27.881-2.818,41.826C527.055,283.2,525.752,286.058,526.572,289.367Zm24.459,107.559c-.607.415-.412,1.051-.415,1.609q-.226,37.995-.428,75.99a57.356,57.356,0,0,0,.228,7.938c1.668,12.318,5.185,24.275,7.309,36.508.064.366.194.95,1.025.766,2.122-5.7,4.123-11.474,3.822-17.772-.339-7.106-.592-14.217-1-21.319-1.24-21.782-4.064-43.461-4.533-65.284C556.894,408.435,555.809,402.179,551.031,396.926ZM514.15,485.655c1.218-.212,1.136-1.093,1.4-1.7,3.593-8.254,5.127-16.92,5.874-25.878,2.192-26.313,3.832-52.644,4.236-79.051a10.848,10.848,0,0,0-2.233-6.3,3.032,3.032,0,0,0-3.44-1.417,2.929,2.929,0,0,0-2.333,2.843,74.2,74.2,0,0,0-.759,7.9,204.691,204.691,0,0,1-1.105,24.911c-2.358,18.783-4.741,37.547-3.088,56.56C513.341,470.871,512.888,478.309,514.15,485.655Zm60.342-207.522a92.06,92.06,0,0,0,1.392,27.546c2.788,13.713,8.117,26.705,11.734,40.185a13.567,13.567,0,0,0,5.08,7.622c1.838,1.378,1.965,2.323.67,4.372-3.116,4.929-3.42,12.32-1.164,16.2.641-.373.562-1.042.469-1.571a12.055,12.055,0,0,1,2.446-10.169c.478-.595.393-1.611.7-2.378,1.57-3.858-.707-8.074.734-11.722,2.1-5.321,4.331-10.462,3.146-16.352,4.268-6.026,1.134-10.517-3.058-14.795a3.966,3.966,0,0,1-.383-.611C588.153,304.218,580.466,291.74,574.492,278.133Zm-51.063-91.19-1.057-.159c-2.819,6.49-6.314,12.8-4.493,20.434.281,1.177,1.168,2.77-.234,3.615-1.306.786-1.406-1.775-2.863-1.552-.732,2.862-2,5.714-2.105,8.611-.378,10.107-.817,20.224-.105,30.349,1.494,21.269,3.8,42.546.112,63.827a5.183,5.183,0,0,0,1.27,4.351c.678.833,1.369.931,2.041.026,2.365-3.185,5-6.26,5.593-10.365a137.933,137.933,0,0,0,.768-28.871,564.056,564.056,0,0,1-.319-67.961C522.445,201.81,522.962,194.378,523.429,186.943ZM504.916,470.776c1.968-6.17,3.989-11.907,4.313-17.833.777-14.215,2.9-28.267,4.416-42.39a201.823,201.823,0,0,0,1.23-34.994c-.267-4.042-1.837-7.341-6.028-9.012-2.482-.99-3.27-.631-2.856,2.068,1.56,10.179-.2,20.3-.752,30.425-.753,13.824-3.066,27.525-3.646,41.373C501.171,450.493,500.9,460.565,504.916,470.776Zm4.677-180.806a147.5,147.5,0,0,0-1.6-22.451c-1.807-14.064-3.281-28.147-3.884-42.318-.044-1.039.564-2.7-1.129-2.99-1.822-.307-1.936,1.262-2.263,2.574-2.675,10.718-3.2,21.666-3.455,32.632-.3,13.005.928,26.079-1,39-.791,5.313-.79,9.345,5.161,11.118a1.954,1.954,0,0,1,.851.657c1.446,1.792,2.232,1.154,3.423-.491C509.8,302.028,510.315,295.7,509.593,289.97Zm36.258-114c-5.019-.325-9.713.25-14.351-.492-5.085-.814-5.079-.755-5.51,4.16-2.5,28.492-3.731,57.022-2.434,85.62.229,5.045.674,10.081,1.019,15.121l1.116.056C526.275,244.523,529.612,209.145,545.851,175.974ZM570.932,439.6c-2.32,3.858-4.84,6.317-8.6,7.109-1.121.236-1.112.943-1.011,1.892,2.122,20,4.6,39.923,12.366,58.729.343.831.4,1.925,1.776,2.367,1.037-9.581,1.291-19.181,3.463-28.538a6.165,6.165,0,0,0-.337-2.84C575.156,465.887,573.144,453.176,570.932,439.6Zm32.2-118.467a8.624,8.624,0,0,1-.775-6.692c.956-2.721.216-4.852-.882-7.188a48.314,48.314,0,0,1-3.273-8.027c-2.946-11.168-8.716-20.7-16.1-29.45-3.055-3.623-5.53-7.735-8.779-12.35-.267,4.083-.621,7.2.221,10.392,3.141,11.9,8.674,22.721,15.014,33.141C592.845,308,596.768,315.333,603.131,321.129ZM590.064,492.318c0-8.176-.062-15.731.033-23.283a28.05,28.05,0,0,0-1.108-7.823c-2.5-9.176-4.979-18.361-7.252-27.595-.513-2.081-.887-3.8-3.407-3.656-2.208.128-4.142.49-4.885,3.283a12.949,12.949,0,0,0-.056,7.363c1.359,4.618,2.516,9.307,3.514,14.018C579.627,467.49,582.749,480.205,590.064,492.318ZM424.308,254.657c-6.686,7.841-4.211,22.5,4.105,27.073a15.129,15.129,0,0,0,4.032,1.543c14.015,3.02,30.792-9.7,31.847-24.057a12.417,12.417,0,0,0-6.37-12.135c-4.274-2.579-8.9-1.949-12.96.863a21.367,21.367,0,0,0-8.553,12.574c-.8,3.052-1.04,6.227,2.1,8.066,3.275,1.917,6.025.065,8.4-2.164,1.388-1.3,2.906-2.7,2.409-4.923a1.949,1.949,0,0,0-2.158-1.571c-2.34.248-3.474,1.962-4.282,3.926-.483,1.177-.565,2.879-2.472,2.26-1.547-.5-1.6-1.944-1.408-3.325a18.725,18.725,0,0,1,5.292-10.452c3.559-3.747,7.94-4.847,11.717-2.933,4.155,2.105,6.144,6.617,4.839,11.709-2.6,10.152-9.42,16.511-19.237,19.139-10.845,2.9-18.011-2.922-18.319-14.1A36.179,36.179,0,0,1,424.308,254.657Zm223.77,193.294c-8.133-21.342-21.44-40.039-30.466-61-1.105,3.433-3.759,6.724-2.219,10.031,5.379,11.553,8.393,24.268,17.466,34.044C637.981,436.539,642.266,442.839,648.078,447.951ZM568.449,259.967c1.446-2.114,2.8-4.053,4.109-6.02.532-.8,1-1.643,1.457-2.487,7.237-13.338,15.308-25.821,31.917-30.122-2.4-1.637-2.755-4.674-5.887-3.833-7.815,2.1-14.868,5.492-20.328,11.688-4.646,5.273-7.933,11.418-11.575,17.366C565.337,251.14,565.45,255.218,568.449,259.967ZM496.629,216.1c1.013-.142,2.341.534,2.963-.556.548-.962-.587-1.712-1.086-2.469A151.392,151.392,0,0,1,483.568,183.1c-1.448-3.827-2.444-3.516-5.468-1.9-2.6,1.391-3.379,2.412-2.625,5.457a98.032,98.032,0,0,0,11.255,26.451,3.912,3.912,0,0,0,3.085,2.14C492.085,215.524,494.353,215.815,496.629,216.1Zm17.082,342.426c3.236,4.536,2.81,8.389.284,12.561-3.541,5.847-5.193,12.447-5.823,19.215-1.326,14.236-1.32,28.688-7.3,42.113-.032.072.092.213.238.521a16.849,16.849,0,0,0,5.581-8.489c2.779-8.593,3.091-17.532,3.617-26.414.518-8.749,1.869-17.241,5.9-25.13,2.442-4.78,5.5-9.075,10.1-12.028,1.653-1.061,3.551-2,5.294-.313,2.079,2.008,1.552,4.509.428,6.7-.784,1.529-.758,4.325-3.952,3.386-1.555-.458-2.8.419-3.483,1.906a2.228,2.228,0,0,0,.334,2.686c1.25,1.233,2.686.878,4,.14a12.765,12.765,0,0,0,6.809-11.182c.262-6.2-4.762-9.227-10.2-6.262a26.756,26.756,0,0,0-6.654,5.541C518,560.984,517.412,558.643,513.711,558.524ZM580.482,411.06c1.832-2.4,4.079-4.147,4.667-6.337,2.3-8.568,6.309-16.932,3.568-26.289-.8-2.717-1.786-4.419-4.729-4.218-3.938.268-8.416,3.323-8.207,5.831A300.25,300.25,0,0,0,580.482,411.06Zm-9.791,12.076c2.388-2.506,4.3-4.481,6.172-6.494a3.452,3.452,0,0,0,1.106-3.213C576.153,403,574.8,392.5,573.745,381.964a9.762,9.762,0,0,0-2.256-5.229c-.869-1.038-3.036-2.563-3.612-.313-.788,3.082-2.282,6.2-1.763,9.5C568.018,398.031,569.38,410.205,570.691,423.136Zm-10.2,17.279c1.459-2.7.839-5.864,3.087-7.585,5.387-4.123,6.308-9.487,4.813-15.679a28.537,28.537,0,0,1-.336-3.235c-.628-5.142-1.247-10.286-1.928-15.421-.105-.792-.281-1.757-1.229-2-.286-.075-.837.374-1.083.715-3.1,4.289-6.356,8.039-5.476,14.394C559.63,420.944,559.131,430.521,560.49,440.415ZM511.858,296.239l.528-.05c.056-.709.109-1.419.168-2.129,1.273-15.236-1.24-30.321-1.815-45.483-.428-11.306-.889-22.608.942-33.855,1.551-9.525,1.126-11.2-3.778-15.62a54.858,54.858,0,0,0-1.484,13.28c.045,2.4,1.971,3.781,3.1,5.588.7,1.118.853,2.215-.633,2.49-3.216.594-3,2.873-2.872,5.2.16,2.887.277,5.777.473,8.661.557,8.187.979,16.388,1.78,24.552.506,5.154,1.993,10.186,2.278,15.4C510.946,281.6,511.417,288.917,511.858,296.239Zm141.39,124.533c-10.47-19.893-19.793-40.361-29.406-61.606-1.158,4.175-3.165,7.192-1.426,10.573,3.681,7.152,7.358,14.308,11.178,21.386,3.829,7.1,8.065,13.952,12.447,20.723C648.1,415.026,649.387,418.731,653.248,420.772ZM433.3,424.451c5.55-13.514,13.392-25.209,21.037-37.019a5.02,5.02,0,0,0,.769-4.486,29.561,29.561,0,0,0-8.567-12.739c-1.564-1.364-3.1-1.333-4.292.458a18.925,18.925,0,0,0-3.353,8.672c-.134,1.362.19,3.236,1.819,2.836,1.953-.479,4.377-.758,5.5-2.881.307-.58-.542-1.393-1.22-1.555a13.229,13.229,0,0,0-2.825-.046c.864-1.942.882-4.717,2.989-5.036,1.874-.283,2.793,2.315,4,3.755.605.722.85,1.736,1.413,2.5,2.719,3.7,1.992,6.809-.775,10.356-6.543,8.385-11.583,17.744-16.45,27.179C432.086,418.889,431.475,421.334,433.3,424.451ZM465,409.571a11.84,11.84,0,0,0-1.465,1.077c-10.5,11.354-18.234,24.46-24.351,38.582-1.244,2.873.017,5.381.942,7.966,5.722-14.53,13.859-27.382,23.544-39.315C465.581,415.532,465.83,412.909,465,409.571Zm30.643,57.044c1.748-4.467,4.115-8.859,4.03-13.68-.309-17.548,2.383-34.859,3.7-52.277.615-8.14,1.92-16.261.927-24.471a7.97,7.97,0,0,0-.425,2.079c-2.163,18.787-3.311,37.671-6.918,56.32C494.943,445.026,493.432,455.768,495.647,466.615Zm-59.859-27.856c1.009-2.45,1.724-4.205,2.454-5.953,5.746-13.758,14.967-25.153,24.714-36.17,1.722-1.946,2.244-3.762.861-6.217a15.914,15.914,0,0,0-1.554,1.207,148.576,148.576,0,0,0-27.184,38.856C433.794,433.084,434.212,435.545,435.788,438.759Zm52.043-219.018c-.4-2.761-1.827-3.578-3.923-4.02-10.725-2.262-21.442-4.538-32.454-4.861-2.9-.085-4.979-.792-6.318-3.949-2.714-6.405-7.29-11.569-12.444-16.207a7.594,7.594,0,0,0-4.1-2.126c-1.309-.169-1.687.725-1.627,1.807.059,1.054.731,1.09,1.494.669,1.414-.781,2.144.2,3.083,1.014,5.471,4.723,8.5,10.966,11.1,17.5.468,1.173.678,2.485,2.31,2.948,4.4,1.249,8.855,2.72,13.383,2.716a84.189,84.189,0,0,1,18.55,2.176C480.4,218.191,483.925,218.91,487.831,219.741Zm-44.6,254.6c.282-.264.544-.393.613-.59,4.6-13.234,11.684-25.048,20.355-35.982,1.869-2.356,1.566-5,.433-8.114a133,133,0,0,0-22.221,36.626C441.338,468.933,442.044,471.69,443.231,474.336Zm185.154-7.543.89-.19c-1.282-6.008-2.589-12.011-3.841-18.025-2.762-13.265-2.956-27.2-10.36-39.249a28.848,28.848,0,0,1-1.39-2.816c-.162,2.011.843,4.2,1.6,6.436,1.075,3.178,2.633,6.257,3.23,9.517,1.056,5.767,1.708,11.612,2.216,17.474.242,2.794.048,5.227-1.4,7.572-.557.9-1.358,1.689-.621,2.922C621.957,455.873,625.163,461.338,628.385,466.793ZM614.55,288.974c3.025-2.077,6.488-1.655,8.672.991,2.439,2.955,2.313,5.572-.557,8.239-1.582,1.47-3.311,2.785-5.015,4.116-3.791,2.961-7.631,5.86-11.4,8.843-2.122,1.677-2.7,3.879-2.043,7.14a45.59,45.59,0,0,1,7.769-7.822q6.921-6.057,13.8-12.163c1.931-1.722,2.942-3.865,2.127-6.465-1.506-4.8-8.46-7.941-13.124-6.05a5.889,5.889,0,0,0-2.744,2.247,2.959,2.959,0,0,0,.546,3.942c1.446,1.522,3.324,1.058,5.083.853a1.2,1.2,0,0,0,1.127-1.544c-.668-1.909-2.478-1.527-3.968-1.755C614.757,289.537,614.725,289.36,614.55,288.974ZM484.091,176.555a1.836,1.836,0,0,0-.437,2c1.749,4.343,3.383,8.738,5.294,13.009a135.889,135.889,0,0,0,12.442,22.77c1.7,2.427,1.033,3.266-1.752,3.39a48.782,48.782,0,0,1-7.908-.488c-.738-.087-1.882-.713-2,.627-.084.992.127,2.164,1.566,2.348,4.793.613,9.559.951,14.323-.356,2.015-.553,2.225-1.268,1-2.937-5.842-8-10.38-16.766-14.918-25.53C489.191,186.524,486.7,181.643,484.091,176.555ZM550.95,374.73c-2.522-.2-2.137,1.357-2,2.643a47.665,47.665,0,0,0,6.168,18.752c.524.908.725,2.476,1.879,2.435,1.222-.043,1.807-1.5,2.365-2.537a59.447,59.447,0,0,0,5.988-17.351c.2-1.043,1.75-2.928-1.028-3.279-2.267-.286-3.238.48-3.352,2.893a67.006,67.006,0,0,1-2.029,13.2c-.224.887-.343,2.083-1.64,2.045-1.266-.038-1.393-1.232-1.568-2.117-.932-4.72-2.416-9.36-2.392-14.227C553.356,375.208,552.344,374.682,550.95,374.73Zm81.3-55.329c-12.885,6.288-24.227,13.9-32.562,25.383a9.194,9.194,0,0,0-1.581,6.479,70.6,70.6,0,0,1,14.678-15.408,106.877,106.877,0,0,1,17.528-11.436C632.263,323.439,632.476,321.808,632.254,319.4Zm-37.9,50.728c8.41-12.252,19.193-21.117,31.733-27.941,2.121-1.153,3.358-2.582,2.789-5.459a95.6,95.6,0,0,0-12.453,7.468c-7.918,5.65-15.8,11.349-20.511,20.269C595.07,366.055,593.953,367.514,594.35,370.129Zm7-35.185a8.366,8.366,0,0,0,1.269-1.033c7.469-10.844,17.341-18.949,28.774-25.281a15.276,15.276,0,0,0,1.852-1.114,2.453,2.453,0,0,0,.809-3.207c-.7-1.17-1.7-.024-2.451.374a87.922,87.922,0,0,0-26.986,21.442A12.951,12.951,0,0,0,601.351,334.944Zm13.127,64.328c-1.219,2.253-.348,3.542.221,4.818,2.4,5.392,4.878,10.754,7.3,16.14.487,1.084,1.234,2.243,1.193,3.342a23.6,23.6,0,0,0,7.248,18.526c1.267,1.241,1.2,3.613,4.218,4.375C628.869,430.12,620.541,415.574,614.478,399.272Zm-190.906-280.7c-.375-2.374-.688-4.384-1.01-6.392a1.659,1.659,0,0,0-2.279-1.548,39.227,39.227,0,0,0-7.273,1.961c-1.33.57-2.115,1.123-.931,2.576,1.59,1.951,3.133,3.941,4.656,5.944,1.722,2.266,3.191.018,4.755-.251C422.907,120.622,424.049,120.022,423.572,118.576Zm99.173,58c-1.815,2.017-4.22,3.089-6.375,4.535-2.464,1.655-4.987,3.823-3.96,7.2.808,2.66,2.529,5.042,4.1,8.035C518.83,189.5,522.289,183.644,522.745,176.573ZM464.76,523.7c-1.929,6.7-.33,12.959,1.27,19.169.475,1.843,2.459,1.459,3.71,1.081,1.459-.44.342-1.714.04-2.389-1.617-3.614-1.049-7.6-2.064-11.29C467.1,528.043,467.3,525.435,464.76,523.7Zm-25-410.961c-1.857,1.325-.51,3.718-1.028,5.586-.286,1.033,4.88,3.9,6.663,3.342,2.474-.77,1.8-3.556,2.566-5.417C448.279,115.468,441.963,112.588,439.756,112.739ZM458.4,122.848c.037-2.531-2.541-5.437-5.08-5.146-2.857.326-2.128,3.465-3.017,5.327-.369.772,5,5.234,5.96,4.768C458.327,126.8,457.959,124.479,458.4,122.848Zm-24.354-7.887c1.558-4.912-2.381-3.851-4.735-4.4-.892-.208-2.734-.531-2.124,1.194.893,2.524-.966,6.4,2.718,7.473C433.142,120.169,434.675,118.237,434.047,114.961ZM596.459,290.092q3.336,8.328,6.67,16.655C604.458,299.842,603.186,293.96,596.459,290.092Zm-5.906,171.14c1.008-10-4.045-17.252-6.121-25.309A250.672,250.672,0,0,0,590.553,461.232Zm-191.3-327.886c-.113,2.693.923,3.627,3.812,3.805s2.25-2.653,3.332-4c.371-.462-4.655-4.122-5.635-3.827C398.453,130.019,400.154,132.314,399.255,133.346Zm59.464-5.554c4.378-1.7,5.935-4.667,6.449-8.424C458.773,118.828,460.308,124.107,458.719,127.792Zm-57.311,23.925.655-.071c.4-2.778.732-5.569,1.231-8.329.39-2.154-1.265-2.015-2.419-2.218-2-.353-1.34,1.256-1.2,2.1C400.165,146.055,400.818,148.881,401.408,151.717Zm108.339,164.61V304.571C505.364,311.127,505.364,311.127,509.747,316.327ZM629.591,467.985l-.242-.591c-.089.076-.267.176-.254.224a4.524,4.524,0,0,0,.265.634C629.437,468.163,629.513,468.074,629.591,467.985Z" style="fill: #32312f"/>
    <path d="M573.646,538.84q0,.811,0,1.623a2.132,2.132,0,0,0,.374,2.184.514.514,0,0,0,.1.649,43.339,43.339,0,0,0,1.127,10.238l.333,3.514q.669,7.971,1.336,15.943c-1.7,28.935,1.9,57.474,6.352,85.957,1.226,7.834,1.444,15.8,2.979,23.6.492,2.5,1.039,5.062,2.583,7.079,5.469,7.138,6.539,15.644,7.763,24.105.6,4.181-.628,8.1-2.038,11.989-.63,1.739-1.916,2.337-3.529,2.664a23.374,23.374,0,0,1-12.506-.442c-8.775-3.065-16.7-.388-24.235,3.685a88.237,88.237,0,0,1-43.218,10.854c-8.436-.056-16.867-.527-25.3.038-1.431.1-2.944.315-4.277-.366-1.036-.53-1.974-1.345-.308-2.321,10.175-5.957,19.507-13.228,29.805-19,5.672-3.18,11.552-6.25,16.105-10.93,6.455-6.634,12.484-13.689,18.585-20.66,5.494-6.277,5.039-14.12,2.661-20.8-2.153-6.051-2.515-12.185-3.981-18.207-3.678-15.112-5.508-30.576-8.588-45.805a10.107,10.107,0,0,0-1.571-3.946c-.447-3,1.9-4.614,3.277-6.744,11.125-17.277,24.464-33.132,33.334-51.868C571.363,540.7,571.439,538.642,573.646,538.84ZM554.238,611.2l-.659-.757a15.22,15.22,0,0,1,4.057-7.124c3.016-3.144,6.446-2.6,8.437,1.282,1.521,2.969,1.233,6.092.476,9.183-1.56,6.375-4.5,12.175-7.648,17.875-3.783,6.842-8.048,13.432-10.677,20.869a12.907,12.907,0,0,0,.022,9.833c.263-.235.56-.369.589-.546,2.2-13.758,11.044-24.441,16.906-36.5.764-1.572,1.618-3.345,4.017-2.908.8.146,2.092,1.11,2.314-.458.135-.945-.969-1.763-1.963-1.783-2.5-.052-1.834-1.32-1.41-2.848,1.064-3.83,2.045-7.688,1-11.728-1.429-5.542-6.639-8.685-11.127-6.649-4.848,2.2-10.038,12.317-8.91,17.484.442,2.024,1.446,3.647,3.844,3.552,2.1-.084,4.635-3.294,4.592-5.805C558.058,611.634,556.546,610.864,554.238,611.2Z" style="fill: #32312f"/>
    <path d="M406.836,63.725a2.348,2.348,0,0,0,2.521.881c26.375-4.081,47.423,6.263,65.709,24.149,1.444,1.412,1.438,1.417,4.112,1.448-3.373,6.157-6.757,12.247-10.047,18.388a34.753,34.753,0,0,0-2.626,5.941c-.71,2.269-2.04,3.369-4.349,3.438-.679-1.069.048-1.909.355-2.765A93.985,93.985,0,0,1,472.8,94.545c.913-1.365,1.589-2.455.057-4.031C453.48,70.573,423.576,59.78,395.325,70.631c-1.584.608-2.673,1.968-4.357,2.233.218-2.391,1.994-3.435,3.889-4.17,3.563-1.384,7.558-1.815,10.283-4.983C405.378,63.434,406.256,63.707,406.836,63.725Z" style="fill: #e5dcce"/>
    <path d="M573.646,538.84c-2.207-.2-2.283,1.86-2.838,3.031-8.87,18.736-22.209,34.591-33.334,51.868-1.372,2.13-3.724,3.744-3.277,6.744l-4.579-.239c7.944-8.625,13.541-18.954,20.529-28.275,7.969-10.63,14.509-22.145,20.706-33.867a38.019,38.019,0,0,1,2.407-3.557C573.005,536.011,574.545,537.316,573.646,538.84Z" style="fill: #e5dcce"/>
    <path d="M391,72.838a66.811,66.811,0,0,0-18.11,26.739,1.726,1.726,0,0,1-.689-1.55c.12-6.338,2.723-11.239,7.545-15.479,2.157-1.9,3.633-4.88,5.362-7.4C386.642,72.906,388.4,71.992,391,72.838Z" style="fill: #e5dcce"/>
    <path d="M576.918,572.991q-.668-7.972-1.336-15.943c2.375.858,1.632,3.247,1.642,4.642C577.253,565.442,579.5,569.324,576.918,572.991Z" style="fill: #e5dcce"/>
    <path d="M573.248,534.558l5.043-9.386a7.816,7.816,0,0,1,1.132.641C578.112,529.248,577.209,533,573.248,534.558Z" style="fill: #e5dcce"/>
    <path d="M575.249,553.534a43.339,43.339,0,0,1-1.127-10.238C576.384,545.755,576.881,550.269,575.249,553.534Z" style="fill: #e5dcce"/>
    <path d="M523.993,606.964a32,32,0,0,1,5.639-6.733A6.409,6.409,0,0,1,523.993,606.964Z" style="fill: #e5dcce"/>
    <path d="M574.018,542.647a2.132,2.132,0,0,1-.374-2.184Q573.832,541.555,574.018,542.647Z" style="fill: #e5dcce"/>
    <path d="M481.288,539.391l-.559-1.149Z" style="fill: #e5dcce"/>
    <path d="M562.367,186.838c-.96,8.864-1.766,17.767-.022,26.685.239-5.3.212-10.606.758-15.891a90.755,90.755,0,0,1,2.646-15.293c.366-1.305.576-2.183,2.367-1.148,13,7.512,21.6,16.528,28.422,30.228-18.522,3.548-26.214,18.455-34.428,32.8-1.19-.156-1.057-1.928-2.407-1.936-.484,1.323.332,2.408.908,3.344,2.441,3.965,2.111,7.977.672,12.135-4.372,12.633-8.786,25.253-13.02,37.933-4.948,14.814-9.25,29.806-11.123,45.425,4.614-15.9,7.8-32.258,14.923-47.423-.265,5.908-.681,11.815-.765,17.726-.221,15.661.035,31.305,3.792,46.638.584,2.385-.023,2.9-2.331,2.823a129.017,129.017,0,0,1-26.107-3.449,5.39,5.39,0,0,1-3.848-3.364,21.09,21.09,0,0,1-1.039-15.129,186.9,186.9,0,0,1,9.2-25.464c10.965-24.49,17.262-50.3,21.347-76.732,2.17-14.043,3.538-28.228,7.165-42.027C560.172,192.061,560.738,189.369,562.367,186.838Z" style="fill: #e5dcce"/>
    <path d="M563.971,255.627c1.524,1.139,1.4,2.766,2.06,4.018.6,1.131.272,3.076,1.706,3.33,1.373.243,1.8-1.637,3.036-2.819a16,16,0,0,1,.2,6.45c-1.67,19.3,1.808,37.888,7.579,56.184,3.188,10.106,6.15,20.284,9.437,30.356.924,2.83.131,3.941-2.532,4.486-6.269,1.283-12.568,2.37-18.928,3.082a3,3,0,0,1-2.079-.291c-4.167-3.847-8.914-7.491-9.674-13.581-3.568-28.593-2.75-56.84,7.231-84.292C562.812,260.34,563.3,258.016,563.971,255.627Z" style="fill: #ebe0cf"/>
    <path d="M556.867,195.744c-5.455,28.944-7.742,58.508-16.456,86.888-4.26,13.87-10.006,27.1-15.432,40.493a98.669,98.669,0,0,0-7.384,29.333c-.106,1.344-.26,2.093-1.874,1.456-1.432-.566-2.99-.813-4.428-1.367-6.944-2.675-9.088-8.59-7.265-16.121,1.49-6.158,5.348-9.977,9.623-14.047,6.867-6.537,10.9-14.873,13.337-23.991,6.78-25.376,13.468-50.777,20.391-76.114A163.275,163.275,0,0,1,556.867,195.744Z" style="fill: #e5dcce"/>
    <path d="M545.711,509.424c-5.691-14.7-7.3-30.007-8-45.454-1.232-27.258.406-54.5.534-81.753a14.188,14.188,0,0,1,.792-4.978c1.225-3.265,3.936-3.8,6.276-1.157a9.692,9.692,0,0,1,2.357,5.521c1.977,16.472,1.115,33,1.1,49.507q-.018,24.246-.407,48.492c-.142,9.035-.143,18.1-1.741,27.043C546.464,507.54,546.729,508.593,545.711,509.424Z" style="fill: #e5dcce"/>
    <path d="M530.788,503.648c-6.088-7.6-5.532-16.021-5.517-24.493.021-11.813-.851-23.629-.745-35.438.087-9.75,1.155-19.488,1.576-29.24.488-11.321.744-22.652,1.1-33.979.133-4.2,1.972-7.282,4.377-7.332,2.466-.052,5.124,3.928,5.061,7.818-.171,10.611-.484,21.221-.608,31.832q-.44,37.625-.711,75.251C535.29,493.735,532.512,498.37,530.788,503.648Z" style="fill: #e5dcce"/>
    <path d="M436.551,191.918c19.765-5.541,30.667-19.937,39.942-36.084.949-1.651,1.371-3.6,2.248-5.3.76-1.474,1.683-3.308,3.67-2.936,1.949.364,4.009,1,5.012,3.123,1.368,2.893,2.97,5.314,1.3,9.122-1.875,4.282-.43,8.7,3.325,12.055,2.262,2.019,5.107,3.787,4.724,7.742a11.621,11.621,0,0,1-6.606-5.74c-2.89-5.351-6.462-6.43-11.99-3.858a28.5,28.5,0,0,0-7.041,5c-4.311,3.925-8.109,8.437-13.614,11.006,1.2,1.463,1.884.721,2.594.417a38.622,38.622,0,0,1,4.318-1.807c7.668-2.233,8.011-2.1,10.025,5.245a90.171,90.171,0,0,0,10.854,24.229c-6.032-1.168-11.411-2.171-16.772-3.259a145.857,145.857,0,0,0-17.936-2.015c-1.293-.1-2.462-.085-3.23-1.656A49.971,49.971,0,0,0,436.551,191.918Zm50.613-25.835c-1.008-4.662-2.9-8.54-1.622-12.618.7-2.222-.217-2.975-1.959-3.779-2.089-.964-2.9.338-3.561,1.8-1.41,3.122-2.7,6.3-4.071,9.537C482.153,160.752,482.153,160.752,487.164,166.083Z" style="fill: #e5dcce"/>
    <path d="M526.572,289.367c-.82-3.309.483-6.164.669-9.079.889-13.945,1-27.944,2.818-41.826,2.555-19.446,6.931-38.4,14.947-56.4,2.311-5.191,3.567-5.819,8.715-4.062a15.133,15.133,0,0,0,8.714.673,7.944,7.944,0,0,1-1.465,4.523c-9.98,17.478-15.075,36.7-20.124,55.949q-6.282,23.954-12.7,47.871A2.718,2.718,0,0,1,526.572,289.367Z" style="fill: #e5dcce"/>
    <path d="M551.031,396.926c4.778,5.253,5.863,11.509,6.011,18.436.469,21.823,3.293,43.5,4.533,65.284.4,7.1.658,14.213,1,21.319.3,6.3-1.7,12.075-3.822,17.772-.831.184-.961-.4-1.025-.766-2.124-12.233-5.641-24.19-7.309-36.508a57.356,57.356,0,0,1-.228-7.938q.191-38,.428-75.99C550.619,397.977,550.424,397.341,551.031,396.926Z" style="fill: #e5dcce"/>
    <path d="M514.15,485.655c-1.262-7.346-.809-14.784-1.448-22.135-1.653-19.013.73-37.777,3.088-56.56a204.691,204.691,0,0,0,1.105-24.911,74.2,74.2,0,0,1,.759-7.9,2.929,2.929,0,0,1,2.333-2.843,3.032,3.032,0,0,1,3.44,1.417,10.848,10.848,0,0,1,2.233,6.3c-.4,26.407-2.044,52.738-4.236,79.051-.747,8.958-2.281,17.624-5.874,25.878C515.286,484.562,515.368,485.443,514.15,485.655Z" style="fill: #e5dcce"/>
    <path d="M574.492,278.133c5.974,13.607,13.661,26.085,21.771,38.325a3.966,3.966,0,0,0,.383.611c4.192,4.278,7.326,8.769,3.058,14.795,1.185,5.89-1.044,11.031-3.146,16.352-1.441,3.648.836,7.864-.734,11.722-.312.767-.227,1.783-.7,2.378a12.055,12.055,0,0,0-2.446,10.169c.093.529.172,1.2-.473,1.57-2.252-3.877-1.948-11.268,1.168-16.2,1.295-2.049,1.168-2.994-.67-4.372a13.567,13.567,0,0,1-5.08-7.622c-3.617-13.48-8.946-26.472-11.734-40.185A92.06,92.06,0,0,1,574.492,278.133Z" style="fill: #e5dcce"/>
    <path d="M523.429,186.943c-.467,7.435-.984,14.867-1.392,22.3a564.056,564.056,0,0,0,.319,67.961,137.933,137.933,0,0,1-.768,28.871c-.594,4.105-3.228,7.18-5.593,10.365-.672.905-1.363.807-2.041-.026a5.183,5.183,0,0,1-1.27-4.351c3.684-21.281,1.382-42.558-.112-63.827-.712-10.125-.273-20.242.105-30.349.108-2.9,1.373-5.749,2.105-8.611,1.457-.223,1.557,2.338,2.863,1.552,1.4-.845.515-2.438.234-3.615-1.821-7.632,1.674-13.944,4.493-20.434Z" style="fill: #e5dcce"/>
    <path d="M412.907,127.349c5.888-4.32,12.641-6.777,19.775-6.314,7.941.515,15.672,2.807,22.047,8.025,2.162,1.769,4.048,2.2,5.828,0,1.827-2.264,3.867.57,5.639-.538l-.03-.028c-1.271,1.494.546,1.787,1.077,2.3a81.5,81.5,0,0,1,10.613,12.758c.546.8,1.623,1.481.828,2.818-4.534,7.636-7.425,16.228-13.363,23.047s-11.684,13.933-20.3,17.7c-4.7,2.057-9.39,3.825-14.289.247a3.421,3.421,0,0,0-4.4-.018c-1.282,1.153-1.349,2.784-1.088,4.373a10.947,10.947,0,0,0,3.176,5.953c2.479,2.535,4.512,5.363,4.958,9.018.315,2.582-.72,3.884-3.488,3.588-4.586-.489-6.836-3.161-5.336-6.282.968-2.014,2.043-2.612,4.163-.914-2.736-4.33-2.774-10.427-9.681-11.154-2.138-.226-3.3-2.74-4.357-4.569-8.3-14.347-13.378-29.354-9.323-46.24a27.923,27.923,0,0,1,4.208-9.884c.585-.826,1.729-1.435,1.4-2.884-3.4.636-5.635-1.935-8.393-3.135-1.079-.469-1.124-1.425-.522-2.433,1.353-2.265,2.436-5.417,4.925-5.874,1.858-.34,2.66,2.974,3.972,4.615,1.2,1.5,3.4,3.123.791,5.3-.31.4-.521.821.073,1.12S412.609,127.673,412.907,127.349Zm20.941-3.294c-14.555-.128-25.251,8.992-26.957,22.039-2.012,15.389,3.774,28.832,10.984,41.852a3.094,3.094,0,0,0,.655.858c1.916,1.634,3.911,1.212,4.9-1.017,1.669-3.76,5.028-4.929,8.524-2.033,3.335,2.763,5.972,1.847,9.065.207,16.124-8.55,26.968-21.821,34.355-38.222a3.683,3.683,0,0,0-.542-4.3c-2.76-3.342-5.418-6.767-8.151-10.132-3.3-4.062-3.426-4.175-7.213-.744-2.3,2.084-3.839,1.849-6.094-.169A31.449,31.449,0,0,0,433.848,124.055Z" style="fill: #e5dcce"/>
    <path d="M504.916,470.776c-4.015-10.211-3.745-20.283-3.323-30.363.58-13.848,2.893-27.549,3.646-41.373.552-10.126,2.312-20.246.752-30.425-.414-2.7.374-3.058,2.856-2.068,4.191,1.671,5.761,4.97,6.028,9.012a201.823,201.823,0,0,1-1.23,34.994c-1.521,14.123-3.639,28.175-4.416,42.39C508.905,458.869,506.884,464.606,504.916,470.776Z" style="fill: #e5dcce"/>
    <path d="M509.593,289.97c.722,5.728.209,12.058-3.891,17.726-1.191,1.645-1.977,2.283-3.423.491a1.954,1.954,0,0,0-.851-.657c-5.951-1.773-5.952-5.8-5.161-11.118,1.924-12.916.691-25.99,1-39,.258-10.966.78-21.914,3.455-32.632.327-1.312.441-2.881,2.263-2.574,1.693.285,1.085,1.951,1.129,2.99.6,14.171,2.077,28.254,3.884,42.318A147.5,147.5,0,0,1,509.593,289.97Z" style="fill: #e5dcce"/>
    <path d="M545.851,175.974c-16.239,33.171-19.576,68.549-20.16,104.465l-1.116-.056c-.345-5.04-.79-10.076-1.019-15.121-1.3-28.6-.068-57.128,2.434-85.62.431-4.915.425-4.974,5.51-4.16C536.138,176.224,540.832,175.649,545.851,175.974Z" style="fill: #e5dcce"/>
    <path d="M570.932,439.6c2.212,13.58,4.224,26.291,7.654,38.719a6.165,6.165,0,0,1,.337,2.84c-2.172,9.357-2.426,18.957-3.463,28.538-1.378-.442-1.433-1.536-1.776-2.367-7.771-18.806-10.244-38.73-12.366-58.729-.1-.949-.11-1.656,1.011-1.892C566.092,445.913,568.612,443.454,570.932,439.6Z" style="fill: #e5dcce"/>
    <path d="M603.131,321.129c-6.363-5.8-10.286-13.133-14.571-20.174-6.34-10.42-11.873-21.244-15.014-33.141-.842-3.188-.488-6.309-.221-10.392,3.249,4.615,5.724,8.727,8.779,12.35,7.381,8.752,13.151,18.282,16.1,29.45a48.314,48.314,0,0,0,3.273,8.027c1.1,2.336,1.838,4.467.882,7.188A8.624,8.624,0,0,0,603.131,321.129Z" style="fill: #e5dcce"/>
    <path d="M590.064,492.318c-7.315-12.113-10.437-24.828-13.161-37.693-1-4.711-2.155-9.4-3.514-14.018a12.949,12.949,0,0,1,.056-7.363c.743-2.793,2.677-3.155,4.885-3.283,2.52-.147,2.894,1.575,3.407,3.656,2.273,9.234,4.751,18.419,7.252,27.595a28.05,28.05,0,0,1,1.108,7.823C590,476.587,590.064,484.142,590.064,492.318Z" style="fill: #e5dcce"/>
    <path d="M649.7,430.063c-15.51-11.725-23.41-28.6-30.98-45.709a5.285,5.285,0,0,1-.022-3.512c.66-3.02,1.348-6.035,2.222-9.933,2.516,4.541,4.829,8.249,6.692,12.17a180.949,180.949,0,0,0,16.48,28.33,10.727,10.727,0,0,1,1.327,3.277c1.585,4.919,3.249,9.814,4.885,14.717Z" style="fill: #e5dcce"/>
    <path d="M424.308,254.657A36.179,36.179,0,0,0,423.3,266.15c.308,11.178,7.474,17,18.319,14.1,9.817-2.628,16.633-8.987,19.237-19.139,1.305-5.092-.684-9.6-4.839-11.709-3.777-1.914-8.158-.814-11.717,2.933A18.725,18.725,0,0,0,439,262.787c-.192,1.381-.139,2.822,1.408,3.325,1.907.619,1.989-1.083,2.472-2.26.808-1.964,1.942-3.678,4.282-3.926a1.949,1.949,0,0,1,2.158,1.571c.5,2.221-1.021,3.621-2.409,4.923-2.378,2.229-5.128,4.081-8.4,2.164-3.142-1.839-2.9-5.014-2.1-8.066a21.367,21.367,0,0,1,8.553-12.574c4.064-2.812,8.686-3.442,12.96-.863a12.417,12.417,0,0,1,6.37,12.135c-1.055,14.356-17.832,27.077-31.847,24.057a15.129,15.129,0,0,1-4.032-1.543C420.1,277.16,417.622,262.5,424.308,254.657Z" style="fill: #e5dcce"/>
    <path d="M648.078,447.951c-5.812-5.112-10.1-11.412-15.219-16.929-9.073-9.776-12.087-22.491-17.466-34.044-1.54-3.307,1.114-6.6,2.219-10.031C626.638,407.912,639.945,426.609,648.078,447.951Z" style="fill: #e5dcce"/>
    <path d="M568.449,259.967c-3-4.749-3.112-8.827-.307-13.408,3.642-5.948,6.929-12.093,11.575-17.366,5.46-6.2,12.513-9.59,20.328-11.688,3.132-.841,3.488,2.2,5.887,3.833-16.609,4.3-24.68,16.784-31.917,30.122-.458.844-.925,1.689-1.457,2.487C571.247,255.914,569.9,257.853,568.449,259.967Z" style="fill: #e5dcce"/>
    <path d="M496.625,216.1c-2.272-.284-4.54-.575-6.81-.852a3.912,3.912,0,0,1-3.085-2.14,98.032,98.032,0,0,1-11.255-26.451c-.754-3.045.028-4.066,2.625-5.457,3.024-1.62,4.02-1.931,5.468,1.9a151.392,151.392,0,0,0,14.938,29.978c.5.757,1.634,1.507,1.086,2.469C498.97,216.632,497.642,215.956,496.625,216.1Z" style="fill: #e5dcce"/>
    <path d="M513.711,558.524c3.7.119,4.292,2.46,5.17,4.953a26.756,26.756,0,0,1,6.654-5.541c5.439-2.965,10.463.065,10.2,6.262a12.765,12.765,0,0,1-6.809,11.182c-1.311.738-2.747,1.093-4-.14a2.228,2.228,0,0,1-.334-2.686c.687-1.487,1.928-2.364,3.483-1.906,3.194.939,3.168-1.857,3.952-3.386,1.124-2.193,1.651-4.694-.428-6.7-1.743-1.685-3.641-.748-5.294.313-4.6,2.953-7.662,7.248-10.1,12.028-4.031,7.889-5.382,16.381-5.9,25.13-.526,8.882-.838,17.821-3.617,26.414a16.849,16.849,0,0,1-5.581,8.489c-.146-.308-.27-.449-.238-.521,5.983-13.425,5.977-27.877,7.3-42.113.63-6.768,2.282-13.368,5.823-19.215C516.521,566.913,516.947,563.06,513.711,558.524Z" style="fill: #e5dcce"/>
    <path d="M580.482,411.06a300.25,300.25,0,0,1-4.7-31.013c-.209-2.508,4.269-5.563,8.207-5.831,2.943-.2,3.933,1.5,4.729,4.218,2.741,9.357-1.267,17.721-3.568,26.289C584.561,406.913,582.314,408.656,580.482,411.06Z" style="fill: #e5dcce"/>
    <path d="M570.691,423.136c-1.311-12.931-2.673-25.105-4.577-37.213-.519-3.3.975-6.419,1.763-9.5.576-2.25,2.743-.725,3.612.313a9.762,9.762,0,0,1,2.256,5.229c1.055,10.537,2.408,21.033,4.224,31.465a3.452,3.452,0,0,1-1.106,3.213C574.991,418.655,573.079,420.63,570.691,423.136Z" style="fill: #e5dcce"/>
    <path d="M560.49,440.415c-1.359-9.894-.86-19.471-2.152-28.816-.88-6.355,2.376-10.1,5.476-14.394.246-.341.8-.79,1.083-.715.948.248,1.124,1.213,1.229,2,.681,5.135,1.3,10.279,1.928,15.421a28.537,28.537,0,0,0,.336,3.235c1.5,6.192.574,11.556-4.813,15.679C561.329,434.551,561.949,437.716,560.49,440.415Z" style="fill: #e5dcce"/>
    <path d="M511.858,296.239c-.441-7.322-.912-14.642-1.312-21.966-.285-5.209-1.772-10.241-2.278-15.4-.8-8.164-1.223-16.365-1.78-24.552-.2-2.884-.313-5.774-.473-8.661-.13-2.332-.344-4.611,2.872-5.2,1.486-.275,1.333-1.372.633-2.49-1.13-1.807-3.056-3.189-3.1-5.588A54.858,54.858,0,0,1,507.9,199.1c4.9,4.425,5.329,6.095,3.778,15.62-1.831,11.247-1.37,22.549-.942,33.855.575,15.162,3.088,30.247,1.815,45.483-.059.71-.112,1.42-.168,2.129Z" style="fill: #e5dcce"/>
    <path d="M653.248,420.772c-3.861-2.041-5.151-5.746-7.207-8.924-4.382-6.771-8.618-13.628-12.447-20.723-3.82-7.078-7.5-14.234-11.178-21.386-1.739-3.381.268-6.4,1.426-10.573C633.455,380.411,642.778,400.879,653.248,420.772Z" style="fill: #e5dcce"/>
    <path d="M433.3,424.451c-1.824-3.117-1.213-5.562.046-8,4.867-9.435,9.907-18.794,16.45-27.179,2.767-3.547,3.494-6.656.775-10.356-.563-.768-.808-1.782-1.413-2.5-1.208-1.44-2.127-4.038-4-3.755-2.107.319-2.125,3.094-2.989,5.036a13.229,13.229,0,0,1,2.825.046c.678.162,1.527.975,1.22,1.555-1.123,2.123-3.547,2.4-5.5,2.881-1.629.4-1.953-1.474-1.819-2.836a18.925,18.925,0,0,1,3.353-8.672c1.195-1.791,2.728-1.822,4.292-.458a29.561,29.561,0,0,1,8.567,12.739,5.02,5.02,0,0,1-.769,4.486C446.691,399.242,438.849,410.937,433.3,424.451Z" style="fill: #e5dcce"/>
    <path d="M465,409.571c.826,3.338.577,5.961-1.33,8.31-9.685,11.933-17.822,24.785-23.544,39.315-.925-2.585-2.186-5.093-.942-7.966,6.117-14.122,13.848-27.228,24.351-38.582A11.84,11.84,0,0,1,465,409.571Z" style="fill: #e5dcce"/>
    <path d="M495.647,466.615c-2.215-10.847-.7-21.589,1.314-32.029,3.607-18.649,4.755-37.533,6.918-56.32a7.97,7.97,0,0,1,.425-2.079c.993,8.21-.312,16.331-.927,24.471-1.317,17.418-4.009,34.729-3.7,52.277C499.762,457.756,497.4,462.148,495.647,466.615Z" style="fill: #e5dcce"/>
    <path d="M435.788,438.759c-1.576-3.214-1.994-5.675-.709-8.277a148.576,148.576,0,0,1,27.184-38.856,15.914,15.914,0,0,1,1.554-1.207c1.383,2.455.861,4.271-.861,6.217-9.747,11.017-18.968,22.412-24.714,36.17C437.512,434.554,436.8,436.309,435.788,438.759Z" style="fill: #e5dcce"/>
    <path d="M487.831,219.741c-3.906-.831-7.429-1.55-10.938-2.334a84.189,84.189,0,0,0-18.55-2.176c-4.528,0-8.98-1.467-13.383-2.716-1.632-.463-1.842-1.775-2.31-2.948-2.6-6.533-5.632-12.776-11.1-17.5-.939-.811-1.669-1.8-3.083-1.014-.763.421-1.435.385-1.494-.669-.06-1.082.318-1.976,1.627-1.807a7.594,7.594,0,0,1,4.1,2.126c5.154,4.638,9.73,9.8,12.444,16.207,1.339,3.157,3.422,3.864,6.318,3.949,11.012.323,21.729,2.6,32.454,4.861C486,216.163,487.435,216.98,487.831,219.741Z" style="fill: #e5dcce"/>
    <path d="M443.231,474.336c-1.187-2.646-1.893-5.4-.82-8.06a133,133,0,0,1,22.221-36.626c1.133,3.118,1.436,5.758-.433,8.114-8.671,10.934-15.76,22.748-20.355,35.982C443.775,473.943,443.513,474.072,443.231,474.336Z" style="fill: #e5dcce"/>
    <path d="M628.385,466.793c-3.222-5.455-6.428-10.92-9.678-16.359-.737-1.233.064-2.021.621-2.922,1.45-2.345,1.644-4.778,1.4-7.572-.508-5.862-1.16-11.707-2.216-17.474-.6-3.26-2.155-6.339-3.23-9.517-.757-2.236-1.762-4.425-1.6-6.436a28.848,28.848,0,0,0,1.39,2.816c7.4,12.045,7.6,25.984,10.36,39.249,1.252,6.014,2.559,12.017,3.841,18.025Z" style="fill: #e5dcce"/>
    <path d="M614.55,288.974c.175.386.207.563.266.572,1.49.228,3.3-.154,3.968,1.755a1.2,1.2,0,0,1-1.127,1.544c-1.759.2-3.637.669-5.083-.853a2.959,2.959,0,0,1-.546-3.942,5.889,5.889,0,0,1,2.744-2.247c4.664-1.891,11.618,1.249,13.124,6.05.815,2.6-.2,4.743-2.127,6.465q-6.865,6.119-13.8,12.163A45.59,45.59,0,0,0,604.2,318.3c-.654-3.261-.079-5.463,2.043-7.14,3.774-2.983,7.614-5.882,11.4-8.843,1.7-1.331,3.433-2.646,5.015-4.116,2.87-2.667,3-5.284.557-8.239C621.038,287.319,617.575,286.9,614.55,288.974Z" style="fill: #e5dcce"/>
    <path d="M484.091,176.555c2.611,5.088,5.1,9.969,7.619,14.835,4.538,8.764,9.076,17.533,14.918,25.53,1.22,1.669,1.01,2.384-1,2.937-4.764,1.307-9.53.969-14.323.356-1.439-.184-1.65-1.356-1.566-2.348.114-1.34,1.258-.714,2-.627a48.782,48.782,0,0,0,7.908.488c2.785-.124,3.455-.963,1.752-3.39a135.889,135.889,0,0,1-12.442-22.77c-1.911-4.271-3.545-8.666-5.294-13.009A1.836,1.836,0,0,1,484.091,176.555Z" style="fill: #e5dcce"/>
    <path d="M550.95,374.73c1.394-.048,2.406.478,2.4,2.462-.024,4.867,1.46,9.507,2.392,14.227.175.885.3,2.079,1.568,2.117,1.3.038,1.416-1.158,1.64-2.045a67.006,67.006,0,0,0,2.029-13.2c.114-2.413,1.085-3.179,3.352-2.893,2.778.351,1.225,2.236,1.028,3.279a59.447,59.447,0,0,1-5.988,17.351c-.558,1.033-1.143,2.494-2.365,2.537-1.154.041-1.355-1.527-1.879-2.435a47.665,47.665,0,0,1-6.168-18.752C548.813,376.087,548.428,374.53,550.95,374.73Z" style="fill: #e5dcce"/>
    <path d="M632.254,319.4c.222,2.407.009,4.038-1.937,5.018a106.877,106.877,0,0,0-17.528,11.436,70.6,70.6,0,0,0-14.678,15.408,9.194,9.194,0,0,1,1.581-6.479C608.027,333.305,619.369,325.689,632.254,319.4Z" style="fill: #e5dcce"/>
    <path d="M594.35,370.129c-.4-2.615.72-4.074,1.558-5.663,4.707-8.92,12.593-14.619,20.511-20.269a95.6,95.6,0,0,1,12.453-7.468c.569,2.877-.668,4.306-2.789,5.459C613.543,349.012,602.76,357.877,594.35,370.129Z" style="fill: #e5dcce"/>
    <path d="M601.351,334.944a12.951,12.951,0,0,1,3.267-8.819A87.922,87.922,0,0,1,631.6,304.683c.751-.4,1.754-1.544,2.451-.374a2.453,2.453,0,0,1-.809,3.207,15.276,15.276,0,0,1-1.852,1.114c-11.433,6.332-21.3,14.437-28.774,25.281A8.366,8.366,0,0,1,601.351,334.944Z" style="fill: #e5dcce"/>
    <path d="M614.478,399.272c6.063,16.3,14.391,30.848,20.176,47.2-3.015-.762-2.951-3.134-4.218-4.375a23.6,23.6,0,0,1-7.248-18.526c.041-1.1-.706-2.258-1.193-3.342-2.418-5.386-4.892-10.748-7.3-16.14C614.13,402.814,613.259,401.525,614.478,399.272Z" style="fill: #e5dcce"/>
    <path d="M423.572,118.576c.477,1.446-.665,2.046-2.082,2.29-1.564.269-3.033,2.517-4.755.251-1.523-2-3.066-3.993-4.656-5.944-1.184-1.453-.4-2.006.931-2.576a39.227,39.227,0,0,1,7.273-1.961,1.659,1.659,0,0,1,2.279,1.548C422.884,114.192,423.2,116.2,423.572,118.576Z" style="fill: #e5dcce"/>
    <path d="M522.745,176.573c-.456,7.071-3.915,12.923-6.235,19.769-1.571-2.993-3.292-5.375-4.1-8.035-1.027-3.376,1.5-5.544,3.96-7.2C518.525,179.662,520.93,178.59,522.745,176.573Z" style="fill: #e5dcce"/>
    <path d="M466.2,128.521c-.982-1.533-.349-7.21,1-8.621.2-.208.642-.424.849-.338.6.246,1.042.813.714,1.435-2.867,5.445,1.531,8.064,4.35,11.292,1.822,2.087,3.752,4.083,5.491,6.235,2.233,2.763,4.443,5.419,8.493,5.215.372-.019.8.444,1.142.752.134.122.1.433.192.945-4.364-.611-8.546-.587-11.068-5.424-2.1-4.029-5.518-7.279-8.914-10.371-.605-.551-1-1.81-2.277-1.148Z" style="fill: #e5dcce"/>
    <path d="M439.756,112.739c2.207-.151,8.523,2.729,8.2,3.511-.766,1.861-.092,4.647-2.566,5.417-1.783.555-6.949-2.309-6.663-3.342C439.246,116.457,437.9,114.064,439.756,112.739Z" style="fill: #e5dcce"/>
    <path d="M506.661,189.3c1.016,3.6,3.925,6.064,5.589,9.819,2.2-3.6-1.35-5.879-1.053-8.953a30.666,30.666,0,0,1,4.914,15.953c-3.7-3.6-5.668-7.737-8.386-11.269-2.533-3.293-4.273-7.193-6.415-10.793a2.9,2.9,0,0,1-.125-2.411l-.013.027c.281,1,.455,2.118,1.941,1.876l-.024-.056c-.691.967-.326,1.41.746,1.5l-.027-.056c-.714.98.01,1.252.748,1.516l-.047-.069c-.044.569-.108,1.159.786.776l-.049-.048a2.152,2.152,0,0,0,.027.849c.258.525.492-.054.748-.082l-.033-.046c-1.13,1.181-.161,1.327.743,1.507Z" style="fill: #e5dcce"/>
    <path d="M458.4,122.848c-.442,1.631-.074,3.952-2.137,4.949-.963.466-6.329-4-5.96-4.768.889-1.862.16-5,3.017-5.327C455.86,117.411,458.438,120.317,458.4,122.848Z" style="fill: #e5dcce"/>
    <path d="M434.047,114.961c.628,3.276-.905,5.208-4.141,4.266-3.684-1.072-1.825-4.949-2.718-7.473-.61-1.725,1.232-1.4,2.124-1.194C431.666,111.11,435.605,110.049,434.047,114.961Z" style="fill: #e5dcce"/>
    <path d="M596.459,290.092c6.727,3.868,8,9.75,6.67,16.655Q599.795,298.419,596.459,290.092Z" style="fill: #e5dcce"/>
    <path d="M590.553,461.232a250.672,250.672,0,0,1-6.121-25.309C586.508,443.98,591.561,451.232,590.553,461.232Z" style="fill: #e5dcce"/>
    <path d="M503.113,183.547c-.261-3.946-3.314-6.548-4.81-9.907a45.548,45.548,0,0,0-3.526-5.854c-.7-1.087-1.2-2.1.2-3.436,2.529,4.789,5.14,9.426,7.455,14.206,2.026,4.183,5.3,7.7,6.5,12.3l.056.076c-.623-.767-.72-2.283-2.334-1.638l.07.042c.988-1.112.148-1.322-.743-1.507l.033.046c.178-.7.319-1.355-.775-.767l.05.048c.049-.293.522-.479.1-.9-.436-.438-.6.079-.886.126l.047.07c.388-.192.758-.363.486-.932s-.587-.885-1.234-.585l.027.056c.97-1.106.271-1.383-.746-1.5Z" style="fill: #e5dcce"/>
    <path d="M399.255,133.346c.9-1.032-.8-3.327,1.509-4.024.98-.3,6.006,3.365,5.635,3.827-1.082,1.349-.429,4.18-3.332,4S399.142,136.039,399.255,133.346Z" style="fill: #e5dcce"/>
    <path d="M458.719,127.792c1.589-3.685.054-8.964,6.449-8.424C464.654,123.125,463.1,126.093,458.719,127.792Z" style="fill: #e5dcce"/>
    <path d="M401.408,151.717c-.59-2.836-1.243-5.662-1.729-8.515-.144-.847-.808-2.456,1.2-2.1,1.154.2,2.809.064,2.419,2.218-.5,2.76-.828,5.551-1.231,8.329Z" style="fill: #e5dcce"/>
    <path d="M509.747,316.327c-4.383-5.2-4.383-5.2,0-11.756Z" style="fill: #e5dcce"/>
    <path d="M501.185,181.644l-.735.422-.093-.581c.269.067.538.135.811.195Z" style="fill: #e5dcce"/>
    <path d="M629.59,467.985l-.23.267a4.524,4.524,0,0,1-.265-.634c-.013-.048.165-.148.254-.224Q629.47,467.69,629.59,467.985Z" style="fill: #e5dcce"/>
    <path d="M424.957,250.158c-.063.286-.134.592-.518.379a4.1,4.1,0,0,1,.241-.686C424.771,249.953,424.864,250.055,424.957,250.158Z" style="fill: #e5dcce"/>
    <path d="M650.154,423.475c-.237-.454-.694-.972-.015-1.337.193-.1.671.319,1.018.5Z" style="fill: #ebe0cf"/>
    <path d="M650.3,429.4c.334.305.578.667.158,1.028-.086.073-.5-.236-.762-.368Z" style="fill: #e5dcce"/>
    <path d="M508.939,190.86l.1-.06a.586.586,0,0,0-.05.129A.659.659,0,0,0,508.939,190.86Z" style="fill: #e5dcce"/>
    <path d="M554.238,611.2c2.308-.334,3.82.436,3.863,2.971.043,2.511-2.492,5.721-4.592,5.805-2.4.095-3.4-1.528-3.844-3.552-1.128-5.167,4.062-15.285,8.91-17.484,4.488-2.036,9.7,1.107,11.127,6.649,1.042,4.04.061,7.9-1,11.728-.424,1.528-1.088,2.8,1.41,2.848.994.02,2.1.838,1.963,1.783-.222,1.568-1.514.6-2.314.458-2.4-.437-3.253,1.336-4.017,2.908-5.862,12.06-14.707,22.743-16.906,36.5-.029.177-.326.311-.589.546a12.907,12.907,0,0,1-.022-9.833c2.629-7.437,6.894-14.027,10.677-20.869,3.151-5.7,6.088-11.5,7.648-17.875.757-3.091,1.045-6.214-.476-9.183-1.991-3.884-5.421-4.426-8.437-1.282a15.22,15.22,0,0,0-4.057,7.124c-.461.288-.653.814-.346,1.156C553.687,612.1,553.925,611.416,554.238,611.2Z" style="fill: #e5dcce"/>
    <path d="M487.164,166.083c-5.011-5.331-5.011-5.331-11.213-5.063,1.373-3.238,2.661-6.415,4.071-9.537.659-1.459,1.472-2.761,3.561-1.8,1.742.8,2.655,1.557,1.959,3.779C484.263,157.543,486.156,161.421,487.164,166.083Z" style="fill: #32312f"/>
    <path d="M433.848,124.055a31.449,31.449,0,0,1,19.527,8.342c2.255,2.018,3.794,2.253,6.094.169,3.787-3.431,3.915-3.318,7.213.744,2.733,3.365,5.391,6.79,8.151,10.132a3.683,3.683,0,0,1,.542,4.3c-7.387,16.4-18.231,29.672-34.355,38.222-3.093,1.64-5.73,2.556-9.065-.207-3.5-2.9-6.855-1.727-8.524,2.033-.99,2.229-2.985,2.651-4.9,1.017a3.094,3.094,0,0,1-.655-.858c-7.21-13.02-13-26.463-10.984-41.852C408.6,133.047,419.293,123.927,433.848,124.055ZM433,145.269l-.6-.479c.972-2.458,1.955-4.911,2.91-7.375.293-.753.96-1.7.051-2.278-.96-.608-1.468.37-1.9,1.089-2.434,4.018-4.807,8.05-5.565,12.813-.466,2.929-1.113,5.83-1.678,8.743a43.164,43.164,0,0,1,.149-13.128c.138-.955.669-2.512-.675-2.84-1.529-.373-1.335,1.32-1.637,2.225a45.121,45.121,0,0,0-1.773,23.8,23.2,23.2,0,0,1,.714,7.5q-.226.195-.46.381c-1.443-4.443-2.863-8.894-4.351-13.321-.257-.766-.639-1.71-1.689-1.626-1.3.1-.907,1.218-.915,1.969-.089,7.6,2.607,14.355,6.436,20.752.32.536.748,1.2,1.333.608,1.276-1.286,3.451-1.5,4.214-3.259,2.444-5.627,4.836-11.284,5.584-17.461.25-2.064-.042-3.608-3.209-2.591,2.047-3.439,3.783-6.318,5.476-9.222.527-.9,1.466-1.736,1.057-2.929-.416-1.21-2.055.1-2.7-1.17l7.915-9.114C437.436,139.13,435.756,142.835,433,145.269Z" style="fill: #32312f"/>
    <path d="M412.907,127.349c-.3.324-.494.9-1.091.6s-.383-.724-.073-1.12Z" style="fill: #32312f"/>
    <path d="M503.089,183.491c1.017.119,1.716.4.746,1.5C502.763,184.9,502.4,184.458,503.089,183.491Z" style="fill: #32312f"/>
    <path d="M503.808,184.937c.647-.3.969.027,1.234.585s-.1.74-.486.932C503.818,186.189,503.094,185.917,503.808,184.937Z" style="fill: #32312f"/>
    <path d="M505.988,187.833c.891.185,1.731.4.743,1.507C505.827,189.16,504.858,189.014,505.988,187.833Z" style="fill: #32312f"/>
    <path d="M504.509,186.384c.288-.047.45-.564.886-.126.423.423-.05.609-.1.9C504.4,187.543,504.465,186.953,504.509,186.384Z" style="fill: #32312f"/>
    <path d="M505.246,187.112c1.094-.588.953.071.775.767-.256.028-.49.607-.748.082A2.152,2.152,0,0,1,505.246,187.112Z" style="fill: #32312f"/>
    <path d="M554.238,611.2c-.313.218-.551.906-1.005.4-.307-.342-.115-.868.346-1.156Z" style="fill: #32312f"/>
    <path d="M422.99,175.338a23.2,23.2,0,0,0-.714-7.5,45.121,45.121,0,0,1,1.773-23.8c.3-.905.108-2.6,1.637-2.225,1.344.328.813,1.885.675,2.84a43.164,43.164,0,0,0-.149,13.128c.565-2.913,1.212-5.814,1.678-8.743.758-4.763,3.131-8.795,5.565-12.813.436-.719.944-1.7,1.9-1.089.909.576.242,1.525-.051,2.278-.955,2.464-1.938,4.917-2.909,7.375,0,.332-.135.86.015.959.43.283.477-.2.587-.48,2.755-2.434,4.435-6.139,8.675-6.914l-7.915,9.114c.65,1.271,2.289-.04,2.7,1.17.409,1.193-.53,2.025-1.057,2.929-1.693,2.9-3.429,5.783-5.476,9.222,3.167-1.017,3.459.527,3.209,2.591-.748,6.177-3.14,11.834-5.584,17.461-.763,1.759-2.938,1.973-4.214,3.259-.585.59-1.013-.072-1.333-.608-3.829-6.4-6.525-13.147-6.436-20.752.008-.751-.384-1.865.915-1.969,1.05-.084,1.432.86,1.689,1.626,1.488,4.427,2.908,8.878,4.351,13.321.124.523.248,1.048.411,1.743A1.691,1.691,0,0,0,422.99,175.338Zm2.776-2.557,5.376-11.789-.886-.4C427.652,163.817,425.4,167.2,425.766,172.781Z" style="fill: #e5dcce"/>
    <path d="M425.766,172.781c-.363-5.583,1.886-8.964,4.49-12.185l.886.4Z" style="fill: #32312f"/>
    <path d="M422.99,175.338a1.691,1.691,0,0,1-.049,2.124c-.163-.695-.287-1.22-.411-1.743Q422.764,175.533,422.99,175.338Z" style="fill: #32312f"/>
    <path d="M433,145.269c-.11.283-.157.763-.587.48-.15-.1-.018-.627-.015-.959Z" style="fill: #32312f"/>
  </g>
  <g>
    <path d="M223.228,801.826l5.04,3.3-14.168,12.1,11.7,8.343-17.752,15.456-4.928-3.3,13.607-11.7-11.759-8.344Z" style="fill: #ebe0cf"/>
    <path d="M236.779,841.026h-5.656v-39.2h5.656Z" style="fill: #ebe0cf"/>
    <path d="M248.034,812.635v28.28h-5.656V801.826l18.592,12.937V801.826h5.656v39.089H260.97V821.707Z" style="fill: #ebe0cf"/>
    <path d="M285.385,840.467l-15.96-19.712,13.608-18.929,13.048,10.752-3.976,4.481-8.176-6.777-7.336,10.248,8.4,10.473.56.727,5.768-6.383-7.728-.5.336-5.937,14.224,1.12-.728,21H291.77l.279-8.063Z" style="fill: #ebe0cf"/>
    <path d="M308.569,837.667l-.056.056h.056l-5.264,5.263-1.9-1.9,3.64-3.36-3.64-3.361,1.9-1.9Z" style="fill: #ebe0cf"/>
    <path d="M326.769,821.091l15.848-19.1,15.847,19.1-8.9,11.311-6.944,8.792-6.945-8.792Zm21.56-3.361-4.088-4.927-1.624-2.017-8.624,10.305.9,1.12,7,9.016.672.839,8.624-10.92-.617-.727Z" style="fill: #ebe0cf"/>
    <path d="M391,840.467l-15.96-19.712,13.608-18.929L401.7,812.578l-3.976,4.481-8.176-6.777-7.336,10.248,8.4,10.473.56.727,5.768-6.383-7.728-.5.336-5.937,14.224,1.12-.728,21h-5.656l.28-8.063Z" style="fill: #ebe0cf"/>
    <path d="M421.128,841.026l-6.944-8.792-8.9-11.311,15.848-19.1,15.848,19.1-8.9,11.311Zm-8.624-20.1.9,1.12,7,8.96.672.895,8.624-10.919-.616-.728-2.24-2.688-4.088-4.985-1.624-1.96Z" style="fill: #ebe0cf"/>
    <path d="M454.055,828.539l-5.264,4.592-8.96,7.895V801.994l22.96,19.265-.5.391Zm-8.568-14.5V828.65l8.568-7.391-1.848-1.569h-.056Z" style="fill: #ebe0cf"/>
    <path d="M479.59,828.539l-5.264,4.592-8.96,7.895V801.994l22.96,19.265-.5.391Zm-8.568-14.5V828.65l8.568-7.391-1.848-1.569h-.055Z" style="fill: #ebe0cf"/>
    <path d="M491.742,818.459l-.056.056-4.144-4.928,20.888-11.761,3.248,4.425-15.064,9.184,4.816,5.992-5.264,6.552,15.512,8.456-3.248,4.591-20.888-11.759,1.12-1.288,5.488-6.552Z" style="fill: #ebe0cf"/>
    <path d="M517.11,841.026l-4.928-3.3,13.608-11.7-11.76-8.344,18.256-15.849,5.04,3.3-14.168,12.1,11.7,8.343Z" style="fill: #ebe0cf"/>
    <path d="M542.478,841.026l-4.929-3.3,13.608-11.7-11.76-8.344,18.256-15.849,5.04,3.3-14.168,12.1,11.7,8.343Z" style="fill: #ebe0cf"/>
    <path d="M569.077,837.667l-.056.056h.056l-5.264,5.263-1.9-1.9,3.64-3.36-3.64-3.361,1.9-1.9Z" style="fill: #ebe0cf"/>
    <path d="M596.349,841.026v-33.6h-9.184v-5.6h24.023v5.6h-9.183v33.6Z" style="fill: #ebe0cf"/>
    <path d="M619.532,817.4v23.631h-5.656v-39.2h5.656v9.912h11.592v-9.912h5.6v39.2h-5.6V817.4Z" style="fill: #ebe0cf"/>
    <path d="M644.228,818.459l-.056.056-4.145-4.928,20.889-11.761,3.248,4.425L649.1,815.435l4.816,5.992-5.265,6.552,15.513,8.456-3.248,4.591-20.889-11.759,1.12-1.288,5.489-6.552Z" style="fill: #ebe0cf"/>
    <path d="M690.6,830.667l-3.92,10.359-5.656-1.4,15.12-37.8,14.336,37.129-5.264,2.071-3.977-10.359Zm8.456-5.656-3.136-8.176-3.192,8.176Z" style="fill: #ebe0cf"/>
    <path d="M718.931,812.635v28.28h-5.657V801.826l18.593,12.937V801.826h5.655v39.089h-5.655V821.707Z" style="fill: #ebe0cf"/>
    <path d="M756.282,840.467l-15.96-19.712,13.608-18.929,13.048,10.752L763,817.059l-8.176-6.777L747.49,820.53,755.89,831l.56.727,5.768-6.383-7.728-.5.336-5.937,14.224,1.12-.728,21h-5.656l.28-8.063Z" style="fill: #ebe0cf"/>
    <path d="M775.266,818.459l-.056.056-4.145-4.928,20.889-11.761,3.248,4.425-15.064,9.184,4.816,5.992-5.265,6.552,15.513,8.456-3.248,4.591-20.889-11.759,1.121-1.288,5.488-6.552Z" style="fill: #ebe0cf"/>
    <path d="M803.994,827.307v13.5h-5.656V801.826L821.97,817.9l-11.312,5.153.224.223.168.281,10.136,14.112-4.76,3.08L805.45,825.4l-1.512.729Zm0-14.785v7.393l6.44-2.969Z" style="fill: #ebe0cf"/>
    <path d="M224.375,908.227l-6.944-8.792-8.9-11.312,15.848-19.1,15.848,19.1-8.9,11.312Zm-8.624-20.1.9,1.12,7,8.96.672.9,8.624-10.92-.616-.728-2.24-2.688L226,879.778l-1.624-1.96Z" style="fill: #ebe0cf"/>
    <path d="M248.846,888.739V908h-5.824V869.026l19.376,1.233-.392,5.544-13.216-.728.056,1.176v6.832l7.672-1.008.784,5.6Z" style="fill: #ebe0cf"/>
    <path d="M298.35,879.723l10.192,26.432-5.265,2.072-4.312-11.256-10.695,2.015-3.529,9.241-5.656-1.4,12.1-30.184-2.3-5.993,5.321-1.624Zm-7.728,13.048,6.272-1.176-2.913-7.56Z" style="fill: #ebe0cf"/>
    <path d="M330.493,900.5l-8.792,7.56-15.96-19.152,14.616-19.488,11.648,9.184,1.736,1.344-3.416,4.367-8.9-6.943-1.9,2.632-6.328,8.512-.168.28,7.784,9.351,1.512,1.905,7.56-6.5,4.032,3.976-.9.783Z" style="fill: #ebe0cf"/>
    <path d="M342.981,884.6v23.632h-5.656v-39.2h5.656v9.912h11.592v-9.912h5.6v39.2h-5.6V884.6Z" style="fill: #ebe0cf"/>
    <path d="M371.428,908.227h-5.656v-39.2h5.656Z" style="fill: #ebe0cf"/>
    <path d="M397.188,900.835l.448,5.6-20.608,1.624V869.026h5.656v32.929Z" style="fill: #ebe0cf"/>
    <path d="M420.651,900.835l.448,5.6-20.608,1.624V869.026h5.656v32.929Z" style="fill: #ebe0cf"/>
    <path d="M425.859,885.659l-.056.056-4.144-4.928,20.888-11.761,3.248,4.425-15.064,9.184,4.816,5.992-5.264,6.552,15.512,8.456-3.248,4.592-20.888-11.76,1.12-1.288,5.488-6.552Z" style="fill: #ebe0cf"/>
    <path d="M451.227,908.227l-4.929-3.3,13.608-11.7-11.76-8.344L466.4,869.026l5.04,3.305-14.168,12.1,11.7,8.344Z" style="fill: #ebe0cf"/>
    <path d="M493.114,908.227l-4.928-3.3,13.608-11.7-11.76-8.344,18.256-15.849,5.04,3.305-14.168,12.1,11.7,8.344Z" style="fill: #ebe0cf"/>
    <path d="M528.113,908.227l-6.944-8.792-8.9-11.312,15.847-19.1,15.848,19.1-8.9,11.312Zm-8.624-20.1.9,1.12,7,8.96.672.9,8.624-10.92-.617-.728-2.24-2.688-4.088-4.985-1.624-1.96Z" style="fill: #ebe0cf"/>
    <path d="M552.473,879.835v28.28h-5.657V869.026l18.592,12.937V869.026h5.656v39.089h-5.656V888.907Z" style="fill: #ebe0cf"/>
    <path d="M606.232,908.227l-6.944-8.792-8.9-11.312,15.848-19.1,15.848,19.1-8.9,11.312Zm-8.624-20.1.9,1.12,7,8.96.672.9,8.624-10.92-.616-.728-2.24-2.688-4.088-4.985-1.624-1.96Z" style="fill: #ebe0cf"/>
    <path d="M630.7,888.739V908H624.88V869.026l19.376,1.233-.393,5.544-13.216-.728.056,1.176v6.832l7.673-1.008.783,5.6Z" style="fill: #ebe0cf"/>
    <path d="M666.768,869.923l22.4,15.456L671.3,893.442v14.785h-5.656V876.7l-4.2-2.912,3.865-4.816.951.616v.056Zm4.535,9.968v7.448l6.5-3.025Z" style="fill: #ebe0cf"/>
    <path d="M693.647,885.659l-.056.056-4.144-4.928,20.888-11.761,3.248,4.425-15.063,9.184,4.815,5.992-5.264,6.552,15.512,8.456-3.248,4.592-20.888-11.76,1.12-1.288,5.488-6.552Z" style="fill: #ebe0cf"/>
    <path d="M736.879,900.835l.448,5.6-20.608,1.624V869.026h5.656v32.929Z" style="fill: #ebe0cf"/>
    <path d="M742.087,885.659l-.057.056-4.143-4.928,20.887-11.761,3.248,4.425-15.063,9.184,4.815,5.992-5.263,6.552,15.511,8.456-3.248,4.592-20.887-11.76,1.12-1.288,5.487-6.552Z" style="fill: #ebe0cf"/>
    <path d="M782.91,908v-5.992l-17.752,6.216v-39.2h5.656v31.248l12.1-4.255V869.026h5.656V908Z" style="fill: #ebe0cf"/>
    <path d="M796.462,908.227l-4.928-3.3,13.608-11.7-11.76-8.344,18.256-15.849,5.04,3.305-14.168,12.1,11.7,8.344Z" style="fill: #ebe0cf"/>
  </g>
</svg>
