<svg id="Шар_1" data-name="Шар 1" xmlns="http://www.w3.org/2000/svg" viewBox="0 0 1024 1024">
  <title>background</title>
  <g>
    <rect x="6.214" y="7.13" width="1011.906" height="1011.906" rx="16.725" ry="16.725" style="fill: #121410;stroke: #dea369;stroke-miterlimit: 10;stroke-width: 3px"/>
    <path d="M356.01,705.811c-4.484-3.654-9.674-6.525-12.907-10.857-4.243-5.683-9.565-5.009-15.128-5.037-4.169-.021-8.344.119-12.506-.064-5.781-.254-9.485-3.776-9.626-9.465q-.3-12.287,0-24.585c.135-5.674,3.913-9.24,9.617-9.48,3.13-.132,6.27-.024,10.031-.024,0-7.422.331-14.427-.078-21.389-.595-10.121,3.343-14.768,13.965-13.862,1.253.106,2.522.014,4.332.014,0-5.491.1-10.618-.029-15.739-.106-4.321,1.4-7.382,5.477-9.34,1.069-.513,1.936-2.6,1.953-3.97.14-11.933.058-23.868.058-35.8,0-7.669,2.105-8.99,9.156-5.783l13.455,6.119c2.124-2.591,4.118-5.013,6.1-7.446,1.945-2.386,4.182-2.842,6.8-1.1,3.227,2.149,6.682,4.025,9.612,6.521a8.1,8.1,0,0,1,2.544,5.363c.238,10.778.152,21.565.1,32.349-.009,2.013.151,3.319,2.566,4.131,3.7,1.244,4.947,4.538,4.96,8.278.018,5.287,0,10.575,0,16.139h21.821c0-5.272.019-10.4-.006-15.536-.021-4.215,1.237-7.538,5.552-9.239.886-.349,2.033-1.959,1.874-2.75-2.454-12.23,3.364-20.87,11.97-28.384a5.291,5.291,0,0,0,.733-1.341c-2.339-1.169-4.53-2.633-6.944-3.391-4.683-1.469-5.8-4.535-5.76-9.153.184-23.724.051-47.449.133-71.174.01-2.8-.208-4.7-3.4-5.864-3.278-1.2-4.157-4.487-4.146-7.87.016-5.284,0-10.568,0-16.077H406.486c0,5.273-.011,10.275,0,15.278.013,4.351-1.195,7.813-5.741,9.587-.938.366-1.692,2.428-1.713,3.722-.149,9.056-.18,18.117-.031,27.173.049,2.949-.937,4.88-3.493,6.292-4.773,2.639-9.473,5.411-14.186,8.157a5.366,5.366,0,0,1-7.059-.758c-1.992-1.865-4.206-3.5-6.164-5.392-3.176-3.074-6.769-5.321-11.208-5.822-4.552-.513-5.9-3.086-5.771-7.388.223-7.326.026-14.665.092-22,.019-2.16-.2-3.685-2.729-4.57-3.509-1.229-4.784-4.295-4.776-7.913.012-5.311,0-10.622,0-16.643-5.775,0-11.315,0-16.855,0-10.387.009-13.325-2.913-13.33-13.267,0-6.614-.072-13.229.013-19.842.086-6.751,3.641-10.058,10.327-10.712a26.605,26.605,0,0,0,9.684-2.733c16.229-8.609,32.309-17.5,48.439-26.3.379-.206.762-.405,1.135-.62,2.759-1.588,5.749-3,7.815.612,2.09,3.65-.681,5.465-3.489,6.987-6.944,3.761-13.9,7.5-20.829,11.288a196.894,196.894,0,0,0-17.473,10.408H654.83c-1.35-.889-2.158-1.528-3.055-2-7.767-4.048-15.476-8.221-23.377-11.987a12.31,12.31,0,0,0-7.221-.931c-8.569,1.714-17.075,3.774-25.542,5.946-4.166,1.069-7.046.189-9.523-3.523-3.584-5.37-7.723-10.366-11.478-15.627-1.39-1.947-2.658-2.5-5-1.5-4.342,1.858-8.943,3.122-13.247,5.054-4.059,1.821-7.542,1.421-11.393-.707-7.286-4.026-14.743-7.759-22.264-11.328a9.711,9.711,0,0,0-5.993-.579c-9.194,2.22-18.332,4.684-27.445,7.222-3.026.842-5.649.815-6.625-2.569-.941-3.265.874-5.086,4.1-5.782,2.218-.48,4.377-1.237,7.324-2.091-4.421-3.844-8.423-7.421-12.537-10.866-2.47-2.067-4.2-4.417-1.713-7.272s5.126-1.371,7.5.678c4.9,4.222,9.907,8.323,14.728,12.633,1.806,1.614,3.379,1.717,5.767,1.333,6.9-1.111,11.774-4.128,14.26-11.012,1.388-3.844,3.79-7.323,5.894-11.265-9.759-5.094-19.114-10.094-28.618-14.788-1.149-.568-3.309.149-4.668.883q-35.811,19.35-71.528,38.873c-.63.343-1.234.735-1.866,1.075-2.758,1.482-5.679,2.3-7.416-1.111-1.565-3.073.363-5.021,3.086-6.5,25.862-14.046,51.67-28.193,77.6-42.108a8.033,8.033,0,0,1,6.376-.02c11.335,5.565,22.524,11.432,33.707,17.3,4.145,2.176,4.6,3.879,2.431,7.977-3.485,6.569-7.052,13.095-10.733,19.914,8.055,4.109,15.8,8.132,23.64,11.964a5.29,5.29,0,0,0,3.586-.249c5.812-2.05,11.6-4.164,17.343-6.41,3.309-1.3,5.74-.626,7.842,2.282,4.123,5.7,8.531,11.206,12.567,16.969,1.507,2.152,2.974,2.507,5.366,1.906,8.477-2.13,16.967-4.245,25.532-5.967a12.081,12.081,0,0,1,7.276.9c13.857,6.949,27.52,14.286,41.366,21.258a24.539,24.539,0,0,0,8.927,2.386c7,.549,10.531,3.858,10.6,10.89q.114,11,0,22c-.067,7.2-3.644,10.76-10.922,10.891-6.036.109-12.074.1-18.111.147a7.1,7.1,0,0,0-1.139.47c0,4.61-.078,9.565.024,14.516.092,4.525-.989,8.112-5.694,10.047-1,.412-1.72,2.706-1.735,4.142-.131,12.652.078,25.309-.192,37.957a17.585,17.585,0,0,1-2.576,8.307c-3.781,6.256-8.049,12.216-12.428,18.75,7.17,4.031,5.074,9.935,3.373,15.829-1.225,4.245-2.277,8.539-3.478,13.079,3.851,1.582,7.35,3.168,10.956,4.455,3.193,1.138,4.549,3.2,4.312,6.527-.132,1.86.033,3.74-.051,5.606-.15,3.35-.254,6.132,3.914,7.886,1.87.787,3.166,4.624,3.423,7.206.52,5.243.155,10.573.155,16.448,3.013,0,5.7-.049,8.379.01,6.024.133,9.9,3.676,9.722,9.641A9.6,9.6,0,0,0,682.5,629.4c6,4.682,11.851,9.574,17.563,14.606a10.931,10.931,0,0,1,3.291,5.261c5.1,21.179,10.021,42.4,14.975,63.618,1.073,4.593-.593,6.8-5.4,6.8q-74.194.05-148.389-.006c-5.531,0-7.227-2.971-4.642-7.838,3.755-7.072,7.6-14.1,11.666-21.613-1.736-.133-2.956-.306-4.175-.307q-71.607-.017-143.213-.032c-3.639,0-6.8.167-9.695,3.181-2.711,2.825-6.427,4.687-9.9,7.11,2.583,4.514,5.031,8.705,7.392,12.944,2.871,5.154,1.307,7.923-4.663,7.947q-25.881.108-51.763-.007c-5.63-.029-7.2-3.036-4.32-7.795.744-1.228,1.561-2.411,2.337-3.62C354.333,708.46,355.087,707.263,356.01,705.811Zm62.972-24.631c3.2,0,6.638,0,10.072,0q71.6-.138,143.2-.2c3.015,0,4.789-.876,5.96-3.58,2.939-6.784,8.377-9.424,15.542-9.29q9.271.173,18.547-.042c1.414-.034,3.375-.453,4.109-1.428,2.551-3.392,4.672-7.106,7.4-11.389-2.1,0-3.337,0-4.57,0q-40.976-.123-81.949-.251c-1.293,0-2.921.454-3.809-.155-1.678-1.151-3.783-2.736-4.161-4.476-.573-2.641,1.609-4.027,4.3-4.108,1.293-.039,2.588-.035,3.882-.041,29.324-.135,58.648-.328,87.972-.321,3.329,0,5.24-1.066,6.871-3.881,2.879-4.966,6.245-9.649,9.181-14.585a6.8,6.8,0,0,1,6.716-3.611c7.012.156,14.03.049,20.888.049,1.278-3.681-.544-3.965-3.118-3.963-10.782.011-21.565-.16-32.347-.162q-147.31-.024-294.621-.012H334.53v26.487H341.3q77.646,0,155.291-.012c3.2,0,6.571.167,6.5,4.343-.07,3.976-3.3,4.474-6.561,4.461-8.34-.034-16.68-.011-25.019-.011h-12.1c4.111,3.786,7.3,6.629,10.377,9.59,2.049,1.972,2.62,4.682.285,6.332-1.376.973-4.087.524-6.039.055-1.317-.317-2.357-1.786-3.686-2.875-1.436,2.2-2.65,4.141-3.942,6.026-1.549,2.26-3.562,3.533-6.2,1.887-2.773-1.73-2.69-4.168-1.111-6.71,1.5-2.417,3.055-4.8,4.588-7.2-3.87-4.716-7.8-7.344-14.29-7.286-40.114.361-80.232.171-120.349.179-1.384,0-2.768.159-4.231.249V681.1c7.075,0,13.856-.488,20.537.123,8.388.766,14.473-2.374,19.815-8.53,1.523-1.755,4.706-2.855,7.151-2.9,14.806-.263,29.618-.132,44.429-.133,10.473,0,10.473,0,11.494,10.3A8.1,8.1,0,0,0,418.982,681.18ZM432.09,430.7H681.458V405.028H322.489v25.959h5.34c27.881,0,55.766-.224,83.642.168,6.428.09,10.367-2.647,14.265-7.139-2.769-2.388-5.35-4.649-7.97-6.865-2.22-1.876-3.5-4.081-1.43-6.672,2.2-2.756,4.7-2.032,7.089.015,3.035,2.6,6.111,5.152,9.342,7.87,1.406-1.215,2.594-2.221,3.759-3.252,2.294-2.029,4.716-2.362,6.8.065,1.973,2.3,1.15,4.511-.968,6.383C439.157,424.387,435.978,427.236,432.09,430.7Zm181.581,35c0,6.783,0,13.222,0,19.661,0,2.945-1.069,5.258-4.33,5.269-3.207.01-4.382-2.113-4.348-5.172.065-5.749.106-11.5-.066-17.247-.035-1.169-.79-3.019-1.663-3.343-4.8-1.779-5.863-5.454-5.816-9.953.052-4.869.012-9.739.012-14.827H575.673c0,4.67,0,8.973,0,13.276,0,8.561-1.185,10.149-9.461,12.439,0,1.349-.022,2.773,0,4.2.251,14.228.533,28.456.761,42.685.369,23,.674,45.994,1.123,68.989.028,1.446.711,3.773,1.689,4.154,4.72,1.84,5.979,5.347,5.906,9.9-.079,4.979-.018,9.961-.018,15.052h21.793c0-5.571-.014-10.863,0-16.156.012-3.555,1.114-6.837,4.608-8.047,2.712-.939,2.953-2.448,2.946-4.778q-.081-28.895-.023-57.79c0-1.293-.367-2.82.189-3.821.744-1.338,2.17-3.081,3.4-3.163a6.074,6.074,0,0,1,4.4,2.3c.816,1.056.655,2.989.658,4.534q.056,28.248.025,56.5v4.845h29.878c1.549-9.742,1.548-9.741-6.923-13.139-1.465-.587-2.894-1.287-4.4-1.757-3.821-1.2-4.728-3.793-3.759-7.394,1.378-5.121,2.539-10.311,4.177-15.347,1.2-3.691.831-6.546-2.248-9.13-2.923-2.455-2.832-5.354-.641-8.4,2.1-2.914,3.748-6.19,6.085-8.881,6.894-7.936,9.218-16.909,8.351-27.371-.766-9.232-.16-18.577-.16-28.088Zm18.387,221.971c-.5,2.363-.417,4.614-1.44,6.114s-3.321,3.309-4.759,3.081c-1.393-.22-2.7-2.728-3.467-4.483-.435-.993.242-2.5.5-3.764,1.362-6.775,1.289-7.068-4.73-10.263a9.481,9.481,0,0,0-4.077-.949c-4.309-.119-8.624-.108-12.935-.034-15.576.264-11.175-2.306-18.784,11.283-4.027,7.194-7.84,14.509-11.9,22.044H708.638c-.185-1.3-.25-2.292-.473-3.243-3-12.84-6.807-25.553-8.826-38.543-2-12.846-7.579-22.328-18.236-29.887a32.949,32.949,0,0,0-18.145-6.626c-10.374-.7-16.9,2.125-21.679,11.763-4.737,9.56-11.307,18.212-17.217,27.487,6.02,4.058,11.714,7.906,17.418,11.738,2.618,1.759,4.662,3.889,2.385,7.063-2.057,2.868-4.672,2.051-7.159.281C635.322,689.752,633.871,688.864,632.058,687.675ZM491.082,439.93c0,5.765.425,11.117-.177,16.351-.306,2.665-1.832,6.2-3.924,7.406-2.948,1.7-3.686,3.433-3.462,6.383.163,2.144.049,4.309.049,6.464q0,52.378.069,104.757c0,1.581.662,4.113,1.723,4.574,4.616,2.006,5.842,5.507,5.756,10.051-.094,4.962-.021,9.927-.021,14.834h21.8c0-5.622.01-10.925,0-16.229-.009-3.6,1.239-6.755,4.692-7.99,2.586-.924,2.772-2.389,2.665-4.562-.2-4.161-.313-8.328-.388-12.494q-.9-50.426-1.844-100.851c-.033-1.643-.946-3.3-1.609-4.889-1.11-2.653-3.09-5.173-3.375-7.888-.546-5.2-.159-10.491-.159-15.917ZM527.465,465.7c0,12.329-.061,24.37.107,36.409.015,1.05,1.34,2.371,2.388,3.071,5.969,3.986,12.039,7.82,18.073,11.709,2.4,1.549,4.742,3.3,3.045,6.562-1.636,3.142-4.28,2.838-7.015,1.382-.253-.135-.658.016-1.233.048.547,2.466.965,4.712,1.553,6.912.829,3.105.163,5.655-3.115,6.461-3.126.77-4.7-1.185-5.337-4.147-1.02-4.763-2.365-9.465-3.185-14.259-.523-3.055-2.212-4.28-4.077-4.738v70.177h30.824c-.739-39.96-1.473-79.667-2.211-119.587Zm-82.506,0c-.092,1.516-.2,2.511-.2,3.507q-.134,32.986-.241,65.974c-.025,7.847,0,7.847,8.213,9.971.83-4.791,1.588-9.574,2.51-14.325.52-2.68,2.091-4.635,5.059-4.133,2.867.486,3.969,2.581,3.5,5.446a46.858,46.858,0,0,0-.889,5.516c-.448,11.46-4.5,21.25-13.67,28.382-6.955,5.407-4.286,12.471-4.6,19.2h29.814V465.7ZM409.738,679.632a10.526,10.526,0,0,0-1.941-.838c-14.653-.05-29.306-.105-43.959-.072a5.118,5.118,0,0,0-3.136,1.067c-3.528,3.108-6.906,6.385-10.241,9.509.3.644.345.971.534,1.128,3.213,2.651,6.444,5.278,9.668,7.916,6.549,5.358,6.545,5.357,2.463,12.832-.107.2.058.539.143,1.14q17.585,0,35.255-.014a16.633,16.633,0,0,0,2.341-.382c-2.346-5.546-4.508-10.385-11.609-10.279-3.385.05-6.774-1.109-10.183-1.549-3.139-.406-5.415-1.8-4.875-5.175.548-3.414,3.312-3.97,6.326-3.474,4.245.7,8.551,1.162,12.709,2.211,6.536,1.647,10.037-3.423,14.183-6.467C409.119,685.935,409.017,682.228,409.738,679.632ZM360.184,550v35.2h30.1c0-9.731-.228-19.181.1-28.611.159-4.584-.871-7.8-5.977-9.111-1.361,1.638-3.051,3.394-4.414,5.374-2.4,3.491-5.283,3.9-8.925,2.083C367.634,553.224,364.083,551.757,360.184,550Zm-.028-58.842a44.812,44.812,0,0,0,6.02-2.5,20.747,20.747,0,0,0,3.408-3.271c4.128-4.044,6.624-4.772,8.6-2.211,2.851,3.689.115,6.09-2.415,8.3a47.876,47.876,0,0,1-4.461,3.136c6.466,7.554,6.467,7.556,13.637,3.44a30.8,30.8,0,0,0,3.675-2.227c.7-.546,1.569-1.462,1.578-2.22.108-9.279.07-18.559.07-27.755H360.156Zm77.021,119.484H482.1V594.786H437.177Zm84.644.121h44.848V594.824H521.821ZM651.33,594.817H606.574v15.951H651.33Zm-253.807.038h-44.89v15.869h44.89ZM522,456.255h44.53V440.28c-14.372,0-28.284-.039-42.193.1a3.316,3.316,0,0,0-2.232,2.332C521.878,447.117,522,451.535,522,456.255Zm-169.176-15.79v15.763h45.04c-.243-5.4-.471-10.469-.709-15.763Zm129.032,15.959c0-5.063.11-9.744-.129-14.406-.032-.638-1.8-1.691-2.767-1.7q-19.348-.181-38.7-.021c-.993.008-2.8,1.025-2.834,1.642-.238,4.78-.132,9.576-.132,14.485Zm169.478-.135c0-4.226-.169-8.213.055-12.177.173-3.056-.966-3.979-3.946-3.949-12.363.126-24.729.046-37.093.078a32.949,32.949,0,0,0-3.729.467v15.581Z" style="fill: #dea369"/>
    <g>
      <path d="M211.537,284.279l14.6,11.811,16.025-19.406,5.434,4.846-19.5,24.4-26.493-20.855a430.5,430.5,0,0,1,75.385-77.424l21.793,26.144L276.4,252.5l-4.9-5.531,17.4-14.849-12.332-14.488A368.2,368.2,0,0,0,211.537,284.279Z" style="fill: #dea369"/>
      <path d="M817.667,277.916l-26.19,21.791-18.63-22.38,5.44-4.888,14.852,17.353,14.519-12.3A367.52,367.52,0,0,0,741.016,212.5l-11.842,14.535,19.5,16.064-4.875,5.447L719.344,229l20.863-26.487A430.842,430.842,0,0,1,817.667,277.916Z" style="fill: #dea369"/>
      <path d="M251.568,748.92l-5.491,4.848-14.892-17.362-14.472,12.313a364.677,364.677,0,0,0,66.681,64.988L295.165,799.2,275.75,783.14l4.824-5.555,24.436,19.623c-6.878,8.718-13.718,17.39-20.861,26.445a431.244,431.244,0,0,1-77.43-75.339L232.908,726.5Z" style="fill: #dea369"/>
      <path d="M747.317,818.585l-21.727-26.2,22.446-18.643,4.935,5.338L735.534,794.1,747.8,808.622a372.07,372.07,0,0,0,65.012-66.7l-14.6-11.815-15.959,19.457-5.536-4.856L796.3,720.274l26.468,20.874A433.786,433.786,0,0,1,747.317,818.585Z" style="fill: #dea369"/>
      <path d="M201.988,728.131,217.4,718.117c-4.46-7.048-8.845-13.978-13.414-21.2l6.19-3.742,17.174,26.079-27.665,18.532c-12.345-15.014-37.715-59.009-50.494-95.4l31.383-12.629,10.8,26.958-6.6,3.085-8.783-21.152-17.168,6.982C160.778,658.9,190.2,715.175,201.988,728.131Z" style="fill: #dea369"/>
      <path d="M194.149,295.256l28.787,18.19-15.567,24.583-6.319-3.618L213,314.872,196.768,304.9a370.036,370.036,0,0,0-41.256,83.485l17.566,6.808c3.071-7.806,6.077-15.45,9.226-23.457,2.337.978,4.418,1.85,6.734,2.821-3.722,9.783-7.379,19.394-11.131,29.253L146.4,392.2A427.681,427.681,0,0,1,194.149,295.256Z" style="fill: #dea369"/>
      <path d="M737.082,825.928a427.152,427.152,0,0,1-95.616,50.308l-12.6-31.565,27-10.764,2.96,6.634-21.11,8.782c2.373,5.815,4.652,11.4,7.189,17.621a366.574,366.574,0,0,0,82.514-43.317l-10.272-15.764-21.161,13.521-3.775-6.248,26.137-17.164Z" style="fill: #dea369"/>
      <path d="M835.363,651.643l11.076-29.24L878,634.011a429.777,429.777,0,0,1-47.76,96.912l-28.819-18.159,15.567-24.559,6.322,3.556-11.922,19.53,15.919,9.866c11.242-13.234,35.3-61.779,41.336-83.417l-17.384-6.717c-3.086,7.894-6.033,15.435-9.132,23.363Z" style="fill: #dea369"/>
      <path d="M368.624,192.279a11.974,11.974,0,0,1-.761-1.263c-.695-1.629-1.361-3.271-2.24-5.4l21.051-8.732c-2.368-5.757-4.7-11.435-7.245-17.61a366.729,366.729,0,0,0-82.486,43.3l10.245,15.77,21.083-13.5,3.931,6.183L306.02,228.241l-18.727-27.975a428.727,428.727,0,0,1,95.6-50.3c4.226,10.579,8.357,20.923,12.6,31.533Z" style="fill: #dea369"/>
      <path d="M822.7,297.874l-15.784,10.271,13.5,21.07-6.178,3.88-17.2-26.144,27.968-18.758a425.868,425.868,0,0,1,50.293,95.657l-31.5,12.519-10.82-26.884,6.6-3.1c2.913,7.043,5.742,13.881,8.8,21.265l17.71-7.295A371.145,371.145,0,0,0,822.7,297.874Z" style="fill: #dea369"/>
      <path d="M294.33,831.141l18.193-28.732,24.621,15.509c-1.166,2.013-2.263,3.909-3.661,6.322L313.956,812.2c-3.311,5.417-6.528,10.681-9.961,16.3a369.908,369.908,0,0,0,83.461,41.3l6.8-17.645-23.46-9.189,2.878-6.661,29.207,11.058c-3.831,10.422-7.623,20.74-11.592,31.54A428.127,428.127,0,0,1,294.33,831.141Z" style="fill: #dea369"/>
      <path d="M827.058,710.813l-6.685-3.961,11.6-19.907-15.768-8.837a355.9,355.9,0,0,1-50.062,69.829l13.294,12.254,17.195-19.835,5.867,5.056-22.082,25.35-24.479-22.491A347.2,347.2,0,0,0,813.265,668.4c9.692,5.363,19.053,10.543,28.914,16Z" style="fill: #dea369"/>
      <path d="M227.7,285.969l-5.732-5.27,22-25.272L268.345,277.9a350.445,350.445,0,0,0-57.213,79.9l-29-16.033L197.35,315.41l6.725,3.829L192.4,339.276l15.772,8.807a355.178,355.178,0,0,1,50.075-69.834l-13.341-12.266Z" style="fill: #dea369"/>
      <path d="M653.582,183.256c-1.083,2.486-1.947,4.471-2.9,6.661L621.491,178.86c3.845-10.442,7.642-20.755,11.606-31.522a426.614,426.614,0,0,1,96.9,47.695l-18.145,28.849L687.365,208.3l3.454-6.287,19.568,11.918,10.036-16.2a372.022,372.022,0,0,0-83.557-41.364L630.106,174Z" style="fill: #dea369"/>
      <path d="M254.556,781.3l22.411-24.361a350.846,350.846,0,0,0,79.954,57.212L340.887,843.1l-26.355-15.067,3.889-6.752,19.941,11.6,8.787-15.72a360.571,360.571,0,0,1-69.842-50.125l-12.2,13.352L284.914,797.5l-5.086,5.94Z" style="fill: #dea369"/>
      <path d="M336.694,185.173c5.566,9.893,10.818,19.228,16.265,28.908a349.044,349.044,0,0,0-79.071,58.3l-22.651-24.17,22.638-20.5,5.1,5.877-17.2,15.394c4.284,4.591,8.226,8.816,12.322,13.2a351.182,351.182,0,0,1,69.185-50.918l-8.937-15.8L311.888,209.1c-1.186-2-2.363-3.978-3.971-6.683Z" style="fill: #dea369"/>
      <path d="M671.406,812.105a349.151,349.151,0,0,0,79.12-58.314l22.608,24.236c-7.633,6.89-15,13.538-22.56,20.367l-5.2-5.7L762.6,777.266,750.38,764.012a359.243,359.243,0,0,1-69.3,50.953L690.03,830.7l22.436-13.575,4,6.7-28.835,17.191Z" style="fill: #dea369"/>
      <path d="M752.915,274.731l24.213-22.557,20.422,22.6-5.789,5.146L776.31,262.75c-4.425,4.081-8.646,7.976-12.788,11.8,9.158,11.253,18.619,22.028,27.092,33.531,8.41,11.417,15.825,23.567,23.936,35.787l15.236-8.564-13.532-22.466,6.659-3.955,17.17,28.75-28.866,16.279A351.03,351.03,0,0,0,752.915,274.731Z" style="fill: #dea369"/>
      <path d="M879.245,395.935A431.059,431.059,0,0,1,897.43,502.317L863.6,504.574c-.631-9.78-1.241-19.23-1.867-28.917l7.084-.779c.645,7.514,1.287,14.984,1.959,22.814l18.957-1.5a364.13,364.13,0,0,0-15.662-91.8l-18.22,4.8c2.111,8.224,4.15,16.169,6.26,24.387l-7,1.615c-2.771-10.079-5.5-20-8.284-30.136Z" style="fill: #dea369"/>
      <path d="M667.488,212l16.039-28.894,26.326,15.126-3.829,6.7-19.982-11.611-8.879,15.709a355.019,355.019,0,0,1,69.855,50.138l12.267-13.364-19.977-17.234,5.324-5.712c8.364,7.306,16.636,14.533,25.159,21.98l-22.433,24.368A355.376,355.376,0,0,0,667.488,212Z" style="fill: #dea369"/>
      <path d="M126.969,511.108c.482-33.278,9.365-92.864,15.938-106.713l32.42,8.207c-2.4,9.467-4.731,18.643-7.12,28.055l-7.016-1.354L166.4,417l-18.528-4.529a369.336,369.336,0,0,0-13.5,92.285l18.857.9c.544-8.51,1.06-16.594,1.6-25.012l7.141.746c-.486,10.282-.96,20.306-1.466,30.984Z" style="fill: #dea369"/>
      <path d="M496.717,154.546c-.487-6.359-.957-12.506-1.457-19.046a367.414,367.414,0,0,0-91.843,15.754c1.643,6.115,3.228,12.017,4.886,18.191l24.361-6.316,1.532,7.116-30.054,8.18c-3.009-10.646-6.006-21.244-9.141-32.336a430.515,430.515,0,0,1,106.4-18.26c.756,11.4,1.492,22.5,2.243,33.816l-28.854,1.908c-.285-2.117-.571-4.241-.954-7.094Z" style="fill: #dea369"/>
      <path d="M514.182,127.814a433.42,433.42,0,0,1,106.83,15.532c-2.816,11.124-5.514,21.786-8.324,32.888L584.569,169.1c.469-2.229.93-4.416,1.489-7.075l22.2,5.323c1.465-6.035,2.938-12.1,4.5-18.556a368.749,368.749,0,0,0-92.143-13.512l-1.145,18.848,25.029,1.642c-.133,2.506-.246,4.647-.377,7.111l-31.268-1.493C513.293,150.417,513.729,139.328,514.182,127.814Z" style="fill: #dea369"/>
      <path d="M145.164,630.309A431.315,431.315,0,0,1,126.9,523.852l33.791-2.2c.659,9.7,1.3,19.129,1.967,28.966l-7.19.594c-.593-7.551-1.16-14.787-1.777-22.651l-18.414,1.378c-2.795,10.927,8.662,78.483,15.536,91.833l17.731-4.781-6.322-24.3,7.08-1.633c2.715,9.993,5.375,19.783,8.162,30.043Z" style="fill: #dea369"/>
      <path d="M863.931,513.739l33.426,1.394a427.333,427.333,0,0,1-15.377,106.78L849.033,613.6l7.145-28.016,7.115,1.348c-1.782,7.4-3.491,14.5-5.354,22.233l18.1,4.414c6.525-13.756,15.621-76.4,13.395-92.166l-18.366-.932c-.5,8.336-.981,16.4-1.472,24.615h-7.245C862.884,534.579,863.4,524.338,863.931,513.739Z" style="fill: #dea369"/>
      <path d="M261.383,751.311a353.24,353.24,0,0,1-51.024-69.289c-5.26,2.966-10.349,5.835-15.816,8.919,4.588,7.548,9.02,14.842,13.648,22.455l-6.726,3.948-17.178-28.753,28.854-16.256A357.7,357.7,0,0,0,271.4,751.521l-24.135,22.5-20.419-22.549,5.775-5.265,15.412,17.3Z" style="fill: #dea369"/>
      <path d="M522.935,898.352c-.749-11.6-1.45-22.46-2.185-33.831l28.988-1.878c.191,2.223.375,4.356.61,7.1l-22.7,1.926c.474,6.381.928,12.5,1.41,18.988a362.413,362.413,0,0,0,91.9-15.721c-1.656-6.128-3.255-12.051-4.914-18.191l-24.191,6.275c-.627-2.4-1.211-4.636-1.831-7.006l30.2-8.226c3.042,10.786,6.026,21.365,9.128,32.365A430.364,430.364,0,0,1,522.935,898.352Z" style="fill: #dea369"/>
      <path d="M511.473,864.875c-.428,11.139-.846,22-1.283,33.377a426.193,426.193,0,0,1-106.847-15.363c2.835-11.166,5.6-22.06,8.367-32.958l28.086,7.155c-.44,2.2-.865,4.32-1.417,7.071l-22.247-5.294c-1.5,6.115-2.989,12.166-4.567,18.587a366.344,366.344,0,0,0,92.266,13.366c.324-6.339.63-12.339.959-18.793l-25.171-1.563c.286-2.538.531-4.7.813-7.192Z" style="fill: #dea369"/>
      <path d="M457.509,847.483l-6.345,32.382-29.725-6.287c.634-2.715,1.156-4.953,1.742-7.464l22.467,4.871c1.216-5.969,2.357-11.566,3.618-17.752A360.737,360.737,0,0,1,367.28,827.17c-2.5,5.508-4.922,10.826-7.507,16.512l24.118,10.195c-1.015,2.373-1.911,4.469-3.019,7.063l-30.793-13.116c4.628-10.133,9.071-19.86,13.766-30.141A352.108,352.108,0,0,0,457.509,847.483Z" style="fill: #dea369"/>
      <path d="M209.566,665.377l-29.947,13.991c-4.186-9.344-8.26-18.434-12.458-27.8l7.073-3.053,9.348,21.105,16.432-7.55a360.013,360.013,0,0,1-27.095-81.609l-17.832,3.579c2.028,8.6,3.979,16.874,6.052,25.666l-7.595,1.439c-2.487-10.927-4.9-21.508-7.387-32.453l32.4-6.5A351.618,351.618,0,0,0,209.566,665.377Z" style="fill: #dea369"/>
      <path d="M151.691,422.45l7.5,1.57-4.872,22.605,17.177,3.383c3.753-14.161,6.9-28.169,11.236-41.8,4.3-13.5,9.795-26.607,14.9-40.235l-16-7.308-10.216,24.254-7.066-3.166c4.389-10.27,8.7-20.355,13.154-30.782l30.068,13.773a351.784,351.784,0,0,0-29.714,93.64l-32.431-6.3C147.554,442,149.6,432.327,151.691,422.45Z" style="fill: #dea369"/>
      <path d="M872.743,603.672l-7.53-1.45c1.615-7.542,3.189-14.886,4.846-22.622l-17.745-3.566A357.449,357.449,0,0,1,826.24,658l16.5,7.526c3.425-8.11,6.77-16.034,10.222-24.21l7.008,3.105-13.061,30.812-30.132-13.787A349.471,349.471,0,0,0,846.523,567.8l32.339,6.281C876.805,584.033,874.809,593.681,872.743,603.672Z" style="fill: #dea369"/>
      <path d="M883.092,487.754l-7.569,1.1c-.825-7.683-1.626-15.147-2.476-23.066l-17.33,2c.784,14.624,2.081,28.929,2.17,43.242.087,14.181-1.043,28.369-1.654,42.925l17.444,2.008c.757-8.8,1.486-17.278,2.241-26.059l7.588.587c-.961,11.094-1.9,21.9-2.886,33.3l-32.794-3.76c4.106-32.777,4.244-65.375-.8-98.222l32.761-4.049C880.888,467.737,881.967,477.535,883.092,487.754Z" style="fill: #dea369"/>
      <path d="M537.345,884.019c-.27-2.8-.479-4.969-.734-7.616l22.887-2.371c-.681-5.961-1.33-11.645-2.052-17.968-28.709,3.432-57.183,3.989-86.023.385-.706,6.151-1.36,11.854-2.086,18.173l26.221,2.232c-.309,2.433-.595,4.691-.963,7.594l-33.123-2.962,3.793-32.777a355.015,355.015,0,0,0,98.175-.729c1.363,10.834,2.7,21.455,4.117,32.737Z" style="fill: #dea369"/>
      <path d="M851.405,445.808l17.807-3.668c-1.976-8.524-3.893-16.8-5.907-25.487l7.425-1.805c2.492,10.882,4.944,21.585,7.482,32.669l-32.371,6.512a350.313,350.313,0,0,0-31.081-93.193l29.975-14.007c4.14,9.237,8.22,18.339,12.407,27.682l-7.014,3.247-9.318-21.191-16.423,7.53A356.552,356.552,0,0,1,851.405,445.808Z" style="fill: #dea369"/>
      <path d="M678.45,845.68l-27.668,12.4-3.215-7.053,21.2-9.342c-2.633-5.66-5.053-10.863-7.366-15.834-13.614,5.241-26.68,10.825-40.119,15.29-13.458,4.472-27.288,7.827-41.571,11.845,1.029,5.222,2.134,10.828,3.4,17.228l25.659-6.036c.456,2.25.912,4.5,1.517,7.49l-32.488,7.457c-2.2-10.919-4.329-21.5-6.52-32.386a350.21,350.21,0,0,0,93.171-31.054C669.054,825.559,673.628,835.355,678.45,845.68Z" style="fill: #dea369"/>
      <path d="M660.518,208.524a348.051,348.051,0,0,0-93.606-29.736c2.062-10.721,4.082-21.225,6.236-32.421l29.546,6.153c-.47,2.685-.864,4.934-1.329,7.588l-22.672-4.9c-1.2,5.959-2.347,11.688-3.571,17.788a357.762,357.762,0,0,1,82,26.036l7.5-16.493-24.248-10.214c1.026-2.261,2.016-4.441,3.2-7.042L674.288,178.4Z" style="fill: #dea369"/>
      <path d="M444.888,173.88c-1.25-6.052-2.388-11.558-3.674-17.783l-25.447,5.891c-.563-2.307-1.136-4.654-1.827-7.489l32.669-7.42c2.237,11.168,4.343,21.677,6.494,32.415A354.111,354.111,0,0,0,359.908,210.4l-14.022-29.841,27.734-12.441c1.128,2.48,2.089,4.592,3.212,7.059l-21.2,9.287c2.54,5.509,4.945,10.727,7.583,16.45A356.19,356.19,0,0,1,444.888,173.88Z" style="fill: #dea369"/>
      <path d="M177.3,564.392l-32.718,4.025c-1.092-10.016-2.159-19.808-3.275-30.052l7.58-.9c.806,7.667,1.579,15.029,2.411,22.956l17.965-2.092a370.247,370.247,0,0,1-.593-86.009l-17.93-2.077c-.775,8.721-1.526,17.17-2.315,26.055l-7.6-.557c1.01-11.217,1.991-22.116,3-33.374l32.854,3.841A344.881,344.881,0,0,0,177.3,564.392Z" style="fill: #dea369"/>
      <path d="M553.088,168.945c.605-5.424,1.228-11,1.931-17.3l-26.086-2.315c.23-2.557.425-4.715.682-7.576l33.287,2.988c-1.3,11.221-2.523,21.737-3.811,32.829a341.088,341.088,0,0,0-98.2.7c-1.334-10.9-2.634-21.519-4.011-32.771l30.044-3.277c.357,2.908.634,5.171.927,7.554l-23.015,2.461c.71,6.093,1.361,11.677,2.016,17.3,14.489-.735,28.759-1.947,43.037-2.046C524.2,167.394,538.507,168.409,553.088,168.945Z" style="fill: #dea369"/>
    </g>
    <g>
      <path d="M896.831,151.154V139H880.655v12.566c-4.7-4.176-4.962-10.274-.582-17.075,3.321-5.156,7.448-9.794,11.321-14.8-5.609-6.975-10.121-14.417-10.379-23.66-.3-10.913,3.97-15.793,14.827-17.052.626-.072,1.239-.258,3.19-.678-2.8-2.327-4.858-3.936-6.793-5.678a37.735,37.735,0,0,1-2.881-3.226c1.32-.938,2.519-2.266,3.989-2.724a23.884,23.884,0,0,1,7.1-1.131c10.987.044,21.974.257,32.959.482a8.158,8.158,0,0,1,3.487.841c1.14.593,2.62,1.478,2.877,2.5.187.745-1.255,2.066-2.186,2.887-2.093,1.85-4.32,3.548-6.6,5.394.889.777,1.125,1.164,1.366,1.168,15.023.249,18.43,11.091,15.257,22.937-1.734,6.472-5.634,12.365-8.869,19.176,5.753,8.515,17.734,15.971,11.972,29.936l-1.68.417c-.206-4-.412-7.994-.638-12.361H933.557v12.153H922.6v-12.2H907.255v12.274Zm31.424-66.57c-1.633,11.852-.5,22.785,7.858,33.453,2.687-5.636,5.328-10.241,7.134-15.153C947.628,90.974,942.07,83.9,928.255,84.584Zm-35.943,32.453,2-.326c6.711-8.763,8.159-18.884,7.075-29.555a4.1,4.1,0,0,0-2.751-2.743c-8.221-1.139-15.022,5.086-13.354,13.177C886.658,104.271,889.9,110.569,892.312,117.037Z" style="fill: #dea369"/>
      <path d="M881.9,154.833c.527-4.322,1.053-8.644,1.636-13.426h10.786v11.959h15.182V141.272h10.666v12.173h15.34V141.427h10.116c2.615,3.783-2.13,9.688,3.754,13.451-2.17,3.36-4.639,6.834-6.731,10.523-1.986,3.5-3.35,7.366-5.446,10.791-.958,1.567-2.993,3.46-4.582,3.5-12.038.295-24.088.261-36.13.047-1.445-.025-4.019-1.648-4.1-2.685-.488-6.185-4.733-10.127-7.9-14.75-1.635-2.385-2.946-4.992-4.4-7.5Z" style="fill: #dea369"/>
    </g>
    <g>
      <path d="M73.692,933.389c-6.686-22.662,4.268-48.422,26.129-62.643,23.874-15.53,55.111-13.226,77.83,6.058L159.82,897.931c-10.123-5.709-20.456-7.955-31.645-6-14.935,2.609-24.925,12.951-26.194,28.087-.289,3.441-1.457,4.9-4.652,5.83C89.5,928.132,81.784,930.781,73.692,933.389Z" style="fill: #dea369"/>
      <path d="M103.683,945.825,108,930.941l4.815-1.189-6.053-1.93c-1.707-10.14,3.353-21.783,12.429-26.908,13.826-7.808,27.3-5.226,41.113,2.382l-8.71,9.965,5.654,6.431c1.62-1.294,3.231-2.581,5.317-4.249.476,12.857,2.185,25.487.937,37.818-.758,7.5,1.146,13.8,2.591,20.552.37,1.733,1.067,3.4,1.391,5.137.569,3.061-.6,4.743-3.781,3.423-11.755-4.871-21.557-11.643-24.618-25.171a88.846,88.846,0,0,0-4.61-14.141c-.487-1.181-3-2.428-4.345-2.208C121.087,942.331,112.107,944.2,103.683,945.825Zm57.6.889c1.333-8.429-1.2-10.8-9.094-9.015C151.2,944.923,158.264,943.406,161.285,946.714Z" style="fill: #dea369"/>
    </g>
    <g>
      <path d="M132.772,72.765c-1.571,10.3,1.6,19.63,6.3,28.859a136.851,136.851,0,0,1,9.606,23.533c3.114,10.681-.711,19.41-9.795,25.812-17.6,12.406-46.2,12.485-63.92.177-8.9-6.184-12.508-14.867-10-25.452a100.6,100.6,0,0,1,4.828-13.968,81.571,81.571,0,0,1,4.87-9.986c5.2-9.153,8.14-18.791,6.517-29.282a25.77,25.77,0,0,1-1.415,2.418,8.435,8.435,0,0,1-10.238,2.96,8.645,8.645,0,0,1,2.062-16.563c7.218-1.037,12.887,3.171,14.325,10.986,1.857,10.083-.016,19.987-2.122,29.8-1.38,6.43-3.6,12.685-4.881,19.131C76.195,134.863,81.528,142.6,95.2,145.116a57.855,57.855,0,0,0,27.725-1.328c8.926-2.728,13.074-8.138,12.5-17.378-.32-5.137-2.038-10.174-2.9-15.293-1.821-10.791-3.744-21.576-5.075-32.431-.4-3.239.589-6.861,1.727-10.025,1.925-5.353,6.728-7.948,12.424-7.454a8.4,8.4,0,0,1,7.992,7.03,8.554,8.554,0,0,1-4.9,9.488,8.712,8.712,0,0,1-10.657-2.865A19.939,19.939,0,0,1,132.772,72.765ZM78.953,69.918c-2.26-1.655-3.627-3.418-5.021-3.44-1.153-.019-3.445,2.257-3.264,3.092a5.443,5.443,0,0,0,3.4,3.565C75.133,73.371,76.662,71.517,78.953,69.918ZM144.3,69.6c-2.437-1.537-3.919-3.2-5.265-3.1-1.179.091-2.2,2.171-3.3,3.372,1.278,1.148,2.443,2.982,3.87,3.216C140.664,73.261,142.063,71.355,144.3,69.6Z" style="fill: #dea369"/>
      <path d="M131.178,176.234H83.1c-.8-6.8.435-8.249,6.755-8.243q16.837.016,33.674,0C130.561,167.981,130.618,168.021,131.178,176.234Z" style="fill: #dea369"/>
      <path d="M112.392,136.637h7.4l-.084-.442q4.131,1.04,8.257,2.08c-7.174,7-35.731,6.943-42.37-.136l8.329-1.706c1.931.48,3.929,2.318,6.144-.451.181-.227.985.015,1.493.087a15.154,15.154,0,0,0,5.308.135C109.073,137.629,111.135,138.546,112.392,136.637Z" style="fill: #dea369"/>
      <path d="M124.656,159.5l1.926,6.93h-39.2l1.882-6.931A62.978,62.978,0,0,0,124.656,159.5Z" style="fill: #dea369"/>
      <path d="M89.04,83.851c-1.051-2.947-.037-3.837,2.752-3.81q15.177.144,30.356-.009c2.835-.03,3.756.925,2.741,3.819Z" style="fill: #dea369"/>
      <path d="M93.712,134.37V85.427l.714-.01v48.948Z" style="fill: #dea369"/>
      <path d="M100.108,134.324V85.5l.658-.012v48.795Z" style="fill: #dea369"/>
      <path d="M112.846,134.258V85.549l.686-.009v48.751Z" style="fill: #dea369"/>
      <path d="M119.256,134.391V85.421l.737-.007v48.962Z" style="fill: #dea369"/>
      <path d="M106.6,134.189V85.564l.633,0v48.5Z" style="fill: #dea369"/>
      <path d="M100.381,78.568c-.457-2.842-.99-5.676-1.3-8.534-.053-.493.847-1.089,1.307-1.638.545.488,1.586,1.012,1.554,1.459-.208,2.9-.65,5.781-1.016,8.669Z" style="fill: #dea369"/>
      <path d="M113.1,78.6c-.434-2.931-.939-5.855-1.216-8.8-.037-.4,1.077-.9,1.657-1.354.433.568,1.279,1.176,1.229,1.7-.276,2.82-.774,5.619-1.195,8.426Z" style="fill: #dea369"/>
      <path d="M106.953,79.7c-.6-5.034-1.133-8.993-1.47-12.969-.04-.472.985-1.034,1.516-1.554.5.548,1.454,1.134,1.411,1.636C108.074,70.765,107.547,74.7,106.953,79.7Z" style="fill: #dea369"/>
      <path d="M93.881,78.585c-.425-1.658-.952-3.3-1.226-4.982a3.409,3.409,0,0,1,.6-2.1c.13-.211,1.171-.186,1.441.085a2.463,2.463,0,0,1,.711,1.726c-.18,1.8-.562,3.57-.866,5.352Z" style="fill: #dea369"/>
      <path d="M119.45,78.652c-.431-2-.968-3.983-1.215-6-.057-.473.87-1.066,1.344-1.6.541.6,1.578,1.236,1.534,1.787a50.276,50.276,0,0,1-1.063,5.786Z" style="fill: #dea369"/>
    </g>
    <g>
      <path d="M921.282,881.369c2.63,5.876,2.494,12.007,1.79,18.224-.368,3.247-2.143,5.057-4.69,7.081-2.2,1.748-3.221,5.177-4.326,8.031-.7,1.8-.59,3.912-.844,5.884-2.156,2.366-4.634,4.537-5.5,7.685l1.06.755,5.132-6.456c3.557-.539,4.707.274,5.487,3.363.751,2.975,1.779,5.881,2.891,9.485l-23.563,4.85c.061,1.013.075,1.853.168,2.685a13.644,13.644,0,0,1-9.042,13.959c-5.539,1.76-11.553-2.818-11.715-8.666-.037-1.331-1.732-2.6-1.811-3.951-.367-6.27-.731-12.568-.507-18.835a77.808,77.808,0,0,1,2.031-13.119c.318-1.508,1.569-2.82,2.34-4.128-1.936-.715-2.445-1.786-.543-2.6.978-.417,2.058-.6,3.247-1.176-3.963-.533-3.949-3.007-3.931-6.062.028-4.6-.621-9.2-1.018-14.254,5.3-.568,10.88-1.187,16.465-1.76,7.271-.746,14.537-1.564,21.824-2.1,1.684-.124,3.443.781,5.167,1.213Zm-29.648,66.166-.118-.118c2.3,1.956,4.274,1.217,5.768-.964a4.96,4.96,0,0,0-1.666-6.656,4.581,4.581,0,0,0-6.3,1.656C887.977,943.83,888.781,945.948,891.634,947.535Z" style="fill: #dea369"/>
      <path d="M913.906,922.573l-5.132,6.456-1.06-.755c.864-3.148,3.342-5.319,5.5-7.685a20.659,20.659,0,0,0,1.432-2.98c.619-2.036,1.018-4.139,1.641-6.174.081-.265.946-.29,1.738-.506.19-.944-2.024-3.62,1.876-3.1.848.114,2-2.525,3.113-3.807,1.855-2.134,3.47-4.688,5.758-6.2,7.147-4.715,14.745-8.612,23.573-8.934a10.5,10.5,0,0,1,8.154,3.587c-2.471,1.658-4.681,2.936-6.65,4.514-2.431,1.95-4.615,4.206-6.991,6.229-6.236,5.311-12.472,10.625-18.826,15.791-1.109.9-2.8,1.091-4.152,1.586.066.149.508.836.395.945-1.066,1.026-7.734-.007-9.079-1.611C914.718,920.91,914.312,921.742,913.906,922.573Z" style="fill: #dea369"/>
      <path d="M891.324,957.61a16.63,16.63,0,0,0,8.963-10.535,3.225,3.225,0,0,1,1.928-1.959c13.193-2.9,26.411-5.68,39.627-8.471.177-.038.4.134.6.213.428,5.232-2.444,9.289-7.544,10.373-4.66.991-9.428,1.53-14.025,2.74-7.049,1.855-13.991,4.122-20.983,6.2-2.721.808-5.456,1.571-8.185,2.355Z" style="fill: #dea369"/>
      <path d="M921.4,881.481c-.363-2.215-1.934-2.34-3.713-2.186-11.705,1.012-23.435,1.8-35.105,3.119-4.4.5-7.843.423-9.434-4.852,3.6-.329,7.266-.7,10.935-.991,10.057-.81,20.11-1.666,30.175-2.352,5.919-.4,8.994,2.632,9.139,8.835l-2.109-1.685Z" style="fill: #dea369"/>
      <path d="M867.689,885.613c-1.147-3.091-3.29-3.934-6.3-2.759-1.421.556-2.824,1.16-4.28,1.761-.7-5.562,5.081-9.845,10.57-8.045,7.712,2.529,10.916,14.418,5.561,20.538-4.18,4.775-13.248,3.631-14.812-2.023,3.168-1.053,7.34,1.069,9.593-2.5a5.744,5.744,0,0,0-.449-7.085Zm-.255-6.4c4.4,2.444,5.069,6.736,5.537,11.13C874.323,884.221,871.969,879.477,867.434,879.215Z" style="fill: #dea369"/>
      <path d="M857.682,891.787c-4.073,2.228-5.385,5.991-4.424,10.1a43.1,43.1,0,0,0,4.523,11.95c6.367,10.826,3.749,20.631-2.551,30.238a29.707,29.707,0,0,0-2.222,2.869c-1.044,2.154-2.641,1.4-4.21,1.072l.127.116c-.232-1.685-.081-3.1,2.04-3.446a2.7,2.7,0,0,0,1.362-.885c5.437-5.942,9.56-18.942,3.98-27.65-3.215-5.017-5.746-10.409-5.623-16.627a11.354,11.354,0,0,1,5.275-9.709,9.687,9.687,0,0,1,2.644-.822q-.249,1.425-.493,2.854A.387.387,0,0,0,857.682,891.787Z" style="fill: #dea369"/>
      <path d="M901.048,944.631c-.151-.769-.62-1.671-.369-2.273a3.067,3.067,0,0,1,1.873-1.614c8.523-1.849,17.067-3.6,25.609-5.357,4.976-1.024,9.951-2.06,14.949-2.968.676-.123,1.483.47,2.23.732-.513.56-.946,1.5-1.55,1.623-13.715,2.92-27.448,5.751-41.179,8.6a2.577,2.577,0,0,1-.33.029Z" style="fill: #dea369"/>
      <path d="M914.61,873.1c3.237-2.176,7.931-1.852,9.73.359,4.085,5.018,4.408,11.577.345,16.33a23.727,23.727,0,0,1-.368-4.393C925.177,878.012,922.142,873.94,914.61,873.1Z" style="fill: #dea369"/>
      <path d="M848.8,948.016c3,2.211,1.664,5.673,2.934,8.383l-1.053.288-.91-3.831-.44,3.655c-3.864.446-6.237-1.033-6.4-3.879-.106-1.816,3.211-4.3,6-4.5Z" style="fill: #dea369"/>
      <path d="M867.575,885.5c.074.754.115,1.514.226,2.263.553,3.727-.642,6.668-5.38,5.437,1.112-3.287.921-6.4-2.092-8.686,3-2.328,5.217-.839,7.357,1.1Z" style="fill: #dea369"/>
      <path d="M857.682,891.787a.387.387,0,0,1,.428.06q.98-1.11,1.969-2.213l-3.968-2.623c1-.4,2.844-1.588,3.246-1.216a8.152,8.152,0,0,1,2.621,4.407c.141,1.014-1.449,2.267-2.263,3.413Z" style="fill: #dea369"/>
      <path d="M945.623,936c2.162-2.812,1.3-4.465-2.021-5.176l.251-.985c1.416.075,3.275-.366,4.126.366a4.967,4.967,0,0,1,1.08,4.047c-.158.9-1.761,1.543-2.718,2.3Z" style="fill: #dea369"/>
      <path d="M927.213,874.908c3.873,2.209,4.589,5.742,1.823,8.46Z" style="fill: #dea369"/>
      <path d="M891.634,947.535c-.4-.51-1.081-.988-1.143-1.536-.169-1.5-.536-3.268.088-4.446.369-.7,2.976-1.094,3.676-.522a5.479,5.479,0,0,1,1.8,4.111c-.068.84-2.057,1.567-3.241,2.246-.33.189-.863.025-1.3.026Z" style="fill: #dea369"/>
    </g>
  </g>
</svg>
